<?xml version="1.0" encoding="utf-8"?>
<!-- Generator: Adobe Illustrator 16.0.0, SVG Export Plug-In . SVG Version: 6.00 Build 0)  -->
<!DOCTYPE svg PUBLIC "-//W3C//DTD SVG 1.1//EN" "http://www.w3.org/Graphics/SVG/1.1/DTD/svg11.dtd">
<svg version="1.1" id="Layer_1" xmlns="http://www.w3.org/2000/svg" xmlns:xlink="http://www.w3.org/1999/xlink" x="0px" y="0px"
	 width="151px" height="151px" viewBox="0 0 151 151" enable-background="new 0 0 151 151" xml:space="preserve">
<circle fill="#B670AF" cx="75.5" cy="75.5" r="75.5"/>
<polyline fill="#E87448" stroke="#000000" stroke-miterlimit="10" points="66.467,93.411 66.467,100.849 62.053,105.1 88.044,105.1 
	83.528,100.777 83.712,93.165 66.222,93.165 "/>
<path fill="#E87448" stroke="#000000" stroke-miterlimit="10" d="M121.681,90.88c0,1.5-2.064,2.718-4.61,2.718H30.254
	c-2.547,0-4.611-1.218-4.611-2.718V39.715c0-1.499,2.063-2.717,4.611-2.717h86.817c2.546,0,4.61,1.218,4.61,2.717V90.88z"/>
<circle fill="#FDFEFF" stroke="#FFFFFF" stroke-miterlimit="10" cx="74.659" cy="97.583" r="1.171"/>
<ellipse fill="#FDFEFF" stroke="#FFFFFF" stroke-miterlimit="10" cx="111.974" cy="109.876" rx="0.381" ry="0.476"/>
<path fill="#4077BC" stroke="#FBFCFE" stroke-miterlimit="10" d="M115.847,83.897c0,1.166-1.795,2.111-4.004,2.111h-75.41
	c-2.212,0-4.006-0.945-4.006-2.111V44.135c0-1.166,1.794-2.112,4.006-2.112h75.41c2.209,0,4.004,0.946,4.004,2.112V83.897z"/>
<path fill="#E87448" stroke="#000000" stroke-miterlimit="10" d="M130.369,109.739c0,1.296-0.802,2.345-1.787,2.345h-33.66
	c-0.986,0-1.787-1.049-1.787-2.345v-44.13c0-1.294,0.801-2.345,1.787-2.345h33.66c0.985,0,1.787,1.051,1.787,2.345V109.739z"/>
<path fill="#4077BC" stroke="#FBFCFE" stroke-miterlimit="10" d="M127.296,105.229c0,1.082-0.672,1.96-1.496,1.96H97.64
	c-0.826,0-1.496-0.878-1.496-1.96V68.305c0-1.081,0.67-1.961,1.496-1.961h28.16c0.824,0,1.496,0.88,1.496,1.961V105.229z"/>
<path fill="#E87448" stroke="#000000" stroke-miterlimit="10" d="M51.715,109.93c0,0.901-0.439,1.634-0.98,1.634H32.272
	c-0.541,0-0.981-0.732-0.981-1.634V79.171c0-0.902,0.44-1.634,0.981-1.634h18.463c0.541,0,0.98,0.731,0.98,1.634V109.93z"/>
<path fill="#4077BC" stroke="#FBFCFE" stroke-miterlimit="10" d="M50.03,106.785c0,0.756-0.367,1.367-0.82,1.367H33.763
	c-0.453,0-0.82-0.611-0.82-1.367V81.051c0-0.754,0.367-1.368,0.82-1.368H49.21c0.453,0,0.82,0.614,0.82,1.368V106.785z"/>
</svg>
