<?xml version="1.0" encoding="utf-8"?>
<!-- Generator: Adobe Illustrator 16.0.0, SVG Export Plug-In . SVG Version: 6.00 Build 0)  -->
<!DOCTYPE svg PUBLIC "-//W3C//DTD SVG 1.1//EN" "http://www.w3.org/Graphics/SVG/1.1/DTD/svg11.dtd">
<svg version="1.1" id="Layer_1" xmlns="http://www.w3.org/2000/svg" xmlns:xlink="http://www.w3.org/1999/xlink" x="0px" y="0px"
	 width="151.001px" height="151px" viewBox="0 0 151.001 151" enable-background="new 0 0 151.001 151" xml:space="preserve">
<circle fill="#4077BC" cx="75.5" cy="75.5" r="75.5"/>
<polygon fill="#E8DE5D" stroke="#000000" stroke-miterlimit="10" points="32.582,67.985 58.121,36.474 70.532,36.48 69.779,47.229 
	52.944,68.711 "/>
<polygon fill="#E8DE5D" stroke="#000000" stroke-miterlimit="10" points="123.266,68.09 101.478,48.723 94.754,49.143 
	94.754,55.443 106.523,68.463 "/>
<path fill="#E8DE5D" stroke="#000000" stroke-miterlimit="10" d="M44.83,121.189c-0.445,1.32-1.878,2.027-3.197,1.583l0,0
	c-1.319-0.446-2.027-1.876-1.584-3.194l9.812-29.051c0.444-1.318,1.876-2.027,3.196-1.584l0,0c1.322,0.445,2.03,1.875,1.583,3.195
	L44.83,121.189z"/>
<path fill="#E8DE5D" stroke="#000000" stroke-miterlimit="10" d="M64.754,105.234c0.666,0.621,0.637,1.728-0.062,2.475l0,0
	c-0.698,0.749-1.803,0.854-2.468,0.234L47.593,94.301c-0.664-0.619-0.634-1.727,0.062-2.474l0,0
	c0.698-0.749,1.806-0.853,2.467-0.233L64.754,105.234z"/>
<path fill="#E87448" stroke="#000000" stroke-miterlimit="10" d="M130.457,80.352c0,8.289-7.309,15.011-16.33,15.011H40.794
	c-9.021,0-16.33-6.722-16.33-15.011l0,0c0-8.291,7.31-15.01,16.33-15.01h73.333C123.148,65.342,130.457,72.061,130.457,80.352
	L130.457,80.352z"/>
<path fill="#FFFFFF" stroke="#010101" stroke-width="0.5" stroke-miterlimit="10" d="M34.984,80.68c0,0.736-0.573,1.33-1.272,1.33
	c-0.708,0-1.279-0.594-1.279-1.33c0-0.732,0.571-1.33,1.279-1.33C34.411,79.35,34.984,79.947,34.984,80.68z"/>
<g>
	<path fill="#FFFFFF" stroke="#010101" stroke-width="0.5" stroke-miterlimit="10" d="M114.831,75.465
		c0-0.419,0.382-0.758,0.858-0.758l0,0c0.472,0,0.854,0.339,0.854,0.759l-0.004,9.227c-0.001,0.419-0.385,0.759-0.856,0.759l0,0
		c-0.475,0-0.857-0.34-0.855-0.759L114.831,75.465z"/>
	<path fill="#FFFFFF" stroke="#010101" stroke-width="0.5" stroke-miterlimit="10" d="M111.309,80.543
		c-0.418,0.002-0.755-0.382-0.758-0.854l0,0c0-0.472,0.34-0.854,0.76-0.854l9.237,0.006c0.419,0,0.758,0.383,0.758,0.854l0,0
		c0.001,0.472-0.34,0.854-0.76,0.854L111.309,80.543z"/>
</g>
</svg>
