<?xml version="1.0" encoding="utf-8"?>
<!-- Generator: Adobe Illustrator 16.0.0, SVG Export Plug-In . SVG Version: 6.00 Build 0)  -->
<!DOCTYPE svg PUBLIC "-//W3C//DTD SVG 1.1//EN" "http://www.w3.org/Graphics/SVG/1.1/DTD/svg11.dtd">
<svg version="1.1" id="Layer_1" xmlns="http://www.w3.org/2000/svg" xmlns:xlink="http://www.w3.org/1999/xlink" x="0px" y="0px"
	 width="612px" height="792px" viewBox="0 0 612 792" enable-background="new 0 0 612 792" xml:space="preserve">
<path fill="#E05D38" d="M339.145,396.855c0,17.95-14.551,32.5-32.5,32.5s-32.5-15.551-32.5-33.5c0-17.949,14.551-31.5,32.5-31.5
	S339.145,378.906,339.145,396.855z"/>
<g>
	<path fill="#FFFFFF" stroke="#FFFFFF" stroke-miterlimit="10" d="M323.308,381.196c1.583,0,2.983,0.728,3.933,1.849l0.607-0.607
		c-1.107-1.277-2.721-2.104-4.54-2.104H289.98c-1.6,0-3.047,0.637-4.128,1.656l0.607,0.608c0.925-0.863,2.157-1.402,3.521-1.402
		H323.308z"/>
	<path fill="#FFFFFF" stroke="#FFFFFF" stroke-miterlimit="10" d="M284.809,407.344v-20.976c0-0.863,0.23-1.664,0.604-2.379
		l-0.63-0.631c-0.517,0.89-0.836,1.91-0.836,3.01v20.976c0,1.023,0.28,1.975,0.733,2.82l0.631-0.631
		C284.996,408.867,284.809,408.129,284.809,407.344"/>
	<path fill="#FFFFFF" stroke="#FFFFFF" stroke-miterlimit="10" d="M328.479,386.368v20.976c0,0.709-0.143,1.387-0.404,2.002
		l0.633,0.633c0.393-0.799,0.635-1.686,0.635-2.635v-20.976c0-0.874-0.197-1.701-0.535-2.453l-0.664,0.667
		C328.349,385.139,328.479,385.736,328.479,386.368"/>
	<path fill="#FFFFFF" stroke="#FFFFFF" stroke-miterlimit="10" d="M323.308,412.514H289.98c-1.439,0-2.738-0.588-3.678-1.537
		l-0.605,0.607c1.095,1.105,2.609,1.791,4.283,1.791h33.327c1.745,0,3.308-0.756,4.412-1.945l-0.607-0.609
		C326.166,411.855,324.818,412.514,323.308,412.514"/>
	<path fill="#FFFFFF" stroke="#FFFFFF" stroke-miterlimit="10" d="M289.98,382.059h33.327c1.343,0,2.53,0.631,3.321,1.598
		l0.611-0.611c-0.949-1.122-2.35-1.849-3.933-1.849H289.98c-1.363,0-2.596,0.539-3.521,1.402l0.611,0.611
		C287.839,382.501,288.855,382.059,289.98,382.059"/>
	<path fill="#FFFFFF" stroke="#FFFFFF" stroke-miterlimit="10" d="M327.617,386.368v20.976c0,0.461-0.093,0.898-0.227,1.316
		l0.684,0.686c0.262-0.615,0.404-1.293,0.404-2.002v-20.976c0-0.631-0.13-1.229-0.336-1.787l-0.686,0.686
		C327.551,385.62,327.617,385.984,327.617,386.368"/>
	<path fill="#FFFFFF" stroke="#FFFFFF" stroke-miterlimit="10" d="M289.98,412.514h33.327c1.511,0,2.858-0.658,3.805-1.693
		l-0.612-0.609c-0.789,0.879-1.921,1.441-3.192,1.441H289.98c-1.199,0-2.283-0.492-3.064-1.285l-0.613,0.609
		C287.242,411.926,288.541,412.514,289.98,412.514"/>
	<path fill="#FFFFFF" stroke="#FFFFFF" stroke-miterlimit="10" d="M285.67,407.344v-20.976c0-0.622,0.139-1.211,0.377-1.746
		l-0.635-0.634c-0.373,0.716-0.604,1.517-0.604,2.379v20.976c0,0.785,0.188,1.523,0.502,2.189l0.654-0.652
		C285.781,408.4,285.67,407.885,285.67,407.344"/>
	<path fill="#FFFFFF" stroke="#FFFFFF" stroke-miterlimit="10" d="M315.727,396.997l-1.219,1.218l11.992,11.996
		c0.399-0.445,0.701-0.971,0.891-1.551L315.727,396.997z"/>
	<path fill="#FFFFFF" stroke="#FFFFFF" stroke-miterlimit="10" d="M298.135,396.71l-12.17,12.17
		c0.216,0.559,0.535,1.066,0.951,1.486l12.438-12.438L298.135,396.71z"/>
	<path fill="#FFFFFF" stroke="#FFFFFF" stroke-miterlimit="10" d="M286.303,410.977c-0.41-0.414-0.74-0.906-0.992-1.443
		l-0.631,0.631c0.277,0.521,0.607,1.008,1.018,1.42L286.303,410.977z"/>
	<path fill="#FFFFFF" stroke="#FFFFFF" stroke-miterlimit="10" d="M327.112,410.82l0.607,0.609c0.396-0.432,0.727-0.918,0.989-1.451
		l-0.635-0.633C327.844,409.896,327.508,410.387,327.112,410.82"/>
	<path fill="#FFFFFF" stroke="#FFFFFF" stroke-miterlimit="10" d="M285.965,408.881l-0.654,0.652
		c0.252,0.537,0.582,1.029,0.992,1.443l0.613-0.609C286.5,409.947,286.181,409.439,285.965,408.881"/>
	<path fill="#FFFFFF" stroke="#FFFFFF" stroke-miterlimit="10" d="M326.5,410.211l0.612,0.609c0.396-0.434,0.731-0.924,0.962-1.475
		l-0.684-0.686C327.201,409.24,326.899,409.766,326.5,410.211"/>
	<path fill="#FFFFFF" stroke="#FFFFFF" stroke-miterlimit="10" d="M315.727,396.997l11.73-11.73c-0.16-0.6-0.444-1.144-0.828-1.611
		l-12.121,12.122L315.727,396.997z"/>
	<path fill="#FFFFFF" stroke="#FFFFFF" stroke-miterlimit="10" d="M299.354,395.491l-12.282-12.282
		c-0.432,0.397-0.783,0.872-1.024,1.413l12.088,12.088L299.354,395.491z"/>
	<path fill="#FFFFFF" stroke="#FFFFFF" stroke-miterlimit="10" d="M307.684,402.602c-0.326,0.326-0.893,0.326-1.22,0l-5.892-5.891
		l-1.219,1.218l5.893,5.892c0.488,0.488,1.138,0.758,1.827,0.758c0.69,0,1.341-0.27,1.829-0.758l5.605-5.605l-1.219-1.218
		L307.684,402.602z"/>
	<path fill="#FFFFFF" stroke="#FFFFFF" stroke-miterlimit="10" d="M327.24,383.045c0.383,0.454,0.691,0.967,0.902,1.536l0.664-0.667
		c-0.242-0.542-0.576-1.032-0.959-1.477L327.24,383.045z"/>
	<path fill="#FFFFFF" stroke="#FFFFFF" stroke-miterlimit="10" d="M286.46,382.598l-0.607-0.608
		c-0.423,0.399-0.776,0.863-1.07,1.368l0.63,0.631C285.686,383.467,286.034,382.996,286.46,382.598"/>
	<path fill="#FFFFFF" stroke="#FFFFFF" stroke-miterlimit="10" d="M287.071,383.209l-0.611-0.61
		c-0.426,0.397-0.774,0.869-1.048,1.39l0.635,0.634C286.288,384.081,286.64,383.606,287.071,383.209"/>
	<path fill="#FFFFFF" stroke="#FFFFFF" stroke-miterlimit="10" d="M327.457,385.267l0.686-0.686
		c-0.211-0.568-0.52-1.082-0.902-1.536l-0.611,0.611C327.013,384.124,327.297,384.667,327.457,385.267"/>
	
		<rect x="313.646" y="396.136" transform="matrix(-0.7074 -0.7068 0.7068 -0.7074 256.3807 900.1304)" fill="#FFFFFF" stroke="#FFFFFF" stroke-miterlimit="10" width="1.723" height="1.723"/>
	
		<rect x="298.492" y="395.848" transform="matrix(0.707 -0.7072 0.7072 0.707 -192.8515 327.9671)" fill="#FFFFFF" stroke="#FFFFFF" stroke-miterlimit="10" width="1.724" height="1.723"/>
</g>
</svg>
