<?xml version="1.0" encoding="utf-8"?>
<!-- Generator: Adobe Illustrator 16.0.0, SVG Export Plug-In . SVG Version: 6.00 Build 0)  -->
<!DOCTYPE svg PUBLIC "-//W3C//DTD SVG 1.1//EN" "http://www.w3.org/Graphics/SVG/1.1/DTD/svg11.dtd">
<svg version="1.1" id="Layer_1" xmlns="http://www.w3.org/2000/svg" xmlns:xlink="http://www.w3.org/1999/xlink" x="0px" y="0px"
	 width="325.625px" height="325.625px" viewBox="0 0 325.625 325.625" enable-background="new 0 0 325.625 325.625"
	 xml:space="preserve">
<path fill="none" d="M58.229,162.886c0-29.651,12.285-56.43,32.035-75.537l0.043,0.031l4-3.5l-0.129-0.133
	c18.479-16.16,42.668-25.955,69.145-25.955c25.795,0,49.414,9.299,67.703,24.72l-0.396,0.519l5.428,4.35l0.152-0.199
	c19.854,19.118,32.207,45.968,32.207,75.705c0,28.583-11.416,54.496-29.93,73.441l-4.68,4.053l0.207,0.271
	c-18.666,16.979-43.469,27.328-70.691,27.328c-25.764,0-49.357-9.276-67.637-24.665l-3.879-3.685l-0.17,0.096
	C71.084,220.544,58.229,193.218,58.229,162.886z"/>
<path fill="#A558A2" d="M259.348,47.284l1.307,24.478l-22.389,1.294l-7.24,9.456c-18.289-15.421-41.908-24.72-67.703-24.72
	c-26.477,0-50.666,9.795-69.145,25.955l-7.021-7.206L86.832,50.39l-28.404,1.286l-7.896-6.763C79.742,17.085,119.283,0,162.812,0
	c40.379,0,77.318,14.706,105.771,39.045l-1.592-1.212L259.348,47.284z"/>
<path fill="#969796" d="M80.152,57.926l0.59,22.42l9.521,7.003c-19.75,19.107-32.035,45.886-32.035,75.537
	c0,30.332,12.855,57.658,33.408,76.84l-9.271,5.283l-29.671-7.754l-3.421,26.427l-9.414,5.854C15.031,240.958,0,203.641,0,162.812
	c0-44.052,17.504-84.011,45.926-113.321l9.719,8.973L80.152,57.926z"/>
<path fill="#E1D946" d="M242.172,267.711l4.58-21.952l-7.641-9.973l-0.625,0.541c18.514-18.945,29.93-44.858,29.93-73.441
	c0-29.737-12.354-56.587-32.207-75.705l6.061-7.833l26.127-1.146l-2.178-28.35l5.889-7.712
	c32.871,29.789,53.518,72.819,53.518,120.673c0,47.233-20.121,89.761-52.25,119.501l-7.229-9.489L242.172,267.711z"/>
<path fill="#3663AE" d="M58.48,245.333l25.305,6.997l13.021-7.95l-1.121-1.065c18.279,15.389,41.873,24.665,67.637,24.665
	c27.223,0,52.025-10.35,70.691-27.328l5.621,7.334l-5.695,25.524l27.939,5.28l6.076,8.322
	c-28.369,24.02-65.061,38.513-105.143,38.513c-46.586,0-88.598-19.57-118.275-50.934l10.189-6.104L58.48,245.333z"/>
<path fill="#FFFFFF" d="M90.307,87.38l-0.043-0.031c1.273-1.232,2.578-2.434,3.914-3.602l0.129,0.133L90.307,87.38z"/>
<path fill="#FFFFFF" d="M86.832,50.39l0.324,26.151l7.021,7.206c-1.336,1.168-2.641,2.369-3.914,3.602l-9.521-7.003l-0.59-22.42
	l-24.508,0.538l-9.719-8.973c1.508-1.555,3.037-3.085,4.605-4.578l7.896,6.763L86.832,50.39z"/>
<path fill="#FFFFFF" d="M230.629,83.03l0.396-0.519c1.779,1.5,3.51,3.057,5.184,4.669l-0.152,0.199L230.629,83.03z"/>
<path fill="#FFFFFF" d="M268.396,78.201l-26.127,1.146l-6.061,7.833c-1.674-1.612-3.404-3.169-5.184-4.669l7.24-9.456l22.389-1.294
	l-1.307-24.478l7.645-9.451l1.592,1.212c1.188,1.017,2.365,2.045,3.523,3.095l-5.889,7.712L268.396,78.201z"/>
<path fill="#FFFFFF" d="M273.807,282.88l-5.6,4.579l-0.252-0.347c1.842-1.561,3.648-3.159,5.42-4.799L273.807,282.88z"/>
<path fill="#FFFFFF" d="M238.486,236.327c-1.449,1.483-2.938,2.929-4.473,4.324l-0.207-0.271L238.486,236.327z"/>
<path fill="#FFFFFF" d="M233.939,273.51l5.695-25.524l-5.621-7.334c1.535-1.396,3.023-2.841,4.473-4.324l0.625-0.541l7.641,9.973
	l-4.58,21.952l23.975,5.113l7.229,9.489c-1.771,1.64-3.578,3.238-5.42,4.799l-6.076-8.322L233.939,273.51z"/>
<path fill="#FFFFFF" d="M95.686,243.314c-1.381-1.161-2.73-2.358-4.049-3.589l0.17-0.096L95.686,243.314z"/>
<path fill="#FFFFFF" d="M281.088,274.691l0.73,0.438l4.5-5.25l-0.553-0.344C284.244,271.289,282.682,273.006,281.088,274.691z"/>
<path fill="#FFFFFF" d="M49.273,263.682l3.361-27.176l29.73,8.503l9.271-5.283c1.318,1.23,2.668,2.428,4.049,3.589l1.121,1.065
	l-13.021,7.95l-26.305-6.997l-2.754,23.255l-10.189,6.104c-1.594-1.686-3.156-3.402-4.678-5.155L49.273,263.682z"/>
<g>
	<path fill="#070707" d="M295.587,124.519c0.248-0.756,0.241-1.564-0.02-2.425c-0.223-0.733-0.552-1.32-0.985-1.758
		c-0.436-0.439-0.937-0.758-1.505-0.955c-0.569-0.199-1.177-0.287-1.824-0.268c-0.646,0.019-1.293,0.126-1.938,0.319
		c-0.701,0.212-1.342,0.492-1.92,0.841c-0.579,0.35-1.05,0.764-1.413,1.242c-0.364,0.479-0.604,1.022-0.72,1.634
		c-0.116,0.61-0.062,1.282,0.16,2.017c0.163,0.538,0.396,0.99,0.703,1.355c0.305,0.364,0.661,0.651,1.07,0.86
		s0.857,0.332,1.348,0.373c0.488,0.04,0.992,0.002,1.509-0.117l0.495,1.635c-1.602,0.307-2.972,0.138-4.109-0.509
		c-1.139-0.646-1.945-1.755-2.422-3.326c-0.288-0.952-0.376-1.832-0.264-2.641c0.111-0.811,0.384-1.536,0.817-2.181
		c0.433-0.644,1.005-1.199,1.716-1.67c0.712-0.47,1.516-0.841,2.413-1.11c0.897-0.271,1.778-0.398,2.645-0.383
		c0.864,0.015,1.664,0.178,2.398,0.488c0.735,0.311,1.383,0.779,1.942,1.405c0.561,0.626,0.984,1.409,1.27,2.349
		c0.193,0.643,0.292,1.276,0.293,1.902c0.001,0.624-0.097,1.211-0.295,1.759c-0.198,0.547-0.502,1.045-0.912,1.494
		c-0.41,0.448-0.93,0.817-1.558,1.107l-0.496-1.634C294.806,125.878,295.339,125.275,295.587,124.519z"/>
	<path fill="#070707" d="M300.253,136.475c0.238,1.199,0.129,2.193-0.326,2.985c-0.456,0.791-1.197,1.289-2.224,1.49
		c-0.766,0.151-1.473,0.11-2.119-0.123c-0.646-0.232-1.151-0.71-1.516-1.432l-0.035,0.007c0.001,0.378-0.058,0.698-0.178,0.96
		c-0.119,0.262-0.28,0.481-0.483,0.663c-0.203,0.18-0.44,0.33-0.71,0.451c-0.271,0.119-0.555,0.228-0.855,0.323
		c-0.302,0.084-0.611,0.163-0.927,0.236c-0.316,0.075-0.623,0.166-0.92,0.273c-0.298,0.107-0.576,0.233-0.835,0.375
		c-0.26,0.144-0.479,0.324-0.655,0.542l-0.372-1.868c0.106-0.144,0.268-0.259,0.483-0.344c0.217-0.085,0.462-0.161,0.737-0.227
		c0.274-0.066,0.569-0.137,0.886-0.211s0.621-0.172,0.916-0.291c0.298-0.107,0.577-0.223,0.842-0.348
		c0.263-0.125,0.482-0.284,0.658-0.478s0.302-0.426,0.377-0.697c0.074-0.271,0.071-0.612-0.011-1.023l-0.812-4.09l-5.396,1.062
		l-0.332-1.675l12.631-2.486L300.253,136.475z M294.591,137.955c0.129,0.341,0.306,0.627,0.529,0.858
		c0.224,0.23,0.496,0.396,0.816,0.497c0.32,0.103,0.711,0.108,1.171,0.019c0.636-0.126,1.12-0.404,1.451-0.836
		c0.331-0.431,0.418-1.041,0.262-1.828l-0.825-4.16l-4.405,0.867l0.693,3.49C294.359,137.25,294.462,137.614,294.591,137.955z"/>
	<path fill="#070707" d="M302.465,152.957l-1.436,0.147l-0.743-7.112l-4.071,0.422l0.693,6.63l-1.436,0.148l-0.693-6.63l-4.43,0.459
		l0.749,7.166l-1.436,0.148l-0.926-8.862l12.807-1.328L302.465,152.957z"/>
	<path fill="#070707" d="M302.74,161.961l-12.805,5.189l-0.025-1.886l3.856-1.455l-0.076-5.426L289.793,157l-0.025-1.743
		l12.946,4.817L302.74,161.961z M295.201,163.25l5.975-2.22l-0.001-0.036l-6.034-2.092L295.201,163.25z"/>
	<path fill="#070707" d="M301.348,166.531l1.439,0.089l-0.634,10.24l-1.438-0.089l0.263-4.269l-11.411-0.704l0.106-1.703
		l11.41,0.704L301.348,166.531z"/>
	<path fill="#070707" d="M300.587,187.999l-1.427-0.207l1.03-7.075l-4.05-0.588l-0.962,6.597l-1.428-0.207l0.962-6.597l-4.408-0.639
		l-1.039,7.13l-1.428-0.206l1.285-8.82l12.741,1.847L300.587,187.999z"/>
</g>
<g>
	<path fill="#F7F6F6" d="M134.529,24.161l2.129,11.212l6.684-1.269l0.269,1.415l-8.364,1.588L132.85,24.48L134.529,24.161z"/>
	<path fill="#F7F6F6" d="M153.284,21.578l0.144,1.432l-7.128,0.714l0.406,4.065l6.646-0.666l0.144,1.435l-6.646,0.663l0.443,4.425
		l7.183-0.719l0.143,1.433l-8.884,0.89l-1.28-12.787L153.284,21.578z"/>
	<path fill="#F7F6F6" d="M162.616,21.355l5.091,12.825l-1.891,0.011l-1.425-3.862l-5.436,0.03l-1.418,3.877l-1.747,0.009
		l4.935-12.879L162.616,21.355z M163.845,28.892l-2.175-5.983l-0.036,0.002l-2.146,6.005L163.845,28.892z"/>
	<path fill="#F7F6F6" d="M176.802,22.098c1.219,0.114,2.143,0.504,2.773,1.165c0.631,0.663,0.897,1.513,0.8,2.553
		c-0.073,0.776-0.314,1.44-0.722,1.992c-0.407,0.554-1.01,0.899-1.807,1.042l-0.003,0.036c0.362,0.105,0.653,0.254,0.87,0.442
		c0.218,0.189,0.384,0.407,0.499,0.653c0.116,0.246,0.193,0.515,0.231,0.808c0.039,0.293,0.062,0.598,0.067,0.911
		c-0.005,0.313-0.017,0.631-0.035,0.955c-0.019,0.323-0.019,0.643,0,0.959c0.019,0.314,0.06,0.616,0.122,0.906
		c0.063,0.289,0.175,0.549,0.333,0.782l-1.899-0.18c-0.107-0.144-0.171-0.33-0.191-0.561c-0.02-0.23-0.023-0.487-0.008-0.77
		c0.014-0.282,0.03-0.585,0.049-0.909c0.019-0.323,0.013-0.643-0.019-0.959c-0.018-0.315-0.05-0.617-0.096-0.903
		c-0.045-0.288-0.136-0.543-0.271-0.768c-0.136-0.224-0.322-0.409-0.562-0.559c-0.239-0.149-0.567-0.244-0.985-0.284l-4.158-0.392
		l-0.515,5.466l-1.702-0.16l1.206-12.795L176.802,22.098z M176.612,27.938c0.365-0.026,0.688-0.113,0.975-0.262
		c0.284-0.146,0.521-0.358,0.711-0.637c0.188-0.277,0.305-0.648,0.35-1.115c0.06-0.646-0.07-1.188-0.39-1.628
		c-0.32-0.439-0.881-0.698-1.681-0.773l-4.229-0.399l-0.421,4.463l3.549,0.335C175.87,27.958,176.249,27.964,176.612,27.938z"/>
	<path fill="#F7F6F6" d="M186.717,23.451L191.303,35l0.035,0.007l2.05-10.219l1.588,0.319l-2.526,12.601l-1.836-0.368l-4.555-11.434
		l-0.035-0.007l-2.028,10.113l-1.588-0.318l2.527-12.602L186.717,23.451z"/>
</g>
<g>
	<path fill="#010101" d="M41.866,120.442l-11.95-4.354l0.588-1.625l11.95,4.355L41.866,120.442z"/>
	<path fill="#010101" d="M39.649,122.19l1.369,0.393l-2.869,9.98l-1.37-0.393l1.196-4.16l-10.855-3.113l0.478-1.66l10.855,3.113
		L39.649,122.19z"/>
	<path fill="#010101" d="M36.03,143.466l-1.401-0.26l1.349-7.109L32,135.36l-1.257,6.629l-1.4-0.26l1.256-6.627l-4.327-0.801
		l-1.358,7.164l-1.402-0.26l1.682-8.859l12.508,2.312L36.03,143.466z"/>
	<path fill="#010101" d="M35.112,152.327c-0.108,1.232-0.489,2.17-1.143,2.816c-0.654,0.646-1.495,0.93-2.526,0.848
		c-0.771-0.061-1.43-0.293-1.979-0.695c-0.549-0.4-0.896-1.002-1.04-1.803l-0.035-0.004c-0.104,0.369-0.249,0.664-0.437,0.885
		c-0.187,0.223-0.4,0.395-0.645,0.516c-0.243,0.119-0.51,0.203-0.8,0.246s-0.591,0.072-0.902,0.084
		c-0.311-0.002-0.626-0.008-0.946-0.021c-0.321-0.014-0.638-0.008-0.95,0.016c-0.313,0.023-0.612,0.07-0.898,0.139
		s-0.544,0.186-0.772,0.35l0.168-1.92c0.141-0.109,0.326-0.178,0.555-0.201s0.483-0.033,0.763-0.021
		c0.279,0.01,0.579,0.021,0.901,0.035c0.32,0.012,0.638,0.002,0.95-0.035c0.312-0.023,0.611-0.059,0.896-0.111
		c0.284-0.049,0.537-0.145,0.759-0.285c0.221-0.141,0.405-0.332,0.552-0.576s0.238-0.576,0.275-0.998l0.369-4.201l-5.421-0.428
		l0.151-1.721l12.69,1.008L35.112,152.327z M29.322,152.231c0.027,0.369,0.114,0.693,0.263,0.979s0.36,0.521,0.636,0.707
		c0.276,0.186,0.646,0.297,1.107,0.334c0.64,0.051,1.177-0.09,1.611-0.42c0.435-0.328,0.688-0.898,0.759-1.707l0.375-4.271
		l-4.424-0.352l-0.316,3.584C29.298,151.483,29.294,151.866,29.322,152.231z"/>
	<path fill="#010101" d="M34.767,164.751l-12.671,5.391l-0.026-1.906l3.817-1.514l-0.074-5.48l-3.855-1.354l-0.023-1.762
		l12.808,4.719L34.767,164.751z M27.307,166.142l5.912-2.312v-0.037l-5.971-2.043L27.307,166.142z"/>
	<path fill="#010101" d="M33.395,168.95l1.421-0.152l0.956,10.307l-1.421,0.154l-0.398-4.297l-11.263,1.213l-0.16-1.715
		l11.264-1.213L33.395,168.95z"/>
	<path fill="#010101" d="M37.707,190.017l-1.404,0.281l-1.286-7.092l-3.984,0.795l1.199,6.607l-1.403,0.281l-1.2-6.609l-4.334,0.863
		l1.297,7.143l-1.404,0.279l-1.604-8.836l12.529-2.494L37.707,190.017z"/>
</g>
<g>
	<path fill="#FFFFFF" d="M146.794,300.293c-0.984,0.679-2.279,0.896-3.887,0.651c-1.644-0.25-2.871-0.832-3.685-1.749
		c-0.813-0.916-1.1-2.22-0.86-3.913l1.146-8.098l1.697,0.258l-1.146,8.098c-0.161,1.137,0.021,2.045,0.545,2.723
		c0.524,0.679,1.357,1.104,2.501,1.278c1.083,0.165,1.949-0.003,2.598-0.502c0.648-0.5,1.054-1.318,1.214-2.455l1.146-8.097
		l1.697,0.258l-1.146,8.098C148.385,298.465,147.777,299.614,146.794,300.293z"/>
	<path fill="#FFFFFF" d="M159.516,291.131c-0.554-0.441-1.275-0.685-2.165-0.731c-0.36-0.019-0.716,0-1.067,0.054
		c-0.351,0.055-0.665,0.158-0.942,0.312c-0.276,0.152-0.502,0.366-0.675,0.638c-0.174,0.273-0.269,0.619-0.285,1.038
		c-0.016,0.395,0.089,0.72,0.313,0.978c0.225,0.257,0.529,0.475,0.913,0.649s0.821,0.325,1.31,0.454
		c0.488,0.126,0.985,0.263,1.491,0.408s1.002,0.312,1.489,0.499c0.485,0.187,0.918,0.428,1.298,0.723
		c0.379,0.295,0.679,0.658,0.896,1.09c0.218,0.429,0.314,0.962,0.289,1.597c-0.026,0.681-0.203,1.256-0.528,1.725
		c-0.326,0.469-0.735,0.844-1.228,1.124c-0.492,0.279-1.039,0.474-1.639,0.581c-0.601,0.106-1.195,0.145-1.784,0.114
		c-0.721-0.037-1.398-0.161-2.034-0.373s-1.189-0.514-1.661-0.903c-0.473-0.39-0.839-0.876-1.099-1.459
		c-0.26-0.582-0.374-1.263-0.344-2.04l1.622,0.083c-0.021,0.538,0.065,1.008,0.26,1.406c0.195,0.399,0.459,0.734,0.792,1.003
		c0.332,0.269,0.724,0.475,1.176,0.617c0.452,0.144,0.918,0.227,1.398,0.252c0.385,0.02,0.773,0.005,1.167-0.048
		c0.394-0.052,0.749-0.156,1.068-0.314c0.319-0.156,0.581-0.381,0.786-0.67c0.203-0.289,0.314-0.666,0.333-1.133
		c0.018-0.442-0.085-0.807-0.309-1.094s-0.527-0.527-0.91-0.722c-0.385-0.193-0.82-0.356-1.309-0.489s-0.985-0.27-1.491-0.409
		c-0.507-0.14-1.003-0.298-1.489-0.472c-0.487-0.175-0.921-0.395-1.301-0.66c-0.382-0.266-0.682-0.599-0.9-1
		c-0.219-0.399-0.316-0.894-0.293-1.479c0.025-0.646,0.18-1.197,0.463-1.657c0.282-0.459,0.649-0.83,1.101-1.112
		c0.45-0.281,0.958-0.482,1.522-0.604c0.564-0.12,1.142-0.166,1.729-0.136c0.661,0.034,1.271,0.144,1.829,0.327
		c0.559,0.186,1.045,0.455,1.458,0.812c0.413,0.358,0.732,0.796,0.959,1.317c0.226,0.521,0.337,1.135,0.334,1.841l-1.622-0.082
		C160.377,292.257,160.07,291.573,159.516,291.131z"/>
	<path fill="#FFFFFF" d="M174.353,289.148l0.075,1.436l-7.168,0.292l0.217,4.074l6.682-0.271l0.076,1.437l-6.682,0.271l0.235,4.434
		l7.222-0.294l0.076,1.438l-8.933,0.361l-0.681-12.816L174.353,289.148z"/>
</g>
</svg>
