<?xml version="1.0" encoding="utf-8"?>
<!-- Generator: Adobe Illustrator 16.0.0, SVG Export Plug-In . SVG Version: 6.00 Build 0)  -->
<!DOCTYPE svg PUBLIC "-//W3C//DTD SVG 1.1//EN" "http://www.w3.org/Graphics/SVG/1.1/DTD/svg11.dtd">
<svg version="1.1" id="Layer_1" xmlns="http://www.w3.org/2000/svg" xmlns:xlink="http://www.w3.org/1999/xlink" x="0px" y="0px"
	 width="327.848px" height="327.088px" viewBox="0 0 327.848 327.088" enable-background="new 0 0 327.848 327.088"
	 xml:space="preserve">
<path fill="#3663AE" d="M327.201,147.449c-3.353-37.885-19.582-72.068-44.281-98.15l-43.432,15.106l8.27,23.08
	c17.522,19.795,28.164,45.818,28.164,74.332c0,29.809-11.627,56.897-30.588,76.989l22.021-0.165l7.109,44.579
	c29.427-26.913,49.015-64.406,52.736-106.459l0.646-14.656L327.201,147.449z"/>
<path fill="#E1D946" d="M90.113,246.676c19.827,17.669,45.962,28.41,74.608,28.41c28.647,0,53.384-10.211,73.212-27.88l25.495-1.355
	l5.036,43.274c-29.33,27.432-60.383,37.963-103.709,37.963s-82.725-16.799-112.055-44.23l44.361-15.43L90.113,246.676z"/>
<path fill="#969796" d="M90.913,78.84c19.597-16.732,45.021-26.839,72.809-26.839c28.647,0,54.78,10.742,74.608,28.41l-6.881-20.752
	l44.361-15.43c-25.94-24.261-59.757-40.206-97.203-43.565L163.756,0l-14.603,0.641c-33.188,2.927-63.535,15.735-88.09,35.462
	l7.132,44.721L90.913,78.84z"/>
<path fill="#A558A2" d="M0.646,178.339c3.353,37.885,19.582,72.068,44.281,98.15l43.501-12.306l-8.34-26.142
	c-17.522-19.794-28.164-45.817-28.164-74.332c0-29.808,11.628-56.896,30.589-76.988l-22.021,0.425l-7.109-44.579
	C23.956,69.48,4.368,106.974,0.646,149.026L0,163.683L0.646,178.339z"/>
<g>
	<path fill="#FFFFFF" stroke="#FFFFFF" stroke-miterlimit="10" d="M305.094,181.062c0.148-0.151-0.004-0.468-0.455-0.951
		c-0.451-0.482-1.052-0.979-1.803-1.49c-0.75-0.51-1.565-0.968-2.443-1.375c-0.881-0.406-1.67-0.623-2.373-0.645
		c-0.141-0.025-0.219-0.102-0.233-0.23c-0.014-0.129-0.007-0.272,0.021-0.432c0.029-0.158,0.068-0.316,0.119-0.471
		c0.053-0.154,0.096-0.267,0.133-0.336c0.512,0.142,1.156,0.324,1.934,0.549c0.775,0.225,1.552,0.418,2.327,0.58
		s1.49,0.257,2.144,0.282c0.653,0.028,1.103-0.101,1.348-0.386c0.213-0.239,0.256-0.554,0.129-0.941s-0.303-0.771-0.528-1.152
		c-0.225-0.38-0.425-0.724-0.604-1.033c-0.177-0.308-0.224-0.492-0.14-0.553c0.385,0.168,0.738,0.445,1.061,0.828
		c0.322,0.385,0.577,0.802,0.766,1.251c0.189,0.45,0.297,0.91,0.324,1.381c0.027,0.472-0.064,0.878-0.27,1.22
		c-0.05,0.143-0.207,0.235-0.47,0.276c-0.263,0.042-0.565,0.063-0.907,0.067c-0.342,0.003-0.705-0.012-1.09-0.041
		s-0.734-0.047-1.051-0.053c0.345,0.263,0.73,0.559,1.16,0.885c0.43,0.328,0.836,0.652,1.219,0.971
		c0.382,0.32,0.707,0.617,0.976,0.891c0.27,0.275,0.413,0.488,0.435,0.645c0.104,0.522,0.078,0.908-0.075,1.158
		s-0.334,0.408-0.541,0.472c-0.097,0.135-0.356,0.197-0.781,0.185c-0.425-0.012-0.959-0.056-1.603-0.132
		c-0.646-0.075-1.369-0.185-2.174-0.325c-0.803-0.143-1.625-0.287-2.463-0.436c-0.84-0.146-1.67-0.28-2.488-0.399
		c-0.82-0.118-1.578-0.215-2.271-0.286c0.03-0.171,0.072-0.341,0.126-0.508c0.05-0.143,0.104-0.283,0.167-0.424
		c0.061-0.141,0.159-0.25,0.295-0.326c0.564-0.027,1.525,0.123,2.881,0.45c1.356,0.327,2.998,0.687,4.928,1.075
		c0.07,0.014,0.209,0.031,0.41,0.055c0.205,0.023,0.428,0.037,0.67,0.041c0.242,0.006,0.478-0.016,0.707-0.064
		C304.834,181.286,304.997,181.194,305.094,181.062z"/>
	<path fill="#FFFFFF" stroke="#FFFFFF" stroke-miterlimit="10" d="M297.389,165.313c0.139-0.611,0.306-1.116,0.5-1.514
		c0.196-0.398,0.404-0.707,0.623-0.929c0.22-0.222,0.441-0.392,0.666-0.515c0.226-0.121,0.438-0.238,0.637-0.349
		c0.096,0.031,0.074,0.148-0.059,0.351c-0.135,0.203-0.269,0.398-0.401,0.588c-0.372,0.522-0.62,1.166-0.745,1.929
		s-0.131,1.479-0.02,2.145c0.111,0.667,0.345,1.212,0.7,1.634c0.356,0.424,0.817,0.555,1.381,0.394s1.067-0.481,1.509-0.962
		c0.442-0.479,0.845-1.018,1.21-1.615c0.366-0.597,0.702-1.197,1.007-1.798c0.307-0.601,0.604-1.091,0.895-1.47
		c-0.229-0.514-0.422-0.949-0.578-1.309c-0.156-0.358-0.303-0.68-0.439-0.963s-0.262-0.571-0.375-0.865
		c-0.111-0.293-0.239-0.633-0.381-1.016c-0.021-0.051-0.03-0.096-0.027-0.133c0.002-0.037,0.032-0.035,0.09,0.006
		c0.058,0.042,0.146,0.148,0.267,0.318c0.121,0.17,0.289,0.436,0.505,0.799c0.107,0.182,0.289,0.518,0.545,1.008
		s0.531,1.02,0.83,1.587c0.283-0.28,0.575-0.495,0.875-0.649c0.273-0.131,0.562-0.217,0.865-0.259
		c0.303-0.042,0.604,0.036,0.903,0.229c0.733,0.549,1.294,1.146,1.683,1.795s0.649,1.238,0.781,1.77
		c0.096,0.355,0.082,0.74-0.043,1.154c-0.124,0.416-0.338,0.737-0.644,0.965c-0.401,0.246-0.795,0.287-1.181,0.125
		s-0.753-0.418-1.102-0.767c-0.35-0.347-0.678-0.741-0.984-1.187c-0.307-0.443-0.58-0.836-0.822-1.176
		c-0.254,0.207-0.576,0.621-0.969,1.24c-0.391,0.621-0.818,1.258-1.284,1.91c-0.465,0.652-0.956,1.234-1.472,1.747
		c-0.517,0.513-1.016,0.776-1.498,0.794c-0.533,0.062-1.037-0.04-1.512-0.309s-0.883-0.645-1.223-1.128
		c-0.341-0.483-0.579-1.034-0.718-1.655C297.246,166.617,297.248,165.976,297.389,165.313z M309.686,166.487
		c0.139-0.264,0.159-0.573,0.063-0.928c-0.097-0.355-0.247-0.695-0.454-1.021s-0.439-0.614-0.698-0.868s-0.494-0.426-0.704-0.516
		c-0.188-0.087-0.4-0.033-0.644,0.162c-0.241,0.195-0.442,0.398-0.601,0.611c0.173,0.286,0.397,0.613,0.673,0.979
		c0.276,0.368,0.561,0.692,0.854,0.973c0.293,0.281,0.579,0.494,0.857,0.638C309.312,166.662,309.529,166.651,309.686,166.487z"/>
	<path fill="#FFFFFF" stroke="#FFFFFF" stroke-miterlimit="10" d="M298.836,153.8c-0.025-0.074-0.101-0.283-0.221-0.627
		c-0.121-0.342-0.148-0.628-0.085-0.854c-0.05-0.719,0.11-1.277,0.479-1.676c0.37-0.398,1.113-0.456,2.229-0.174
		c1.239,0.428,2.281,1.018,3.125,1.77c0.844,0.751,1.656,1.648,2.439,2.688c0.614-0.27,0.947-0.655,1.002-1.154
		c0.055-0.498-0.042-1.017-0.29-1.555c-0.247-0.537-0.572-1.06-0.976-1.566c-0.402-0.508-0.753-0.917-1.053-1.229
		c-0.451-0.506-0.832-0.907-1.143-1.207c-0.311-0.299-0.689-0.614-1.133-0.946c-0.051-0.072-0.047-0.117,0.013-0.131
		c0.06-0.015,0.15-0.012,0.271,0.008c0.121,0.021,0.291,0.053,0.508,0.094c0.172,0.068,0.324,0.137,0.457,0.207
		c0.137,0.07,0.283,0.171,0.445,0.301c0.16,0.132,0.352,0.305,0.576,0.52c0.224,0.216,0.521,0.479,0.893,0.787
		c0.35,0.361,0.692,0.709,1.029,1.044c0.336,0.337,0.631,0.691,0.885,1.067c0.254,0.377,0.438,0.792,0.549,1.248
		c0.113,0.455,0.133,0.982,0.058,1.58c-0.149,0.504-0.314,0.906-0.496,1.211s-0.37,0.541-0.569,0.711
		c-0.197,0.169-0.38,0.293-0.544,0.373c-0.165,0.08-0.308,0.136-0.427,0.164c-0.475,0.143-1.121,0.215-1.938,0.22
		s-1.881-0.206-3.193-0.63c-0.682-0.298-1.266-0.625-1.746-0.98S299.117,154.286,298.836,153.8z M305.263,155.206
		c-0.179-0.316-0.427-0.687-0.743-1.109c-0.314-0.424-0.678-0.82-1.087-1.191c-0.409-0.369-0.858-0.688-1.35-0.957
		c-0.49-0.268-0.999-0.404-1.528-0.41c-0.361-0.061-0.613-0.039-0.754,0.064c-0.068,0.053-0.104,0.104-0.103,0.152
		c-0.176,0.43-0.101,0.85,0.226,1.26c0.328,0.41,0.785,0.779,1.373,1.105s1.241,0.596,1.957,0.805
		C303.97,155.136,304.64,155.229,305.263,155.206z"/>
</g>
<g>
	<path fill="#FDFEFF" stroke="#FFFFFF" stroke-miterlimit="10" d="M126.262,22.414c0.229-0.106,0.408-0.002,0.538,0.312
		s0.142,0.571,0.038,0.769c-0.213,0.276-0.336,0.499-0.371,0.668c-0.034,0.17-0.179,0.311-0.432,0.424
		c-0.15,0.013-0.278,0.037-0.385,0.076c-0.104,0.039-0.242-0.131-0.414-0.51c0.033-0.279,0.119-0.572,0.26-0.88
		C125.638,22.965,125.893,22.68,126.262,22.414z M127.501,26.928c0.399,1.089,0.788,2.296,1.171,3.623
		c0.381,1.328,0.814,2.709,1.302,4.146c0.28,0.721,0.522,1.279,0.724,1.675c0.2,0.396,0.371,0.772,0.513,1.134
		c-0.368,0.166-0.671,0.234-0.907,0.207c-0.238-0.027-0.467-0.075-0.689-0.144c-0.141-0.36-0.349-0.964-0.623-1.812
		c-0.275-0.846-0.568-1.769-0.881-2.768c-0.312-0.998-0.619-1.966-0.916-2.906c-0.299-0.939-0.541-1.683-0.729-2.23
		c0.085-0.07,0.146-0.159,0.183-0.268c0.036-0.107,0.083-0.206,0.138-0.294s0.137-0.17,0.246-0.247
		C127.14,26.969,127.297,26.93,127.501,26.928z"/>
	<path fill="#FDFEFF" stroke="#FFFFFF" stroke-miterlimit="10" d="M137.036,25.347c1.038-0.26,2.057-0.522,3.056-0.788
		s2.041-0.543,3.123-0.836c0.248-0.021,0.43,0.075,0.543,0.285c0.113,0.213,0.041,0.365-0.219,0.461
		c-0.889,0.258-1.903,0.574-3.047,0.951c-1.143,0.376-2.217,0.789-3.221,1.238c0.182,0.723,0.341,1.469,0.479,2.236
		c0.138,0.768,0.292,1.52,0.463,2.258c0.171,0.736,0.374,1.445,0.609,2.121c0.235,0.678,0.528,1.289,0.879,1.836
		c0.415,0.34,0.799,0.514,1.154,0.523c0.354,0.01,0.675-0.066,0.961-0.229c0.286-0.16,0.538-0.376,0.755-0.646
		c0.215-0.271,0.402-0.531,0.559-0.779c0.142-0.195,0.282-0.221,0.422-0.075c0.141,0.146,0.08,0.413-0.178,0.8
		c-0.117,0.192-0.268,0.402-0.454,0.631c-0.186,0.229-0.42,0.436-0.702,0.621c-0.281,0.184-0.609,0.328-0.98,0.432
		c-0.373,0.104-0.789,0.136-1.25,0.098c-0.588-0.041-1.082-0.403-1.482-1.088c-0.402-0.682-0.758-1.502-1.068-2.459
		c-0.311-0.955-0.586-1.961-0.826-3.016c-0.24-1.053-0.474-1.999-0.7-2.836c-1.058,0.288-1.831,0.512-2.319,0.674
		c-0.488,0.161-0.84,0.273-1.055,0.336c-0.216,0.063-0.365,0.078-0.447,0.043c-0.082-0.033-0.235-0.115-0.461-0.245
		c0.003-0.122-0.011-0.235-0.042-0.341c-0.032-0.104-0.048-0.192-0.048-0.266c0-0.072,0.035-0.152,0.109-0.238
		c0.072-0.087,0.227-0.175,0.462-0.266c0.351-0.161,0.872-0.311,1.565-0.447c0.695-0.137,1.363-0.312,2.006-0.525
		c-0.16-0.752-0.291-1.338-0.393-1.759c-0.101-0.421-0.192-0.788-0.273-1.103c-0.082-0.314-0.156-0.625-0.225-0.93
		c-0.067-0.305-0.146-0.705-0.234-1.201c-0.022-0.117,0.029-0.219,0.152-0.302c0.125-0.083,0.271-0.146,0.439-0.188
		c0.168-0.043,0.332-0.047,0.49-0.016c0.156,0.033,0.27,0.104,0.34,0.213c0.112,0.2,0.218,0.504,0.316,0.913
		c0.098,0.409,0.195,0.843,0.291,1.301c0.095,0.458,0.185,0.925,0.27,1.396C136.941,24.608,137.001,25.012,137.036,25.347z"/>
	<path fill="#FDFEFF" stroke="#FFFFFF" stroke-miterlimit="10" d="M147.105,24.515c0.072-0.03,0.276-0.114,0.613-0.253
		c0.337-0.138,0.62-0.182,0.848-0.129c0.717-0.088,1.281,0.043,1.699,0.392c0.417,0.349,0.514,1.087,0.289,2.216
		c-0.361,1.26-0.896,2.332-1.604,3.213c-0.707,0.882-1.56,1.74-2.558,2.576c0.303,0.6,0.704,0.913,1.206,0.941
		c0.5,0.027,1.013-0.096,1.537-0.371c0.523-0.275,1.029-0.627,1.514-1.057c0.486-0.428,0.877-0.799,1.173-1.115
		c0.481-0.477,0.862-0.877,1.146-1.203s0.578-0.721,0.887-1.181c0.07-0.054,0.113-0.052,0.131,0.006
		c0.018,0.06,0.02,0.149,0.006,0.271c-0.014,0.123-0.037,0.293-0.067,0.512c-0.06,0.175-0.12,0.331-0.183,0.469
		s-0.155,0.291-0.277,0.458c-0.121,0.168-0.285,0.368-0.488,0.604c-0.204,0.235-0.451,0.546-0.74,0.933
		c-0.342,0.367-0.672,0.729-0.988,1.082c-0.318,0.353-0.658,0.666-1.02,0.938c-0.363,0.274-0.769,0.478-1.217,0.614
		c-0.45,0.136-0.975,0.183-1.577,0.14c-0.51-0.124-0.921-0.269-1.235-0.433c-0.313-0.165-0.56-0.342-0.738-0.531
		c-0.179-0.188-0.312-0.363-0.401-0.525c-0.089-0.16-0.151-0.299-0.187-0.416c-0.166-0.467-0.272-1.109-0.319-1.924
		c-0.048-0.814,0.106-1.889,0.463-3.222c0.262-0.697,0.558-1.296,0.888-1.796C146.234,25.225,146.635,24.822,147.105,24.515z
		 M146.035,31.006c0.307-0.195,0.663-0.461,1.07-0.799c0.405-0.336,0.783-0.72,1.131-1.148c0.349-0.428,0.645-0.894,0.887-1.397
		c0.242-0.503,0.352-1.019,0.33-1.548c0.043-0.364,0.008-0.614-0.104-0.749c-0.057-0.067-0.109-0.099-0.158-0.095
		c-0.438-0.153-0.853-0.057-1.245,0.291c-0.394,0.349-0.737,0.824-1.032,1.429c-0.297,0.604-0.53,1.27-0.703,1.996
		C146.039,29.711,145.98,30.385,146.035,31.006z"/>
	<path fill="#FDFEFF" stroke="#FFFFFF" stroke-miterlimit="10" d="M155.288,22.748c-0.028-0.215,0.089-0.271,0.351-0.167
		c0.263,0.104,0.531,0.214,0.807,0.329c0.107,0.551,0.189,0.986,0.244,1.311c0.055,0.322,0.097,0.629,0.127,0.916
		c0.029,0.287,0.059,0.6,0.089,0.935c0.029,0.336,0.074,0.779,0.133,1.33c0.214-0.556,0.479-1.069,0.795-1.542
		c0.315-0.474,0.724-0.882,1.228-1.227c0.504-0.344,1.109-0.6,1.814-0.767c0.703-0.167,1.553-0.235,2.547-0.203
		c0.004,0.192-0.062,0.356-0.197,0.489c-0.134,0.135-0.449,0.242-0.943,0.321c-0.719,0.132-1.342,0.376-1.87,0.731
		c-0.528,0.357-0.981,0.766-1.358,1.229c-0.379,0.462-0.68,0.953-0.908,1.473c-0.228,0.52-0.412,0.996-0.555,1.431
		c-0.021,0.216-0.047,0.522-0.078,0.919s-0.049,0.817-0.055,1.262s-0.012,0.876-0.017,1.296c-0.006,0.421,0.019,0.751,0.071,0.989
		c0.027,0.119-0.027,0.211-0.162,0.272c-0.137,0.062-0.291,0.106-0.464,0.134c-0.174,0.025-0.335,0.018-0.485-0.028
		c-0.149-0.046-0.225-0.128-0.227-0.249c0.01-2.473-0.092-4.601-0.307-6.387C155.652,25.762,155.459,24.162,155.288,22.748z"/>
	<path fill="#FDFEFF" stroke="#FFFFFF" stroke-miterlimit="10" d="M172.258,23.969c-0.033,0.141-0.11,0.438-0.228,0.886
		c-0.118,0.45-0.247,0.976-0.388,1.579s-0.271,1.239-0.391,1.904c-0.121,0.665-0.207,1.297-0.261,1.895s-0.052,1.109,0.007,1.533
		c0.059,0.426,0.184,0.693,0.375,0.803c0.551,0.302,1.141,0.252,1.765-0.15c0.625-0.402,1.364-1.031,2.22-1.887
		c0.074,0.004,0.072,0.102-0.002,0.288c-0.074,0.188-0.188,0.39-0.34,0.608s-0.304,0.436-0.455,0.654
		c-0.152,0.219-0.268,0.36-0.346,0.427c-0.215,0.227-0.519,0.477-0.91,0.75c-0.393,0.274-0.805,0.487-1.238,0.638
		s-0.842,0.201-1.224,0.15c-0.383-0.049-0.684-0.287-0.903-0.711c-0.104-0.296-0.154-0.654-0.15-1.075s0.032-0.845,0.087-1.274
		c0.054-0.43,0.118-0.822,0.192-1.178s0.129-0.616,0.166-0.783c-0.584,0.898-1.24,1.744-1.966,2.537s-1.428,1.406-2.104,1.84
		c-0.676,0.436-1.289,0.652-1.836,0.65c-0.547,0-0.947-0.334-1.201-1.002c-0.13-0.634-0.082-1.334,0.145-2.102
		c0.227-0.766,0.533-1.447,0.924-2.047c0.578-0.826,1.178-1.58,1.797-2.259c0.618-0.68,1.266-1.249,1.945-1.708
		c0.678-0.459,1.378-0.777,2.1-0.957C170.758,23.799,171.498,23.797,172.258,23.969z M164.65,32.614
		c0.244,0.065,0.653-0.087,1.227-0.458c0.572-0.369,1.18-0.899,1.825-1.59c0.644-0.689,1.241-1.502,1.79-2.439
		c0.55-0.937,0.936-1.938,1.157-3.006c-0.099-0.007-0.241-0.016-0.427-0.029c-0.186-0.013-0.408,0.045-0.665,0.172
		c-0.983,0.533-1.835,1.18-2.559,1.936c-0.724,0.757-1.298,1.499-1.72,2.229c-0.424,0.729-0.693,1.391-0.808,1.983
		C164.356,32.005,164.416,32.406,164.65,32.614z"/>
	<path fill="#FDFEFF" stroke="#FFFFFF" stroke-miterlimit="10" d="M181.521,24.961c1.066,0.087,2.115,0.165,3.146,0.234
		s2.107,0.139,3.227,0.209c0.241,0.061,0.383,0.209,0.422,0.445c0.041,0.237-0.078,0.359-0.355,0.365
		c-0.923-0.04-1.986-0.065-3.189-0.076c-1.203-0.01-2.353,0.037-3.447,0.141c-0.061,0.742-0.149,1.5-0.265,2.271
		s-0.21,1.533-0.285,2.287c-0.075,0.752-0.109,1.488-0.104,2.204c0.006,0.718,0.087,1.391,0.244,2.021
		c0.282,0.455,0.591,0.744,0.925,0.866c0.332,0.123,0.66,0.153,0.984,0.093c0.322-0.061,0.629-0.185,0.921-0.372
		c0.292-0.187,0.552-0.372,0.78-0.557c0.195-0.14,0.338-0.118,0.424,0.063c0.085,0.184-0.057,0.416-0.426,0.701
		c-0.172,0.145-0.383,0.295-0.633,0.451c-0.248,0.156-0.536,0.277-0.863,0.361c-0.326,0.085-0.683,0.117-1.068,0.096
		s-0.791-0.125-1.215-0.309c-0.545-0.227-0.896-0.729-1.055-1.504c-0.162-0.776-0.235-1.668-0.223-2.673
		c0.012-1.005,0.074-2.046,0.184-3.122c0.111-1.074,0.193-2.046,0.248-2.91c-1.096-0.067-1.9-0.103-2.414-0.106
		s-0.883-0.011-1.107-0.021c-0.225-0.008-0.37-0.043-0.437-0.102c-0.067-0.058-0.186-0.186-0.357-0.381
		c0.042-0.115,0.065-0.227,0.069-0.335c0.004-0.109,0.017-0.198,0.039-0.268c0.023-0.069,0.083-0.133,0.18-0.191
		c0.097-0.058,0.271-0.093,0.523-0.104c0.383-0.04,0.925-0.013,1.627,0.079c0.701,0.093,1.391,0.142,2.068,0.146
		c0.088-0.763,0.152-1.36,0.192-1.792c0.038-0.431,0.069-0.808,0.094-1.132c0.023-0.325,0.052-0.642,0.086-0.952
		c0.033-0.31,0.088-0.715,0.163-1.213c0.018-0.118,0.098-0.197,0.242-0.236c0.144-0.039,0.303-0.053,0.477-0.039
		c0.174,0.015,0.329,0.062,0.468,0.143c0.138,0.082,0.223,0.186,0.255,0.312c0.041,0.225,0.043,0.546,0.006,0.965
		c-0.037,0.42-0.085,0.861-0.141,1.326c-0.059,0.464-0.121,0.934-0.192,1.408C181.668,24.231,181.596,24.633,181.521,24.961z"/>
	<path fill="#FDFEFF" stroke="#FFFFFF" stroke-miterlimit="10" d="M191.304,27.384c0.078-0.007,0.298-0.022,0.662-0.046
		c0.363-0.024,0.646,0.025,0.846,0.146c0.706,0.146,1.2,0.449,1.485,0.912s0.143,1.193-0.428,2.191
		c-0.744,1.081-1.592,1.928-2.543,2.538c-0.951,0.612-2.031,1.155-3.243,1.63c0.097,0.665,0.378,1.09,0.844,1.275
		s0.991,0.231,1.575,0.137s1.175-0.268,1.771-0.52s1.085-0.48,1.467-0.686c0.607-0.299,1.097-0.558,1.469-0.777
		c0.371-0.219,0.776-0.499,1.215-0.838c0.084-0.029,0.124-0.014,0.123,0.048c-0.002,0.062-0.029,0.147-0.081,0.259
		s-0.128,0.266-0.226,0.463c-0.112,0.146-0.219,0.275-0.322,0.387s-0.24,0.226-0.408,0.346c-0.17,0.121-0.388,0.26-0.656,0.417
		c-0.268,0.157-0.601,0.375-0.997,0.649c-0.44,0.24-0.868,0.478-1.281,0.712c-0.414,0.233-0.835,0.423-1.266,0.565
		c-0.431,0.145-0.88,0.21-1.349,0.195c-0.469-0.012-0.982-0.135-1.539-0.367c-0.444-0.279-0.788-0.547-1.033-0.803
		s-0.423-0.502-0.531-0.738c-0.11-0.236-0.182-0.444-0.215-0.625s-0.049-0.332-0.044-0.455c-0.01-0.496,0.093-1.138,0.308-1.926
		c0.213-0.787,0.701-1.756,1.462-2.907c0.47-0.577,0.941-1.052,1.412-1.42C190.252,27.779,190.759,27.525,191.304,27.384z
		 M188.227,33.198c0.354-0.087,0.775-0.228,1.268-0.418s0.972-0.433,1.438-0.729c0.467-0.295,0.895-0.643,1.284-1.043
		c0.389-0.4,0.657-0.854,0.805-1.362c0.156-0.333,0.203-0.581,0.141-0.743c-0.032-0.082-0.072-0.129-0.12-0.141
		c-0.366-0.285-0.79-0.324-1.272-0.119c-0.484,0.205-0.962,0.547-1.434,1.026c-0.473,0.479-0.906,1.036-1.3,1.669
		C188.641,31.971,188.371,32.592,188.227,33.198z"/>
</g>
<g>
	<path fill="#FFFFFF" stroke="#FFFFFF" stroke-miterlimit="10" d="M132.365,291.991c-0.018,0.145-0.17,0.25-0.462,0.313
		c-0.291,0.063-0.667,0.171-1.126,0.323c-0.459,0.15-0.98,0.378-1.562,0.681c-0.583,0.303-1.157,0.758-1.726,1.365
		c-0.615,0.669-1.09,1.267-1.428,1.792c-0.336,0.525-0.502,1.215-0.497,2.068c0.024,0.182,0.081,0.355,0.176,0.521
		c0.093,0.165,0.267,0.298,0.522,0.398c0.551,0.064,1.052,0.075,1.505,0.034c0.452-0.04,0.892-0.123,1.316-0.247
		s0.844-0.27,1.256-0.434c0.411-0.166,0.838-0.334,1.276-0.504c0.666-0.328,1.227-0.619,1.678-0.873
		c0.45-0.254,0.818-0.47,1.105-0.648c0.285-0.178,0.522-0.301,0.712-0.37c0.188-0.069,0.359-0.056,0.513,0.04
		c-0.156,0.178-0.555,0.536-1.193,1.072c-0.639,0.537-1.42,1.074-2.344,1.613s-1.947,0.999-3.07,1.379s-2.244,0.491-3.363,0.334
		c-0.422-0.149-0.76-0.301-1.012-0.45c-0.254-0.15-0.428-0.503-0.521-1.057c-0.115-0.66-0.016-1.388,0.299-2.184
		c0.314-0.795,0.732-1.553,1.258-2.273c0.525-0.72,1.104-1.362,1.738-1.926c0.633-0.562,1.199-0.944,1.699-1.146
		c0.688-0.221,1.289-0.306,1.805-0.253C131.434,291.614,131.916,291.758,132.365,291.991z"/>
	<path fill="#FFFFFF" stroke="#FFFFFF" stroke-miterlimit="10" d="M138.402,292.677c0.016-0.218,0.143-0.248,0.377-0.093
		c0.236,0.156,0.476,0.319,0.721,0.489c-0.008,0.561-0.018,1.004-0.031,1.332c-0.012,0.327-0.035,0.635-0.064,0.923
		c-0.031,0.287-0.066,0.599-0.105,0.933c-0.041,0.335-0.088,0.777-0.145,1.329c0.324-0.499,0.689-0.948,1.096-1.346
		c0.406-0.398,0.891-0.713,1.455-0.946c0.562-0.232,1.207-0.358,1.932-0.377c0.725-0.018,1.569,0.092,2.535,0.328
		c-0.036,0.188-0.135,0.335-0.293,0.438c-0.16,0.104-0.49,0.144-0.992,0.119c-0.729-0.019-1.389,0.092-1.979,0.331
		c-0.592,0.24-1.119,0.548-1.583,0.921c-0.466,0.375-0.862,0.793-1.192,1.254c-0.33,0.462-0.609,0.891-0.838,1.286
		c-0.064,0.207-0.154,0.502-0.266,0.883c-0.112,0.382-0.217,0.79-0.314,1.223c-0.096,0.435-0.19,0.856-0.283,1.266
		c-0.092,0.41-0.137,0.738-0.133,0.982c0,0.123-0.072,0.2-0.217,0.233c-0.146,0.032-0.307,0.044-0.48,0.035
		c-0.176-0.011-0.332-0.053-0.469-0.128c-0.137-0.076-0.194-0.172-0.172-0.29c0.521-2.417,0.859-4.521,1.018-6.312
		C138.137,295.699,138.277,294.095,138.402,292.677z"/>
	<path fill="#FFFFFF" stroke="#FFFFFF" stroke-miterlimit="10" d="M150.602,295.831c0.076-0.017,0.292-0.063,0.648-0.14
		c0.355-0.076,0.643-0.067,0.857,0.024c0.719,0.043,1.252,0.273,1.602,0.69c0.348,0.418,0.309,1.161-0.113,2.231
		c-0.582,1.176-1.3,2.134-2.153,2.874c-0.854,0.741-1.847,1.433-2.978,2.075c0.189,0.645,0.528,1.025,1.017,1.143
		c0.487,0.117,1.014,0.088,1.579-0.09c0.564-0.176,1.125-0.433,1.679-0.767s1.005-0.63,1.354-0.888
		c0.56-0.382,1.006-0.709,1.343-0.979c0.336-0.27,0.697-0.605,1.084-1.003c0.078-0.041,0.121-0.03,0.128,0.029
		c0.007,0.062-0.008,0.151-0.042,0.269c-0.037,0.117-0.09,0.28-0.158,0.491c-0.09,0.16-0.178,0.303-0.264,0.427
		c-0.087,0.125-0.205,0.259-0.355,0.401c-0.15,0.144-0.346,0.312-0.589,0.506c-0.243,0.195-0.542,0.456-0.896,0.786
		c-0.402,0.301-0.791,0.595-1.166,0.886c-0.377,0.291-0.767,0.538-1.172,0.741c-0.406,0.204-0.842,0.333-1.307,0.387
		c-0.467,0.053-0.992,0.005-1.576-0.146c-0.48-0.212-0.859-0.428-1.137-0.646c-0.279-0.219-0.49-0.437-0.633-0.655
		c-0.143-0.217-0.242-0.413-0.301-0.588c-0.059-0.174-0.096-0.321-0.109-0.444c-0.078-0.488-0.068-1.139,0.031-1.949
		c0.1-0.81,0.443-1.839,1.032-3.086c0.384-0.64,0.782-1.176,1.196-1.606C149.617,296.372,150.082,296.048,150.602,295.831z
		 M148.385,302.025c0.336-0.138,0.734-0.336,1.195-0.595c0.459-0.259,0.9-0.568,1.32-0.927c0.418-0.359,0.793-0.764,1.121-1.217
		c0.328-0.451,0.529-0.938,0.602-1.463c0.107-0.352,0.119-0.604,0.033-0.756c-0.043-0.076-0.09-0.117-0.139-0.121
		c-0.402-0.229-0.828-0.209-1.277,0.062c-0.449,0.272-0.873,0.679-1.271,1.221c-0.4,0.542-0.748,1.154-1.049,1.838
		S148.441,301.404,148.385,302.025z"/>
	<path fill="#FFFFFF" stroke="#FFFFFF" stroke-miterlimit="10" d="M166.576,295.949c-0.023,0.144-0.072,0.445-0.15,0.902
		c-0.078,0.458-0.162,0.994-0.249,1.607c-0.087,0.614-0.161,1.258-0.224,1.931c-0.061,0.674-0.093,1.311-0.093,1.91
		c-0.001,0.601,0.046,1.11,0.141,1.527c0.095,0.419,0.243,0.674,0.443,0.766c0.575,0.254,1.157,0.152,1.745-0.304
		c0.586-0.455,1.268-1.146,2.045-2.073c0.074-0.002,0.082,0.095,0.025,0.287c-0.059,0.193-0.154,0.405-0.287,0.636
		c-0.131,0.231-0.264,0.462-0.395,0.691c-0.134,0.231-0.236,0.383-0.309,0.456c-0.195,0.244-0.475,0.521-0.842,0.827
		c-0.365,0.307-0.759,0.555-1.177,0.742c-0.419,0.188-0.821,0.274-1.206,0.257c-0.385-0.016-0.706-0.226-0.961-0.629
		c-0.131-0.285-0.212-0.638-0.244-1.058c-0.033-0.419-0.041-0.846-0.025-1.277c0.017-0.433,0.046-0.829,0.089-1.19
		c0.042-0.36,0.075-0.625,0.097-0.794c-0.504,0.946-1.082,1.846-1.736,2.698s-1.299,1.525-1.935,2.018
		c-0.637,0.492-1.228,0.762-1.772,0.809c-0.546,0.047-0.974-0.252-1.284-0.894c-0.185-0.62-0.198-1.322-0.04-2.105
		s0.405-1.49,0.742-2.121c0.504-0.874,1.034-1.677,1.592-2.407c0.557-0.73,1.152-1.354,1.789-1.87
		c0.635-0.517,1.305-0.896,2.008-1.137C165.066,295.912,165.805,295.845,166.576,295.949z M159.752,305.226
		c0.248,0.044,0.643-0.144,1.182-0.562c0.537-0.418,1.098-0.999,1.679-1.743c0.582-0.743,1.105-1.605,1.571-2.586
		c0.465-0.981,0.762-2.013,0.89-3.096c-0.1,0.002-0.242,0.005-0.429,0.008c-0.186,0.004-0.401,0.08-0.646,0.229
		c-0.933,0.617-1.725,1.335-2.381,2.151c-0.654,0.817-1.16,1.607-1.518,2.37s-0.568,1.445-0.631,2.046
		C159.405,304.646,159.5,305.039,159.752,305.226z"/>
	<path fill="#FFFFFF" stroke="#FFFFFF" stroke-miterlimit="10" d="M175.996,294.97c1.051-0.201,2.082-0.406,3.096-0.615
		c1.012-0.209,2.066-0.429,3.164-0.66c0.249-0.007,0.425,0.099,0.527,0.315c0.102,0.218,0.02,0.366-0.246,0.447
		c-0.9,0.208-1.932,0.468-3.094,0.779s-2.258,0.664-3.284,1.056c0.14,0.732,0.257,1.486,0.353,2.261s0.207,1.534,0.336,2.28
		c0.129,0.745,0.293,1.463,0.489,2.151c0.197,0.689,0.456,1.316,0.774,1.882c0.396,0.363,0.77,0.559,1.123,0.588
		s0.678-0.029,0.973-0.174c0.295-0.146,0.559-0.347,0.789-0.605c0.231-0.258,0.432-0.506,0.604-0.744
		c0.151-0.188,0.293-0.205,0.425-0.053c0.132,0.153,0.057,0.416-0.222,0.789c-0.127,0.185-0.29,0.387-0.489,0.604
		c-0.198,0.219-0.444,0.411-0.735,0.58c-0.293,0.169-0.627,0.295-1.004,0.378c-0.378,0.082-0.795,0.092-1.254,0.026
		c-0.585-0.073-1.058-0.463-1.42-1.167c-0.361-0.705-0.67-1.544-0.928-2.516c-0.256-0.972-0.476-1.991-0.656-3.057
		c-0.182-1.066-0.361-2.023-0.541-2.872c-1.072,0.229-1.855,0.409-2.353,0.543c-0.497,0.133-0.854,0.226-1.073,0.277
		c-0.219,0.051-0.367,0.057-0.447,0.019c-0.08-0.039-0.229-0.13-0.446-0.272c0.009-0.121,0.001-0.235-0.023-0.341
		c-0.026-0.106-0.036-0.196-0.033-0.269s0.044-0.15,0.122-0.232c0.076-0.082,0.236-0.162,0.477-0.24
		c0.358-0.14,0.888-0.26,1.588-0.358c0.701-0.098,1.379-0.235,2.033-0.412c-0.119-0.76-0.217-1.352-0.295-1.777
		c-0.076-0.426-0.147-0.798-0.211-1.117c-0.064-0.318-0.121-0.632-0.172-0.939s-0.107-0.712-0.168-1.213
		c-0.014-0.119,0.042-0.217,0.17-0.293c0.128-0.075,0.278-0.131,0.449-0.164c0.17-0.032,0.334-0.028,0.489,0.013
		s0.265,0.119,0.329,0.231c0.1,0.205,0.188,0.516,0.264,0.929c0.076,0.414,0.148,0.852,0.218,1.315
		c0.069,0.463,0.134,0.933,0.192,1.409S175.98,294.634,175.996,294.97z"/>
	<path fill="#FFFFFF" stroke="#FFFFFF" stroke-miterlimit="10" d="M186.27,293.705c0.066-0.041,0.256-0.153,0.57-0.339
		c0.312-0.186,0.587-0.269,0.82-0.251c0.695-0.189,1.274-0.142,1.737,0.143c0.463,0.285,0.665,1.002,0.606,2.15
		c-0.176,1.3-0.55,2.437-1.123,3.412c-0.571,0.975-1.291,1.947-2.158,2.917c0.387,0.551,0.829,0.803,1.329,0.758
		c0.499-0.044,0.989-0.241,1.468-0.589c0.479-0.349,0.928-0.77,1.346-1.264c0.418-0.493,0.752-0.919,0.998-1.273
		c0.408-0.541,0.729-0.992,0.961-1.356c0.232-0.363,0.469-0.796,0.707-1.297c0.061-0.063,0.104-0.067,0.131-0.013
		c0.025,0.056,0.04,0.146,0.044,0.268c0.003,0.123,0.005,0.294,0.008,0.516c-0.034,0.182-0.071,0.345-0.113,0.49
		s-0.112,0.31-0.208,0.493c-0.098,0.184-0.229,0.405-0.396,0.668c-0.168,0.261-0.367,0.604-0.598,1.029
		c-0.285,0.413-0.559,0.817-0.822,1.213c-0.264,0.396-0.555,0.756-0.873,1.077c-0.319,0.323-0.691,0.584-1.115,0.783
		c-0.426,0.2-0.938,0.321-1.54,0.366c-0.522-0.049-0.95-0.132-1.284-0.25c-0.334-0.117-0.604-0.258-0.809-0.419
		c-0.204-0.16-0.361-0.315-0.473-0.462c-0.111-0.145-0.193-0.273-0.244-0.386c-0.232-0.438-0.43-1.057-0.595-1.856
		c-0.165-0.799-0.167-1.885-0.008-3.254c0.159-0.729,0.365-1.364,0.62-1.905C185.51,294.533,185.848,294.077,186.27,293.705z
		 M186.148,300.283c0.274-0.237,0.589-0.553,0.943-0.945c0.352-0.393,0.67-0.825,0.953-1.3s0.508-0.978,0.676-1.512
		c0.166-0.532,0.201-1.059,0.103-1.578c-0.011-0.367-0.081-0.609-0.212-0.727c-0.064-0.059-0.121-0.082-0.169-0.07
		c-0.455-0.09-0.853,0.066-1.19,0.468c-0.339,0.4-0.61,0.922-0.815,1.562c-0.206,0.641-0.341,1.333-0.405,2.076
		C185.965,299.001,186.004,299.677,186.148,300.283z"/>
</g>
<g>
	<path fill="#FFFFFF" stroke="#FFFFFF" stroke-miterlimit="10" d="M28.776,137.292c-0.071-0.018-0.407-0.059-1.007-0.123
		c-0.602-0.065-1.334-0.149-2.197-0.25c-0.864-0.103-1.797-0.201-2.797-0.297c-1.002-0.096-1.953-0.191-2.854-0.289
		c-0.902-0.098-1.697-0.178-2.386-0.238c-0.688-0.06-1.129-0.1-1.321-0.119c0.057-0.14,0.109-0.256,0.154-0.347
		c0.047-0.091,0.129-0.174,0.244-0.249c0.117-0.074,0.278-0.158,0.484-0.248c0.207-0.092,0.502-0.221,0.886-0.385
		c2.224,0.192,4.156,0.387,5.8,0.583c1.643,0.196,2.979,0.353,4.014,0.468c-0.458-0.567-0.759-0.97-0.9-1.207
		c-0.141-0.237-0.205-0.379-0.193-0.428c0.017-0.073,0.124-0.061,0.323,0.037c0.11,0.053,0.222,0.104,0.333,0.155
		s0.211,0.101,0.299,0.147c0.087,0.045,0.16,0.102,0.219,0.166c0.194,0.225,0.392,0.431,0.595,0.618
		c0.202,0.188,0.388,0.341,0.558,0.457c0.211,0.151,0.416,0.276,0.615,0.374c0.262,0.037,0.488,0.07,0.678,0.103
		s0.385,0.072,0.583,0.118c0.198,0.047,0.404,0.09,0.617,0.127c0.214,0.037,0.483,0.095,0.81,0.172
		c0.304,0.071,0.766,0.181,1.385,0.326c0.618,0.146,1.309,0.309,2.067,0.486c0.759,0.18,1.557,0.381,2.392,0.603
		c0.836,0.222,1.628,0.442,2.379,0.657c0.75,0.215,1.428,0.426,2.033,0.632s1.062,0.385,1.371,0.534
		c0.638,0.328,1.096,0.711,1.377,1.146c0.279,0.436,0.402,0.854,0.369,1.254s-0.215,0.759-0.549,1.076
		c-0.334,0.316-0.78,0.512-1.34,0.584c-0.564,0.096-1.258,0.048-2.074-0.145c-0.818-0.193-1.695-0.477-2.629-0.85
		c-0.936-0.373-1.899-0.811-2.891-1.313c-0.992-0.501-1.949-1.013-2.874-1.538c-0.925-0.523-1.784-1.033-2.581-1.527
		C29.973,138.071,29.309,137.646,28.776,137.292z M30.842,137.472c1.562,1.006,3.121,1.896,4.678,2.672
		c1.556,0.773,2.966,1.407,4.23,1.896c1.266,0.49,2.309,0.8,3.129,0.93c0.82,0.129,1.275,0.051,1.367-0.232
		c0.272-0.422,0.205-0.82-0.198-1.195c-0.405-0.376-1.009-0.742-1.813-1.098c-0.803-0.355-1.742-0.685-2.816-0.988
		c-1.076-0.305-2.152-0.578-3.229-0.819s-2.098-0.463-3.062-0.664C32.164,137.771,31.402,137.604,30.842,137.472z"/>
	<path fill="#FFFFFF" stroke="#FFFFFF" stroke-miterlimit="10" d="M29.856,145.863c0.013,0.077,0.048,0.296,0.104,0.655
		s0.033,0.645-0.07,0.855c-0.08,0.715-0.34,1.236-0.773,1.562c-0.438,0.325-1.178,0.249-2.223-0.23
		c-1.143-0.644-2.062-1.413-2.757-2.304c-0.694-0.893-1.333-1.92-1.913-3.084c-0.654,0.156-1.052,0.474-1.195,0.955
		c-0.143,0.48-0.142,1.008,0.006,1.582c0.146,0.572,0.371,1.145,0.677,1.717c0.304,0.571,0.575,1.037,0.813,1.398
		c0.354,0.578,0.654,1.043,0.906,1.393c0.252,0.351,0.567,0.729,0.944,1.137c0.037,0.08,0.024,0.121-0.036,0.126
		c-0.062,0.003-0.15-0.017-0.266-0.058c-0.115-0.042-0.275-0.104-0.482-0.183c-0.155-0.099-0.293-0.194-0.412-0.287
		c-0.12-0.093-0.248-0.219-0.383-0.376c-0.134-0.157-0.292-0.362-0.475-0.614c-0.18-0.253-0.426-0.563-0.735-0.937
		c-0.278-0.416-0.552-0.82-0.823-1.212c-0.271-0.391-0.496-0.794-0.679-1.208c-0.182-0.416-0.287-0.858-0.315-1.326
		c-0.029-0.469,0.047-0.99,0.229-1.566c0.237-0.468,0.474-0.834,0.707-1.102c0.232-0.268,0.462-0.466,0.688-0.596
		c0.225-0.13,0.426-0.219,0.604-0.27c0.176-0.05,0.326-0.078,0.449-0.084c0.492-0.055,1.141-0.01,1.945,0.133
		c0.803,0.143,1.812,0.541,3.025,1.195c0.619,0.416,1.133,0.843,1.543,1.279C29.367,144.851,29.666,145.333,29.856,145.863z
		 M23.788,143.32c0.119,0.343,0.296,0.752,0.53,1.226c0.234,0.473,0.52,0.93,0.855,1.367s0.721,0.833,1.155,1.186
		c0.434,0.351,0.909,0.578,1.429,0.679c0.346,0.126,0.597,0.149,0.752,0.072c0.08-0.039,0.123-0.083,0.13-0.132
		c0.251-0.391,0.251-0.816,0.005-1.279c-0.248-0.463-0.631-0.908-1.15-1.335c-0.521-0.427-1.114-0.81-1.78-1.144
		C25.047,143.623,24.406,143.411,23.788,143.32z"/>
	<path fill="#FFFFFF" stroke="#FFFFFF" stroke-miterlimit="10" d="M28.927,161.837c-0.144-0.029-0.44-0.094-0.896-0.194
		c-0.452-0.101-0.982-0.208-1.592-0.325s-1.248-0.223-1.917-0.316c-0.67-0.096-1.305-0.156-1.905-0.187
		c-0.598-0.03-1.109-0.009-1.531,0.067c-0.423,0.074-0.685,0.209-0.787,0.404c-0.279,0.563-0.207,1.149,0.219,1.758
		c0.428,0.609,1.084,1.323,1.973,2.145c-0.002,0.074-0.098,0.076-0.288,0.01c-0.19-0.068-0.397-0.174-0.621-0.316
		c-0.226-0.143-0.448-0.287-0.671-0.43c-0.225-0.143-0.371-0.252-0.441-0.328c-0.234-0.207-0.496-0.5-0.785-0.881
		s-0.516-0.785-0.684-1.212c-0.168-0.429-0.234-0.833-0.199-1.217c0.035-0.386,0.26-0.694,0.676-0.93
		c0.291-0.116,0.647-0.181,1.068-0.193c0.42-0.013,0.846-0.001,1.277,0.038c0.43,0.037,0.826,0.086,1.184,0.146
		c0.359,0.06,0.621,0.104,0.789,0.135c-0.921-0.549-1.791-1.17-2.611-1.865c-0.82-0.693-1.461-1.371-1.922-2.031
		s-0.701-1.262-0.721-1.809s0.299-0.961,0.955-1.238c0.628-0.156,1.33-0.136,2.104,0.061c0.775,0.197,1.469,0.479,2.084,0.844
		c0.848,0.547,1.623,1.115,2.326,1.707s1.297,1.217,1.781,1.877c0.485,0.66,0.831,1.348,1.039,2.062
		C29.037,160.331,29.07,161.071,28.927,161.837z M19.992,154.571c-0.057,0.246,0.111,0.648,0.504,1.207s0.945,1.146,1.66,1.762
		c0.713,0.617,1.549,1.184,2.507,1.695s1.975,0.857,3.049,1.039c0.003-0.1,0.007-0.242,0.013-0.429s-0.061-0.405-0.197-0.658
		c-0.572-0.96-1.25-1.788-2.033-2.481c-0.785-0.693-1.549-1.236-2.293-1.631c-0.746-0.395-1.418-0.637-2.014-0.73
		C20.59,154.254,20.191,154.328,19.992,154.571z"/>
	<path fill="#FFFFFF" stroke="#FFFFFF" stroke-miterlimit="10" d="M29.834,167.512c0.213-0.042,0.275,0.073,0.188,0.341
		s-0.181,0.543-0.279,0.824c-0.543,0.141-0.974,0.248-1.294,0.324c-0.318,0.072-0.621,0.133-0.905,0.182
		c-0.286,0.045-0.596,0.094-0.929,0.145s-0.773,0.121-1.319,0.213c0.566,0.182,1.097,0.414,1.589,0.701
		c0.491,0.285,0.923,0.67,1.297,1.151s0.665,1.069,0.876,1.763c0.209,0.693,0.328,1.537,0.357,2.531
		c-0.193,0.014-0.359-0.041-0.502-0.167c-0.142-0.126-0.268-0.435-0.377-0.923c-0.176-0.71-0.456-1.316-0.844-1.822
		c-0.389-0.506-0.824-0.933-1.309-1.281c-0.484-0.35-0.992-0.621-1.523-0.817c-0.533-0.196-1.021-0.352-1.463-0.467
		c-0.217-0.009-0.524-0.016-0.922-0.022c-0.398-0.008-0.818,0-1.263,0.021s-0.876,0.043-1.295,0.062
		c-0.421,0.02-0.748,0.062-0.983,0.131c-0.117,0.033-0.211-0.016-0.281-0.146c-0.069-0.131-0.124-0.283-0.161-0.454
		c-0.037-0.173-0.038-0.333-0.001-0.485s0.113-0.232,0.234-0.242c2.468-0.139,4.586-0.371,6.355-0.693
		C26.848,168.058,28.434,167.769,29.834,167.512z"/>
	<path fill="#FFFFFF" stroke="#FFFFFF" stroke-miterlimit="10" d="M30.791,180.041c-0.66,0.132-1.32,0.257-1.981,0.376
		c-0.662,0.119-1.3,0.233-1.914,0.344c-0.614,0.109-1.194,0.211-1.737,0.307c-0.545,0.096-1.03,0.174-1.459,0.234
		c0.095-0.02,0.334-0.01,0.721,0.027s0.835,0.105,1.346,0.207c0.509,0.102,1.051,0.214,1.627,0.34
		c0.576,0.125,1.097,0.281,1.562,0.468c0.465,0.186,0.843,0.396,1.134,0.628c0.292,0.232,0.413,0.48,0.368,0.743
		c-0.128,0.583-0.395,1.028-0.799,1.337c-0.403,0.309-0.883,0.568-1.44,0.78s-1.18,0.437-1.866,0.676
		c-0.688,0.237-1.385,0.604-2.094,1.101c-0.323,0.216-0.54,0.48-0.648,0.793c-0.109,0.312-0.174,0.604-0.193,0.875
		c-0.02,0.27-0.02,0.483,0,0.645c0.02,0.16-0.01,0.223-0.091,0.189c-0.568-0.521-0.825-1.013-0.772-1.479
		c0.055-0.466,0.293-0.899,0.713-1.3c0.424-0.4,0.95-0.766,1.583-1.094c0.632-0.328,1.243-0.634,1.836-0.916
		c0.593-0.283,1.093-0.528,1.505-0.736c0.412-0.209,0.603-0.386,0.572-0.533c-0.066-0.214-0.314-0.41-0.742-0.592
		c-0.428-0.181-0.949-0.349-1.568-0.504c-0.617-0.156-1.287-0.289-2.006-0.398c-0.719-0.11-1.395-0.209-2.023-0.299
		s-1.168-0.153-1.617-0.191c-0.447-0.037-0.721-0.059-0.819-0.064c-0.073-0.365-0.13-0.588-0.169-0.668
		c-0.041-0.081,0.049-0.244,0.269-0.49c2.095-0.291,4.063-0.639,5.903-1.043c1.842-0.404,3.436-0.779,4.787-1.124
		c0.212-0.042,0.329-0.009,0.351,0.101c0.022,0.109-0.001,0.24-0.069,0.394c-0.066,0.151-0.133,0.312-0.197,0.476
		C30.793,179.813,30.771,179.944,30.791,180.041z"/>
</g>
</svg>
