<?xml version="1.0" encoding="utf-8"?>
<!-- Generator: Adobe Illustrator 16.0.0, SVG Export Plug-In . SVG Version: 6.00 Build 0)  -->
<!DOCTYPE svg PUBLIC "-//W3C//DTD SVG 1.1//EN" "http://www.w3.org/Graphics/SVG/1.1/DTD/svg11.dtd">
<svg version="1.1" id="Layer_1" xmlns="http://www.w3.org/2000/svg" xmlns:xlink="http://www.w3.org/1999/xlink" x="0px" y="0px"
	 width="325.625px" height="325.625px" viewBox="0 0 325.625 325.625" enable-background="new 0 0 325.625 325.625"
	 xml:space="preserve">
<path fill="none" d="M58.229,162.886c0-29.651,12.285-56.43,32.035-75.537l0.043,0.031l4-3.5l-0.129-0.133
	c18.479-16.16,42.668-25.955,69.145-25.955c25.795,0,49.414,9.299,67.703,24.72l-0.396,0.519l5.428,4.35l0.152-0.199
	c19.854,19.118,32.207,45.968,32.207,75.705c0,28.583-11.416,54.496-29.93,73.441l-4.68,4.053l0.207,0.271
	c-18.666,16.979-43.469,27.328-70.691,27.328c-25.764,0-49.357-9.276-67.637-24.665l-3.879-3.685l-0.17,0.096
	C71.084,220.544,58.229,193.218,58.229,162.886z"/>
<path fill="#A558A2" d="M259.348,47.284l1.307,24.478l-22.389,1.294l-7.24,9.456c-18.289-15.421-41.908-24.72-67.703-24.72
	c-26.477,0-50.666,9.795-69.145,25.955l-7.021-7.206L86.832,50.39l-28.404,1.286l-7.896-6.763C79.742,17.085,119.283,0,162.812,0
	c40.379,0,77.318,14.706,105.771,39.045l-1.592-1.212L259.348,47.284z"/>
<path fill="#969796" d="M80.152,57.926l0.59,22.42l9.521,7.003c-19.75,19.107-32.035,45.886-32.035,75.537
	c0,30.332,12.855,57.658,33.408,76.84l-9.271,5.283l-29.671-7.754l-3.421,26.427l-9.414,5.854C15.031,240.958,0,203.641,0,162.812
	c0-44.052,17.504-84.011,45.926-113.321l9.719,8.973L80.152,57.926z"/>
<path fill="#E1D946" d="M242.172,267.711l4.58-21.952l-7.641-9.973l-0.625,0.541c18.514-18.945,29.93-44.858,29.93-73.441
	c0-29.737-12.354-56.587-32.207-75.705l6.061-7.833l26.127-1.146l-2.178-28.35l5.889-7.712
	c32.871,29.789,53.518,72.819,53.518,120.673c0,47.233-20.121,89.761-52.25,119.501l-7.229-9.489L242.172,267.711z"/>
<path fill="#3663AE" d="M58.48,245.333l25.305,6.997l13.021-7.95l-1.121-1.065c18.279,15.389,41.873,24.665,67.637,24.665
	c27.223,0,52.025-10.35,70.691-27.328l5.621,7.334l-5.695,25.524l27.939,5.28l6.076,8.322
	c-28.369,24.02-65.061,38.513-105.143,38.513c-46.586,0-88.598-19.57-118.275-50.934l10.189-6.104L58.48,245.333z"/>
<path fill="#FFFFFF" d="M90.307,87.38l-0.043-0.031c1.273-1.232,2.578-2.434,3.914-3.602l0.129,0.133L90.307,87.38z"/>
<path fill="#FFFFFF" d="M86.832,50.39l0.324,26.151l7.021,7.206c-1.336,1.168-2.641,2.369-3.914,3.602l-9.521-7.003l-0.59-22.42
	l-24.508,0.538l-9.719-8.973c1.508-1.555,3.037-3.085,4.605-4.578l7.896,6.763L86.832,50.39z"/>
<path fill="#FFFFFF" d="M230.629,83.03l0.396-0.519c1.779,1.5,3.51,3.057,5.184,4.669l-0.152,0.199L230.629,83.03z"/>
<path fill="#FFFFFF" d="M268.396,78.201l-26.127,1.146l-6.061,7.833c-1.674-1.612-3.404-3.169-5.184-4.669l7.24-9.456l22.389-1.294
	l-1.307-24.478l7.645-9.451l1.592,1.212c1.188,1.017,2.365,2.045,3.523,3.095l-5.889,7.712L268.396,78.201z"/>
<path fill="#FFFFFF" d="M273.807,282.88l-5.6,4.579l-0.252-0.347c1.842-1.561,3.648-3.159,5.42-4.799L273.807,282.88z"/>
<path fill="#FFFFFF" d="M238.486,236.327c-1.449,1.483-2.938,2.929-4.473,4.324l-0.207-0.271L238.486,236.327z"/>
<path fill="#FFFFFF" d="M233.939,273.51l5.695-25.524l-5.621-7.334c1.535-1.396,3.023-2.841,4.473-4.324l0.625-0.541l7.641,9.973
	l-4.58,21.952l23.975,5.113l7.229,9.489c-1.771,1.64-3.578,3.238-5.42,4.799l-6.076-8.322L233.939,273.51z"/>
<path fill="#FFFFFF" d="M95.686,243.314c-1.381-1.161-2.73-2.358-4.049-3.589l0.17-0.096L95.686,243.314z"/>
<path fill="#FFFFFF" d="M281.088,274.691l0.73,0.438l4.5-5.25l-0.553-0.344C284.244,271.289,282.682,273.006,281.088,274.691z"/>
<path fill="#FFFFFF" d="M49.273,263.682l3.361-27.176l29.73,8.503l9.271-5.283c1.318,1.23,2.668,2.428,4.049,3.589l1.121,1.065
	l-13.021,7.95l-26.305-6.997l-2.754,23.255l-10.189,6.104c-1.594-1.686-3.156-3.402-4.678-5.155L49.273,263.682z"/>
<g>
	<path fill="#070707" d="M298.846,142.304c0.343-0.718,0.442-1.52,0.296-2.406c-0.125-0.757-0.375-1.381-0.748-1.873
		c-0.374-0.491-0.829-0.871-1.367-1.142c-0.539-0.271-1.13-0.439-1.774-0.504c-0.644-0.064-1.298-0.043-1.962,0.065
		c-0.724,0.118-1.396,0.312-2.014,0.584c-0.619,0.27-1.141,0.619-1.562,1.047c-0.423,0.427-0.732,0.935-0.927,1.526
		c-0.194,0.589-0.229,1.263-0.104,2.02c0.093,0.557,0.266,1.033,0.521,1.437c0.255,0.4,0.571,0.731,0.949,0.992
		c0.378,0.26,0.808,0.442,1.287,0.546s0.983,0.13,1.512,0.08l0.278,1.685c-1.628,0.096-2.965-0.25-4.009-1.04
		c-1.044-0.788-1.699-1.992-1.968-3.611c-0.162-0.982-0.135-1.867,0.082-2.654c0.217-0.789,0.582-1.473,1.095-2.055
		s1.152-1.059,1.919-1.433s1.612-0.637,2.537-0.787s1.815-0.163,2.671-0.035s1.628,0.393,2.315,0.797
		c0.688,0.404,1.269,0.952,1.743,1.647c0.474,0.693,0.791,1.524,0.951,2.493c0.109,0.662,0.124,1.304,0.045,1.924
		c-0.081,0.62-0.255,1.188-0.522,1.705c-0.268,0.519-0.635,0.972-1.1,1.364c-0.465,0.391-1.027,0.688-1.688,0.894l-0.278-1.685
		C297.894,143.549,298.501,143.022,298.846,142.304z"/>
	<path fill="#070707" d="M301.914,154.766c0.08,1.22-0.157,2.191-0.712,2.917c-0.556,0.727-1.354,1.122-2.398,1.188
		c-0.78,0.05-1.475-0.083-2.086-0.397c-0.61-0.315-1.049-0.854-1.315-1.617l-0.036,0.002c-0.048,0.375-0.148,0.685-0.301,0.928
		c-0.152,0.245-0.342,0.441-0.566,0.595c-0.225,0.152-0.479,0.271-0.763,0.355c-0.283,0.083-0.58,0.153-0.89,0.209
		c-0.311,0.044-0.628,0.082-0.95,0.114c-0.323,0.033-0.64,0.083-0.948,0.151c-0.309,0.067-0.601,0.155-0.877,0.262
		c-0.275,0.109-0.516,0.259-0.721,0.452l-0.124-1.9c0.125-0.128,0.3-0.221,0.524-0.277s0.478-0.1,0.76-0.129
		c0.28-0.029,0.582-0.062,0.906-0.094c0.323-0.032,0.638-0.09,0.945-0.169c0.31-0.067,0.602-0.146,0.88-0.235
		c0.277-0.09,0.516-0.22,0.716-0.389c0.199-0.168,0.354-0.382,0.464-0.641c0.109-0.26,0.15-0.599,0.123-1.017l-0.272-4.161
		l-5.487,0.35l-0.111-1.702l12.847-0.819L301.914,154.766z M296.107,155.496c0.084,0.354,0.222,0.661,0.413,0.92
		c0.191,0.258,0.439,0.458,0.744,0.6c0.305,0.144,0.69,0.2,1.158,0.169c0.647-0.041,1.164-0.254,1.549-0.639
		c0.384-0.385,0.55-0.978,0.498-1.778l-0.277-4.231l-4.48,0.285l0.232,3.551C295.97,154.767,296.024,155.142,296.107,155.496z"/>
	<path fill="#070707" d="M301.961,171.396l-1.442-0.04l0.189-7.147l-4.092-0.112l-0.177,6.664l-1.441-0.04l0.176-6.664l-4.452-0.122
		l-0.19,7.202l-1.441-0.039l0.235-8.908l12.87,0.353L301.961,171.396z"/>
	<path fill="#070707" d="M301.063,180.333l-13.369,3.48l0.219-1.874l4.014-0.94l0.63-5.39l-3.684-1.879l0.201-1.731l12.209,6.46
		L301.063,180.333z M293.422,180.631l6.213-1.425l0.004-0.035l-5.712-2.858L293.422,180.631z"/>
	<path fill="#070707" d="M299.089,184.685l1.416,0.274l-1.96,10.07l-1.416-0.275l0.816-4.197l-11.223-2.183l0.326-1.675
		l11.223,2.183L299.089,184.685z"/>
	<path fill="#070707" d="M295.533,205.894l-1.389-0.391l1.945-6.881l-3.94-1.11l-1.812,6.416l-1.389-0.393l1.812-6.414l-4.287-1.208
		l-1.959,6.934l-1.389-0.391l2.423-8.576l12.394,3.49L295.533,205.894z"/>
</g>
<g>
	<path fill="#F7F6F6" d="M134.521,24.2l2.128,11.211l6.684-1.268l0.269,1.414l-8.364,1.588l-2.396-12.627L134.521,24.2z"/>
	<path fill="#F7F6F6" d="M153.274,21.615l0.144,1.434l-7.129,0.714l0.407,4.065l6.646-0.666l0.144,1.434l-6.646,0.664l0.442,4.424
		l7.183-0.718l0.144,1.432l-8.884,0.89l-1.28-12.787L153.274,21.615z"/>
	<path fill="#F7F6F6" d="M162.605,21.395l5.092,12.824l-1.891,0.011l-1.425-3.862l-5.435,0.029l-1.42,3.878l-1.746,0.01l4.936-12.88
		L162.605,21.395z M163.835,28.931l-2.175-5.983l-0.036,0.001l-2.145,6.006L163.835,28.931z"/>
	<path fill="#F7F6F6" d="M176.792,22.136c1.219,0.115,2.143,0.503,2.773,1.165c0.631,0.663,0.896,1.513,0.8,2.553
		c-0.073,0.777-0.314,1.441-0.723,1.993c-0.407,0.552-1.01,0.899-1.806,1.042l-0.003,0.035c0.362,0.105,0.653,0.255,0.87,0.443
		c0.218,0.189,0.384,0.406,0.499,0.652c0.115,0.247,0.193,0.516,0.231,0.809c0.039,0.293,0.062,0.597,0.067,0.91
		c-0.005,0.314-0.018,0.631-0.035,0.955c-0.02,0.323-0.019,0.643,0,0.959c0.018,0.314,0.059,0.617,0.122,0.906
		s0.175,0.549,0.333,0.781l-1.898-0.18c-0.108-0.142-0.172-0.33-0.191-0.561c-0.021-0.23-0.024-0.486-0.01-0.77
		c0.015-0.28,0.031-0.583,0.05-0.907c0.019-0.323,0.013-0.644-0.019-0.96c-0.018-0.315-0.05-0.616-0.096-0.903
		c-0.045-0.288-0.135-0.544-0.271-0.768c-0.136-0.223-0.323-0.409-0.562-0.56c-0.239-0.148-0.567-0.243-0.985-0.282l-4.158-0.392
		l-0.515,5.466l-1.702-0.161l1.206-12.795L176.792,22.136z M176.603,27.977c0.364-0.026,0.689-0.113,0.975-0.262
		c0.285-0.146,0.521-0.359,0.71-0.639c0.189-0.276,0.306-0.648,0.35-1.114c0.061-0.646-0.069-1.188-0.389-1.628
		c-0.32-0.439-0.881-0.697-1.681-0.772l-4.229-0.399l-0.421,4.463l3.548,0.333C175.86,27.996,176.238,28.002,176.603,27.977z"/>
	<path fill="#F7F6F6" d="M186.707,23.49l4.586,11.547l0.036,0.008l2.049-10.219l1.589,0.318l-2.527,12.602l-1.836-0.368
		l-4.555-11.433l-0.035-0.007l-2.027,10.112l-1.589-0.318l2.526-12.602L186.707,23.49z"/>
</g>
<g>
	<path fill="#010101" d="M41.864,120.442l-11.949-4.354l0.587-1.625l11.95,4.354L41.864,120.442z"/>
	<path fill="#010101" d="M39.647,122.19l1.37,0.393l-2.869,9.979l-1.37-0.393l1.196-4.159l-10.854-3.114l0.477-1.66l10.855,3.114
		L39.647,122.19z"/>
	<path fill="#010101" d="M36.029,143.465l-1.401-0.258l1.348-7.112l-3.977-0.735l-1.256,6.628l-1.402-0.26l1.258-6.627l-4.328-0.801
		l-1.357,7.165l-1.402-0.26l1.681-8.86l12.509,2.312L36.029,143.465z"/>
	<path fill="#010101" d="M35.112,152.328c-0.108,1.23-0.488,2.17-1.142,2.816c-0.654,0.646-1.496,0.93-2.527,0.848
		c-0.771-0.061-1.43-0.293-1.979-0.695c-0.549-0.4-0.895-1.004-1.04-1.805l-0.035-0.002c-0.104,0.369-0.249,0.664-0.436,0.885
		c-0.188,0.223-0.401,0.395-0.645,0.516c-0.244,0.119-0.51,0.201-0.8,0.246c-0.291,0.043-0.592,0.07-0.903,0.082
		c-0.311,0-0.626-0.006-0.946-0.02c-0.321-0.014-0.638-0.008-0.949,0.016c-0.313,0.025-0.612,0.07-0.898,0.139
		c-0.287,0.068-0.544,0.186-0.773,0.35l0.168-1.92c0.141-0.109,0.326-0.178,0.555-0.201c0.229-0.025,0.482-0.033,0.763-0.021
		c0.28,0.01,0.58,0.021,0.901,0.035c0.32,0.012,0.638,0.002,0.951-0.035c0.312-0.023,0.611-0.061,0.896-0.111
		c0.284-0.049,0.538-0.145,0.759-0.285s0.404-0.332,0.552-0.576c0.146-0.244,0.238-0.576,0.276-0.998l0.368-4.201l-5.421-0.43
		l0.152-1.719l12.688,1.006L35.112,152.328z M29.322,152.234c0.027,0.367,0.115,0.691,0.264,0.977
		c0.147,0.285,0.359,0.521,0.635,0.707c0.276,0.186,0.646,0.297,1.107,0.334c0.64,0.051,1.177-0.09,1.612-0.42
		c0.434-0.33,0.688-0.898,0.758-1.707l0.376-4.271l-4.425-0.352l-0.316,3.584C29.298,151.484,29.295,151.867,29.322,152.234z"/>
	<path fill="#010101" d="M34.767,164.75l-12.671,5.391l-0.026-1.906l3.817-1.514l-0.073-5.48l-3.855-1.354l-0.024-1.762
		l12.808,4.719L34.767,164.75z M27.308,166.141l5.912-2.314l-0.001-0.035l-5.971-2.043L27.308,166.141z"/>
	<path fill="#010101" d="M33.396,168.949l1.421-0.152l0.956,10.309l-1.422,0.152l-0.398-4.297l-11.263,1.213l-0.159-1.715
		l11.263-1.213L33.396,168.949z"/>
	<path fill="#010101" d="M37.707,190.016l-1.404,0.281l-1.286-7.09L31.032,184l1.199,6.609l-1.403,0.279l-1.199-6.609l-4.335,0.863
		l1.297,7.143l-1.404,0.281l-1.604-8.836l12.529-2.496L37.707,190.016z"/>
</g>
<g>
	<path fill="#FFFFFF" d="M146.873,300.295c-0.984,0.679-2.279,0.895-3.888,0.651c-1.644-0.251-2.87-0.833-3.685-1.75
		c-0.812-0.915-1.1-2.219-0.859-3.913l1.145-8.098l1.697,0.259l-1.146,8.097c-0.161,1.137,0.021,2.045,0.546,2.724
		c0.523,0.678,1.357,1.104,2.5,1.278c1.084,0.165,1.949-0.004,2.598-0.503c0.648-0.5,1.054-1.318,1.215-2.455l1.145-8.097
		l1.697,0.258l-1.145,8.098C148.463,298.466,147.855,299.616,146.873,300.295z"/>
	<path fill="#FFFFFF" d="M159.594,291.132c-0.553-0.441-1.275-0.685-2.164-0.731c-0.361-0.019-0.717,0.001-1.068,0.054
		c-0.351,0.055-0.664,0.158-0.941,0.312c-0.277,0.154-0.502,0.367-0.676,0.639c-0.174,0.273-0.269,0.618-0.285,1.038
		c-0.016,0.395,0.09,0.721,0.314,0.978s0.529,0.475,0.912,0.648c0.385,0.176,0.821,0.327,1.311,0.455
		c0.488,0.126,0.984,0.263,1.49,0.408s1.002,0.312,1.489,0.499c0.485,0.187,0.919,0.428,1.298,0.723s0.679,0.658,0.896,1.09
		c0.217,0.43,0.314,0.962,0.289,1.596c-0.027,0.682-0.203,1.257-0.529,1.726c-0.325,0.469-0.734,0.843-1.227,1.124
		c-0.493,0.28-1.039,0.474-1.64,0.581c-0.601,0.106-1.194,0.146-1.784,0.114c-0.721-0.037-1.398-0.161-2.034-0.373
		s-1.188-0.514-1.661-0.903s-0.838-0.876-1.098-1.459c-0.26-0.582-0.375-1.263-0.344-2.04l1.621,0.084
		c-0.021,0.537,0.066,1.007,0.261,1.405c0.194,0.4,0.458,0.734,0.791,1.003c0.332,0.27,0.725,0.475,1.177,0.617
		c0.451,0.145,0.918,0.227,1.398,0.252c0.384,0.02,0.773,0.005,1.166-0.048c0.395-0.052,0.75-0.155,1.068-0.314
		c0.32-0.156,0.582-0.38,0.786-0.669c0.204-0.29,0.315-0.667,0.333-1.134c0.018-0.442-0.085-0.808-0.309-1.094
		c-0.223-0.287-0.527-0.527-0.91-0.722c-0.385-0.193-0.82-0.356-1.309-0.489s-0.984-0.269-1.491-0.409
		c-0.507-0.14-1.003-0.298-1.489-0.471c-0.486-0.176-0.92-0.396-1.301-0.661s-0.682-0.598-0.898-0.999
		c-0.221-0.4-0.318-0.895-0.295-1.48c0.025-0.646,0.18-1.197,0.463-1.657c0.283-0.458,0.65-0.829,1.102-1.112
		c0.449-0.281,0.957-0.483,1.521-0.604s1.142-0.166,1.73-0.136c0.66,0.033,1.27,0.144,1.828,0.327
		c0.559,0.186,1.045,0.455,1.459,0.812c0.412,0.358,0.732,0.796,0.959,1.317c0.226,0.521,0.336,1.135,0.333,1.841l-1.622-0.082
		C160.456,292.258,160.148,291.575,159.594,291.132z"/>
	<path fill="#FFFFFF" d="M174.432,289.149l0.076,1.436l-7.17,0.292l0.217,4.074l6.682-0.271l0.076,1.436l-6.682,0.271l0.236,4.434
		l7.221-0.294l0.076,1.437l-8.933,0.362l-0.68-12.816L174.432,289.149z"/>
</g>
</svg>
