<?xml version="1.0" encoding="utf-8"?>
<!-- Generator: Adobe Illustrator 16.0.0, SVG Export Plug-In . SVG Version: 6.00 Build 0)  -->
<!DOCTYPE svg PUBLIC "-//W3C//DTD SVG 1.1//EN" "http://www.w3.org/Graphics/SVG/1.1/DTD/svg11.dtd">
<svg version="1.1" id="Layer_1" xmlns="http://www.w3.org/2000/svg" xmlns:xlink="http://www.w3.org/1999/xlink" x="0px" y="0px"
	 width="325.625px" height="326.125px" viewBox="0 0 325.625 326.125" enable-background="new 0 0 325.625 326.125"
	 xml:space="preserve">
<g>
	<path fill="#FFFFFF" stroke="#FFFFFF" stroke-miterlimit="10" d="M147.919,280.597c-0.018,0.145-0.172,0.25-0.462,0.313
		c-0.291,0.063-0.667,0.172-1.126,0.322c-0.459,0.152-0.98,0.379-1.562,0.682c-0.582,0.304-1.156,0.759-1.725,1.365
		c-0.615,0.669-1.09,1.267-1.427,1.792c-0.338,0.526-0.503,1.215-0.497,2.067c0.022,0.184,0.08,0.357,0.174,0.522
		s0.268,0.299,0.523,0.399c0.551,0.063,1.053,0.074,1.506,0.033c0.451-0.04,0.891-0.123,1.314-0.247
		c0.427-0.123,0.845-0.269,1.256-0.435c0.412-0.165,0.838-0.333,1.277-0.503c0.666-0.328,1.226-0.618,1.678-0.873
		c0.449-0.254,0.818-0.47,1.104-0.647c0.286-0.179,0.522-0.302,0.712-0.371c0.189-0.068,0.359-0.056,0.514,0.039
		c-0.157,0.18-0.555,0.537-1.193,1.073c-0.639,0.537-1.42,1.074-2.344,1.613s-1.947,0.999-3.07,1.379s-2.244,0.492-3.363,0.335
		c-0.422-0.15-0.759-0.301-1.012-0.452c-0.254-0.149-0.428-0.502-0.521-1.056c-0.115-0.659-0.016-1.388,0.299-2.184
		c0.313-0.795,0.732-1.553,1.258-2.273c0.524-0.721,1.104-1.362,1.737-1.925c0.634-0.563,1.2-0.945,1.7-1.147
		c0.688-0.221,1.289-0.306,1.805-0.253C146.988,280.221,147.47,280.363,147.919,280.597z"/>
	<path fill="#FFFFFF" stroke="#FFFFFF" stroke-miterlimit="10" d="M153.955,281.281c0.017-0.217,0.143-0.247,0.378-0.091
		c0.235,0.155,0.475,0.318,0.721,0.488c-0.008,0.561-0.018,1.005-0.031,1.332c-0.013,0.327-0.035,0.636-0.064,0.923
		c-0.031,0.287-0.066,0.599-0.105,0.933c-0.041,0.335-0.089,0.778-0.145,1.329c0.324-0.499,0.689-0.948,1.096-1.346
		s0.891-0.713,1.455-0.946c0.562-0.232,1.207-0.357,1.932-0.377c0.725-0.017,1.568,0.092,2.535,0.328
		c-0.037,0.188-0.135,0.335-0.293,0.438c-0.16,0.104-0.49,0.144-0.991,0.12c-0.729-0.02-1.39,0.091-1.979,0.33
		c-0.592,0.24-1.119,0.548-1.583,0.921c-0.466,0.375-0.862,0.792-1.192,1.254s-0.609,0.891-0.837,1.286
		c-0.066,0.207-0.155,0.502-0.267,0.884c-0.113,0.382-0.217,0.789-0.313,1.222c-0.097,0.435-0.192,0.856-0.284,1.266
		c-0.092,0.41-0.137,0.737-0.134,0.982c0.001,0.123-0.071,0.2-0.216,0.233c-0.146,0.032-0.307,0.044-0.48,0.035
		c-0.176-0.011-0.332-0.053-0.469-0.128c-0.137-0.076-0.195-0.172-0.172-0.29c0.52-2.417,0.859-4.521,1.018-6.312
		S153.831,282.7,153.955,281.281z"/>
	<path fill="#FFFFFF" stroke="#FFFFFF" stroke-miterlimit="10" d="M166.154,284.436c0.077-0.016,0.292-0.062,0.649-0.139
		c0.355-0.075,0.642-0.066,0.857,0.025c0.719,0.042,1.252,0.272,1.601,0.689c0.348,0.418,0.31,1.162-0.112,2.231
		c-0.582,1.176-1.301,2.134-2.154,2.874c-0.854,0.741-1.846,1.433-2.977,2.075c0.188,0.645,0.527,1.025,1.016,1.143
		s1.014,0.088,1.579-0.089c0.565-0.178,1.124-0.433,1.679-0.768c0.555-0.334,1.006-0.631,1.354-0.888
		c0.559-0.382,1.006-0.708,1.344-0.979c0.336-0.271,0.697-0.604,1.084-1.003c0.078-0.04,0.121-0.03,0.127,0.03
		c0.008,0.061-0.008,0.149-0.043,0.267c-0.036,0.118-0.088,0.281-0.157,0.492c-0.09,0.16-0.178,0.303-0.265,0.427
		c-0.086,0.125-0.204,0.259-0.354,0.401c-0.149,0.144-0.347,0.312-0.589,0.506c-0.242,0.195-0.541,0.457-0.895,0.785
		c-0.402,0.301-0.791,0.596-1.167,0.887s-0.767,0.539-1.171,0.741c-0.406,0.205-0.842,0.333-1.308,0.386
		c-0.466,0.055-0.991,0.006-1.577-0.145c-0.479-0.213-0.857-0.428-1.137-0.647c-0.278-0.218-0.49-0.437-0.631-0.655
		c-0.143-0.217-0.242-0.414-0.301-0.588s-0.096-0.321-0.109-0.444c-0.08-0.488-0.069-1.138,0.031-1.948
		c0.098-0.811,0.443-1.84,1.031-3.087c0.383-0.639,0.783-1.176,1.195-1.607C165.169,284.978,165.636,284.653,166.154,284.436z
		 M163.938,290.631c0.336-0.138,0.734-0.336,1.194-0.595s0.899-0.568,1.319-0.927c0.42-0.359,0.795-0.764,1.123-1.216
		s0.529-0.939,0.602-1.464c0.107-0.351,0.117-0.604,0.033-0.756c-0.044-0.076-0.09-0.116-0.139-0.121
		c-0.403-0.229-0.83-0.209-1.277,0.062c-0.449,0.272-0.873,0.68-1.272,1.221s-0.749,1.154-1.048,1.838
		C164.173,289.357,163.995,290.01,163.938,290.631z"/>
	<path fill="#FFFFFF" stroke="#FFFFFF" stroke-miterlimit="10" d="M182.13,284.555c-0.021,0.145-0.072,0.446-0.15,0.903
		c-0.078,0.458-0.16,0.993-0.248,1.606c-0.088,0.614-0.162,1.258-0.223,1.932c-0.062,0.673-0.094,1.311-0.094,1.91
		c-0.002,0.6,0.045,1.109,0.141,1.527s0.242,0.674,0.443,0.766c0.576,0.253,1.158,0.151,1.744-0.304
		c0.588-0.455,1.27-1.146,2.047-2.074c0.074-0.001,0.082,0.095,0.024,0.288c-0.06,0.193-0.155,0.405-0.286,0.635
		c-0.133,0.231-0.265,0.462-0.396,0.692c-0.133,0.23-0.234,0.382-0.308,0.456c-0.194,0.244-0.474,0.52-0.841,0.826
		c-0.367,0.308-0.76,0.555-1.178,0.743c-0.42,0.188-0.82,0.273-1.205,0.257c-0.387-0.016-0.707-0.226-0.963-0.629
		c-0.13-0.286-0.211-0.639-0.244-1.058c-0.033-0.42-0.041-0.846-0.023-1.278c0.016-0.432,0.045-0.829,0.088-1.189
		c0.043-0.361,0.074-0.626,0.097-0.795c-0.503,0.946-1.082,1.846-1.735,2.699c-0.654,0.853-1.301,1.525-1.936,2.018
		c-0.637,0.492-1.228,0.762-1.773,0.808c-0.545,0.047-0.973-0.251-1.283-0.894c-0.186-0.62-0.199-1.322-0.041-2.105
		c0.16-0.783,0.407-1.489,0.742-2.12c0.504-0.874,1.035-1.677,1.592-2.407c0.559-0.731,1.154-1.354,1.79-1.871
		s1.306-0.896,2.008-1.137C180.622,284.519,181.358,284.449,182.13,284.555z M175.306,293.832c0.25,0.043,0.643-0.145,1.182-0.562
		c0.538-0.419,1.098-0.999,1.68-1.743c0.582-0.743,1.105-1.605,1.57-2.587c0.465-0.98,0.762-2.013,0.891-3.096
		c-0.1,0.002-0.242,0.005-0.428,0.009c-0.188,0.003-0.402,0.079-0.648,0.229c-0.932,0.618-1.725,1.335-2.379,2.152
		s-1.161,1.606-1.52,2.369c-0.357,0.763-0.567,1.446-0.631,2.047C174.96,293.251,175.054,293.645,175.306,293.832z"/>
	<path fill="#FFFFFF" stroke="#FFFFFF" stroke-miterlimit="10" d="M191.552,283.576c1.051-0.201,2.082-0.406,3.095-0.616
		c1.013-0.208,2.067-0.429,3.164-0.66c0.249-0.006,0.425,0.099,0.526,0.316s0.02,0.366-0.244,0.447
		c-0.9,0.208-1.932,0.468-3.094,0.778c-1.163,0.312-2.258,0.664-3.285,1.057c0.139,0.732,0.257,1.486,0.352,2.26
		c0.096,0.774,0.208,1.533,0.337,2.279s0.292,1.465,0.489,2.152c0.197,0.69,0.455,1.317,0.775,1.883
		c0.395,0.362,0.768,0.559,1.123,0.587c0.354,0.029,0.678-0.029,0.973-0.174s0.559-0.347,0.789-0.604s0.432-0.506,0.603-0.745
		c0.151-0.188,0.294-0.205,0.425-0.053c0.131,0.154,0.057,0.417-0.222,0.79c-0.128,0.185-0.29,0.387-0.489,0.604
		c-0.198,0.218-0.443,0.411-0.735,0.58s-0.627,0.295-1.004,0.377c-0.378,0.083-0.796,0.092-1.254,0.027
		c-0.585-0.073-1.058-0.463-1.419-1.168c-0.362-0.705-0.672-1.544-0.928-2.516c-0.258-0.972-0.477-1.991-0.658-3.057
		c-0.18-1.066-0.36-2.023-0.539-2.871c-1.072,0.228-1.857,0.409-2.354,0.543c-0.497,0.133-0.854,0.226-1.072,0.276
		c-0.219,0.051-0.369,0.058-0.449,0.019c-0.079-0.038-0.229-0.129-0.445-0.271c0.01-0.123,0.002-0.236-0.023-0.342
		s-0.037-0.195-0.033-0.268c0.004-0.073,0.045-0.15,0.122-0.233c0.077-0.082,0.235-0.161,0.477-0.239
		c0.358-0.141,0.888-0.261,1.589-0.358c0.701-0.099,1.378-0.235,2.031-0.413c-0.118-0.759-0.217-1.352-0.293-1.777
		c-0.078-0.426-0.148-0.798-0.213-1.117c-0.064-0.317-0.121-0.631-0.172-0.939c-0.049-0.308-0.105-0.712-0.168-1.213
		c-0.014-0.119,0.043-0.216,0.172-0.292c0.127-0.076,0.277-0.131,0.448-0.165c0.171-0.033,0.335-0.028,0.489,0.013
		c0.155,0.042,0.266,0.119,0.329,0.232c0.101,0.205,0.188,0.515,0.265,0.929c0.074,0.414,0.147,0.852,0.217,1.314
		s0.133,0.934,0.191,1.409C191.498,282.834,191.534,283.24,191.552,283.576z"/>
	<path fill="#FFFFFF" stroke="#FFFFFF" stroke-miterlimit="10" d="M201.823,282.312c0.066-0.041,0.257-0.154,0.57-0.34
		c0.312-0.185,0.587-0.269,0.82-0.25c0.695-0.189,1.273-0.143,1.737,0.142c0.464,0.285,0.665,1.003,0.606,2.15
		c-0.176,1.301-0.549,2.438-1.122,3.412c-0.571,0.976-1.292,1.947-2.158,2.918c0.386,0.55,0.827,0.803,1.327,0.758
		s0.99-0.241,1.469-0.59c0.479-0.348,0.928-0.769,1.346-1.264c0.418-0.493,0.751-0.918,0.999-1.273
		c0.407-0.54,0.728-0.992,0.96-1.355s0.468-0.796,0.707-1.297c0.061-0.064,0.104-0.067,0.131-0.013
		c0.025,0.056,0.039,0.145,0.043,0.267c0.004,0.123,0.006,0.295,0.008,0.517c-0.033,0.181-0.07,0.345-0.113,0.489
		c-0.041,0.146-0.111,0.311-0.207,0.494c-0.098,0.184-0.229,0.405-0.396,0.667c-0.168,0.262-0.367,0.605-0.598,1.03
		c-0.285,0.413-0.559,0.817-0.822,1.213s-0.555,0.755-0.873,1.077s-0.691,0.584-1.115,0.783c-0.426,0.199-0.938,0.321-1.541,0.365
		c-0.521-0.048-0.949-0.131-1.283-0.249s-0.604-0.258-0.808-0.419c-0.205-0.161-0.362-0.315-0.474-0.462
		c-0.111-0.146-0.193-0.273-0.244-0.386c-0.232-0.438-0.431-1.057-0.595-1.856c-0.165-0.8-0.167-1.885-0.007-3.255
		c0.158-0.728,0.364-1.363,0.618-1.904C201.063,283.14,201.401,282.683,201.823,282.312z M201.702,288.889
		c0.275-0.236,0.59-0.552,0.943-0.945c0.352-0.392,0.67-0.825,0.953-1.299c0.283-0.475,0.508-0.979,0.676-1.512
		c0.166-0.532,0.2-1.059,0.103-1.579c-0.011-0.367-0.081-0.609-0.211-0.727c-0.065-0.058-0.122-0.082-0.171-0.07
		c-0.453-0.089-0.852,0.067-1.189,0.468c-0.338,0.401-0.609,0.922-0.814,1.562c-0.206,0.641-0.341,1.334-0.407,2.076
		C201.519,287.607,201.558,288.282,201.702,288.889z"/>
</g>
<path fill="none" d="M58.229,163.386c0-29.651,12.285-56.43,32.035-75.537l0.043,0.031l4-3.5l-0.129-0.133
	c18.479-16.16,42.668-25.955,69.145-25.955c25.795,0,49.414,9.299,67.703,24.72l-0.396,0.519l5.428,4.35l0.152-0.199
	c19.854,19.118,32.207,45.968,32.207,75.705c0,28.583-11.416,54.496-29.93,73.441l-4.68,4.053l0.207,0.271
	c-18.666,16.979-43.469,27.328-70.691,27.328c-25.764,0-49.357-9.276-67.637-24.665l-3.879-3.685l-0.17,0.096
	C71.084,221.044,58.229,193.718,58.229,163.386z"/>
<path fill="#9C3995" stroke="#FFFFFF" stroke-miterlimit="10" d="M259.348,47.784l1.307,24.478l-22.389,1.294l-7.24,9.456
	c-18.289-15.421-41.908-24.72-67.703-24.72c-26.477,0-50.666,9.795-69.145,25.955l-7.021-7.206L86.832,50.89l-28.404,1.286
	l-7.896-6.763C79.742,17.585,119.283,0.5,162.812,0.5c40.379,0,77.318,14.706,105.771,39.045l-1.592-1.212L259.348,47.784z"/>
<path fill="#969796" d="M80.152,58.426l0.59,22.42l9.521,7.003c-19.75,19.107-32.035,45.886-32.035,75.537
	c0,30.332,12.855,57.658,33.408,76.84l-9.271,5.283l-29.671-7.754l-3.421,26.427l-9.414,5.854C15.031,241.458,0,204.141,0,163.312
	c0-44.052,17.504-84.011,45.926-113.321l9.719,8.973L80.152,58.426z"/>
<path fill="#E1D946" d="M242.172,268.211l4.58-21.952l-7.641-9.973l-0.625,0.541c18.514-18.945,29.93-44.858,29.93-73.441
	c0-29.737-12.354-56.587-32.207-75.705l6.061-7.833l26.127-1.146l-2.178-28.35l5.889-7.712
	c32.871,29.789,53.518,72.819,53.518,120.673c0,47.233-20.121,89.761-52.25,119.501l-7.229-9.489L242.172,268.211z"/>
<path fill="#3663AE" d="M58.48,245.833l25.305,6.997l13.021-7.95l-1.121-1.065c18.279,15.389,41.873,24.665,67.637,24.665
	c27.223,0,52.025-10.35,70.691-27.328l5.621,7.334l-5.695,25.524l27.939,5.28l6.076,8.322
	c-28.369,24.02-65.061,38.513-105.143,38.513c-46.586,0-88.598-19.57-118.275-50.934l10.189-6.104L58.48,245.833z"/>
<path fill="#FFFFFF" d="M90.307,87.88l-0.043-0.031c1.273-1.232,2.578-2.434,3.914-3.602l0.129,0.133L90.307,87.88z"/>
<path fill="#FFFFFF" d="M86.832,50.89l0.324,26.151l7.021,7.206c-1.336,1.168-2.641,2.369-3.914,3.602l-9.521-7.003l-0.59-22.42
	l-24.508,0.538l-9.719-8.973c1.508-1.555,3.037-3.085,4.605-4.578l7.896,6.763L86.832,50.89z"/>
<path fill="#FFFFFF" d="M230.629,83.53l0.396-0.519c1.779,1.5,3.51,3.057,5.184,4.669l-0.152,0.199L230.629,83.53z"/>
<path fill="#FFFFFF" d="M268.396,78.701l-26.127,1.146l-6.061,7.833c-1.674-1.612-3.404-3.169-5.184-4.669l7.24-9.456l22.389-1.294
	l-1.307-24.478l7.645-9.451l1.592,1.212c1.188,1.017,2.365,2.045,3.523,3.095l-5.889,7.712L268.396,78.701z"/>
<path fill="#FFFFFF" d="M273.807,283.38l-5.6,4.579l-0.252-0.347c1.842-1.561,3.648-3.159,5.42-4.799L273.807,283.38z"/>
<path fill="#FFFFFF" d="M238.486,236.827c-1.449,1.483-2.938,2.929-4.473,4.324l-0.207-0.271L238.486,236.827z"/>
<path fill="#FFFFFF" d="M233.939,274.01l5.695-25.524l-5.621-7.334c1.535-1.396,3.023-2.841,4.473-4.324l0.625-0.541l7.641,9.973
	l-4.58,21.952l23.975,5.113l7.229,9.489c-1.771,1.64-3.578,3.238-5.42,4.799l-6.076-8.322L233.939,274.01z"/>
<path fill="#FFFFFF" d="M95.686,243.814c-1.381-1.161-2.73-2.358-4.049-3.589l0.17-0.096L95.686,243.814z"/>
<path fill="#FFFFFF" d="M281.088,275.191l0.73,0.438l4.5-5.25l-0.553-0.344C284.244,271.789,282.682,273.506,281.088,275.191z"/>
<path fill="#FFFFFF" d="M49.273,264.182l3.361-27.176l29.73,8.503l9.271-5.283c1.318,1.23,2.668,2.428,4.049,3.589l1.121,1.065
	l-13.021,7.95l-26.305-6.997l-2.754,23.255l-10.189,6.104c-1.594-1.686-3.156-3.402-4.678-5.155L49.273,264.182z"/>
<g>
	<path fill="#070707" d="M289.511,132.701l0.559,2.116l-0.115,0.029c-0.566,0.148-1.195,0.082-1.883-0.197
		c-0.689-0.279-1.279-0.729-1.768-1.345c-0.49-0.615-0.865-1.414-1.123-2.396c-0.496-1.879-0.285-3.481,0.633-4.806
		c0.918-1.325,2.424-2.262,4.521-2.809c2.09-0.545,3.861-0.465,5.312,0.242c1.453,0.706,2.426,1.999,2.922,3.878
		c0.258,0.98,0.326,1.86,0.201,2.636c-0.123,0.776-0.395,1.449-0.814,2.019c-0.422,0.568-0.957,0.938-1.607,1.108l-0.113,0.03
		l-0.559-2.116l0.113-0.03c0.469-0.098,0.82-0.408,1.055-0.931c0.232-0.523,0.232-1.236-0.006-2.14
		c-0.281-1.071-0.908-1.868-1.879-2.392c-0.973-0.524-2.32-0.561-4.047-0.109c-1.732,0.452-2.895,1.144-3.482,2.074
		c-0.588,0.93-0.742,1.932-0.459,3.002c0.238,0.903,0.586,1.52,1.045,1.851c0.459,0.329,0.92,0.434,1.381,0.313L289.511,132.701z"/>
	<path fill="#070707" d="M287.745,141.052l-0.361-2.146l12.93-2.165l0.363,2.146l-2.281,0.382c0.719,0.254,1.295,0.563,1.73,0.933
		s0.787,0.78,1.059,1.233c0.271,0.454,0.449,0.932,0.535,1.437c0.076,0.457,0.078,0.861,0.002,1.215l-2.232,0.374
		c0.158-0.562,0.188-1.135,0.09-1.717c-0.139-0.828-0.631-1.57-1.473-2.229c-0.842-0.657-2.164-0.834-3.971-0.533L287.745,141.052z"
		/>
	<path fill="#070707" d="M292.929,156.728l0.162,2.17l-0.117,0.008c-0.578,0.042-1.184-0.139-1.818-0.547
		c-0.635-0.406-1.137-0.97-1.504-1.688c-0.367-0.72-0.586-1.56-0.658-2.523c-0.146-1.95,0.385-3.503,1.594-4.657
		c1.209-1.155,2.797-1.805,4.762-1.949c2.016-0.148,3.725,0.289,5.131,1.312c1.408,1.022,2.178,2.417,2.309,4.185
		c0.072,0.972-0.076,1.867-0.445,2.688c-0.371,0.818-0.994,1.491-1.869,2.017c-0.875,0.527-2.125,0.85-3.746,0.97l-0.727,0.054
		l-0.68-9.064c-1.396,0.103-2.52,0.553-3.371,1.351c-0.85,0.797-1.227,1.843-1.129,3.138c0.068,0.931,0.303,1.596,0.707,1.996
		c0.402,0.4,0.83,0.584,1.283,0.552L292.929,156.728z M296.972,149.717l0.514,6.851l0.258-0.02c0.607-0.045,1.188-0.231,1.74-0.557
		c0.553-0.327,0.949-0.75,1.188-1.27c0.24-0.521,0.336-1.114,0.287-1.781c-0.061-0.787-0.439-1.49-1.143-2.109
		C299.114,150.212,298.167,149.841,296.972,149.717z"/>
	<path fill="#070707" d="M289.519,170.797c0.713-0.202,1.322-0.294,1.832-0.276c-0.916-0.959-1.49-1.771-1.721-2.437
		c-0.232-0.666-0.338-1.298-0.318-1.897c0.033-1.011,0.383-1.867,1.043-2.57c0.662-0.704,1.551-1.035,2.668-0.998
		c1.266,0.043,2.225,0.588,2.877,1.632c0.654,1.045,1.188,2.825,1.602,5.34l0.186,1.146l1.479,0.051
		c0.805,0.027,1.379-0.212,1.721-0.719c0.342-0.506,0.525-1.124,0.549-1.852c0.031-0.87-0.145-1.557-0.527-2.057
		c-0.383-0.503-0.84-0.762-1.371-0.78l-0.189-0.006l0.082-2.361l0.176,0.006c0.578,0.021,1.168,0.278,1.77,0.777
		c0.602,0.498,1.047,1.147,1.332,1.947c0.287,0.801,0.414,1.67,0.381,2.609c-0.031,0.932-0.207,1.774-0.531,2.526
		c-0.322,0.754-0.742,1.296-1.258,1.631c-0.518,0.333-1.469,0.477-2.861,0.43l-5.088-0.175c-0.555-0.019-1.141-0.024-1.754-0.019
		c-0.613,0.007-1.332,0.12-2.152,0.342L289.519,170.797z M296.138,170.684l-0.143-0.637c-0.467-2.144-0.932-3.521-1.396-4.131
		c-0.463-0.609-1.031-0.926-1.703-0.949c-0.342-0.012-0.666,0.065-0.967,0.231c-0.305,0.166-0.543,0.42-0.719,0.76
		s-0.27,0.678-0.281,1.017c-0.02,0.586,0.139,1.169,0.475,1.748s0.795,1.036,1.377,1.372c0.584,0.337,1.268,0.518,2.057,0.545
		L296.138,170.684z"/>
	<path fill="#070707" d="M289.851,184.925l-1.816-0.239c-0.117-1.086-0.139-1.906-0.066-2.463c0.107-0.804,0.367-1.508,0.777-2.11
		c0.412-0.602,0.949-1.03,1.615-1.285c0.666-0.254,1.676-0.292,3.035-0.112l6.68,0.881l0.299-2.251l1.803,0.238l-0.297,2.25
		l3.072,0.404l-0.285,2.158l-3.072-0.406l-0.5,3.78l-1.805-0.237l0.5-3.78l-6.064-0.8c-1.146-0.151-1.957-0.168-2.426-0.048
		c-0.471,0.118-0.834,0.356-1.096,0.71c-0.26,0.355-0.424,0.801-0.496,1.333C289.653,183.373,289.698,184.032,289.851,184.925z"/>
	<path fill="#070707" d="M288.817,196.768l-0.502,2.117l-0.113-0.027c-0.564-0.133-1.088-0.489-1.57-1.067
		c-0.48-0.578-0.789-1.266-0.922-2.061c-0.133-0.796-0.088-1.664,0.133-2.605c0.453-1.902,1.43-3.224,2.932-3.961
		c1.5-0.737,3.211-0.879,5.131-0.428c1.967,0.464,3.465,1.395,4.496,2.792s1.344,2.959,0.936,4.683
		c-0.225,0.948-0.637,1.759-1.238,2.428c-0.602,0.67-1.398,1.124-2.393,1.364c-0.994,0.237-2.283,0.17-3.867-0.203l-0.707-0.167
		l2.094-8.845c-1.363-0.321-2.57-0.23-3.623,0.275c-1.053,0.504-1.729,1.388-2.027,2.651c-0.217,0.908-0.191,1.613,0.07,2.116
		c0.264,0.503,0.615,0.807,1.057,0.91L288.817,196.768z M294.794,191.297l-1.584,6.687l0.252,0.059
		c0.594,0.141,1.205,0.138,1.83-0.008s1.131-0.43,1.516-0.854c0.387-0.424,0.656-0.962,0.811-1.612
		c0.184-0.768,0.033-1.553-0.449-2.354C296.687,192.415,295.896,191.775,294.794,191.297z"/>
</g>
<g>
	<path fill="#F7F6F6" d="M139.688,37.766l-2.141,0.41l-3.551-18.578l2.141-0.408L139.688,37.766z"/>
	<path fill="#F7F6F6" d="M151.967,32.732l2.168-0.229l0.012,0.115c0.062,0.576-0.104,1.186-0.491,1.832
		c-0.388,0.645-0.936,1.164-1.644,1.553s-1.544,0.633-2.507,0.734c-1.949,0.205-3.521-0.275-4.713-1.447
		c-1.193-1.17-1.894-2.734-2.1-4.691c-0.212-2.006,0.174-3.725,1.154-5.16c0.98-1.434,2.354-2.246,4.119-2.43
		c0.97-0.104,1.872,0.018,2.704,0.361c0.831,0.344,1.525,0.945,2.079,1.801c0.554,0.857,0.916,2.094,1.086,3.709l0.077,0.725
		l-9.056,0.955c0.146,1.391,0.632,2.498,1.457,3.322c0.824,0.824,1.883,1.168,3.176,1.031c0.931-0.098,1.591-0.355,1.978-0.768
		c0.389-0.414,0.56-0.848,0.513-1.299L151.967,32.732z M144.82,28.914l6.844-0.723l-0.026-0.256
		c-0.063-0.605-0.268-1.18-0.611-1.721c-0.345-0.541-0.78-0.924-1.309-1.146c-0.529-0.223-1.125-0.301-1.792-0.229
		c-0.787,0.082-1.479,0.482-2.077,1.201C145.252,26.76,144.909,27.717,144.82,28.914z"/>
	<path fill="#F7F6F6" d="M166.46,35.742c-0.222-0.707-0.329-1.312-0.325-1.82c-0.937,0.938-1.734,1.529-2.396,1.779
		c-0.661,0.246-1.291,0.369-1.894,0.363c-1.012-0.008-1.878-0.334-2.6-0.975c-0.722-0.643-1.077-1.521-1.067-2.637
		c0.011-1.264,0.531-2.236,1.561-2.914c1.029-0.676,2.798-1.254,5.307-1.732l1.144-0.211l0.013-1.479
		c0.007-0.805-0.248-1.371-0.764-1.699c-0.517-0.328-1.139-0.496-1.869-0.502c-0.872-0.008-1.554,0.186-2.047,0.58
		c-0.491,0.395-0.74,0.857-0.744,1.389l-0.002,0.186l-2.367-0.02l0.001-0.176c0.005-0.578,0.249-1.174,0.733-1.787
		c0.482-0.613,1.122-1.072,1.916-1.379c0.794-0.305,1.663-0.453,2.604-0.445c0.933,0.008,1.78,0.164,2.543,0.467
		s1.317,0.709,1.665,1.215s0.516,1.453,0.504,2.844l-0.043,5.08c-0.006,0.555,0.004,1.139,0.025,1.752
		c0.021,0.611,0.154,1.326,0.398,2.141L166.46,35.742z M166.177,29.141l-0.635,0.158c-2.135,0.52-3.502,1.02-4.102,1.498
		c-0.599,0.479-0.901,1.053-0.906,1.723c-0.004,0.342,0.082,0.662,0.256,0.961c0.175,0.297,0.435,0.529,0.779,0.695
		c0.346,0.168,0.688,0.252,1.026,0.254c0.588,0.006,1.166-0.166,1.737-0.516c0.572-0.35,1.019-0.82,1.34-1.41
		c0.322-0.59,0.485-1.279,0.492-2.066L166.177,29.141z"/>
	<path fill="#F7F6F6" d="M174.921,36.328l-2.168-0.229l1.366-13.018l2.168,0.227l-0.241,2.297c0.436-0.621,0.89-1.094,1.362-1.412
		s0.963-0.549,1.474-0.688c0.509-0.141,1.019-0.182,1.528-0.129c0.461,0.049,0.854,0.156,1.174,0.322l-0.236,2.25
		c-0.499-0.303-1.044-0.486-1.633-0.549c-0.836-0.086-1.684,0.186-2.544,0.818c-0.858,0.633-1.384,1.857-1.575,3.676L174.921,36.328
		z"/>
	<path fill="#F7F6F6" d="M185.008,37.701l-2.135-0.439l2.638-12.822l2.135,0.441l-0.455,2.215c0.594-0.604,1.138-1.031,1.633-1.279
		c0.493-0.25,0.99-0.412,1.488-0.49c0.499-0.076,1.03-0.057,1.597,0.061c0.804,0.164,1.491,0.477,2.062,0.938
		s0.967,1.047,1.188,1.758c0.221,0.713,0.186,1.771-0.104,3.18l-1.679,8.162l-2.136-0.441l1.49-7.242
		c0.237-1.148,0.327-1.977,0.272-2.486s-0.276-0.945-0.664-1.309s-0.842-0.598-1.362-0.705c-0.627-0.129-1.262-0.068-1.903,0.182
		c-0.643,0.25-1.202,0.67-1.677,1.26c-0.477,0.588-0.84,1.494-1.092,2.717L185.008,37.701z"/>
</g>
<g>
	<path fill="#010101" d="M43.018,121.605l-0.679,2.096l-12.314-4.02l0.679-2.096L43.018,121.605z M45.752,122.498l2.062,0.672
		l-0.679,2.094l-2.062-0.672L45.752,122.498z"/>
	<path fill="#010101" d="M28.205,133.545l-1.758-0.426c0.007-1.104,0.078-1.932,0.212-2.484c0.195-0.797,0.529-1.479,1.001-2.041
		s1.049-0.939,1.731-1.127s1.681-0.121,2.995,0.199l6.469,1.572l0.545-2.23l1.746,0.424l-0.545,2.232l2.975,0.723l-0.523,2.139
		l-2.975-0.723l-0.916,3.75l-1.746-0.426l0.916-3.748l-5.87-1.428c-1.112-0.271-1.905-0.371-2.381-0.299
		c-0.476,0.07-0.86,0.271-1.156,0.602c-0.295,0.332-0.508,0.76-0.637,1.289C28.186,131.965,28.157,132.633,28.205,133.545z"/>
	<path fill="#010101" d="M27.543,147.281l-0.294,2.18l-0.114-0.014c-0.568-0.074-1.117-0.375-1.646-0.904
		c-0.53-0.531-0.897-1.188-1.104-1.973c-0.206-0.787-0.244-1.664-0.113-2.633c0.264-1.961,1.1-3.393,2.51-4.295
		c1.408-0.902,3.079-1.229,5.013-0.979c1.979,0.254,3.542,1.029,4.69,2.324s1.604,2.83,1.364,4.607
		c-0.132,0.977-0.462,1.834-0.99,2.572c-0.529,0.738-1.271,1.279-2.227,1.625c-0.956,0.346-2.231,0.418-3.827,0.211l-0.713-0.092
		l1.227-9.115c-1.373-0.176-2.554,0.045-3.542,0.664c-0.989,0.621-1.571,1.582-1.745,2.883c-0.127,0.938-0.036,1.643,0.27,2.119
		c0.307,0.477,0.683,0.746,1.128,0.803L27.543,147.281z M32.91,141.143l-0.926,6.889l0.252,0.033
		c0.598,0.076,1.198,0.008,1.801-0.203c0.603-0.213,1.073-0.555,1.413-1.021c0.341-0.467,0.556-1.035,0.646-1.707
		c0.106-0.793-0.115-1.564-0.665-2.316C34.88,142.062,34.04,141.506,32.91,141.143z"/>
	<path fill="#010101" d="M23.491,157.252l0.075-2.199l12.964,0.32l-0.075,2.197l-2.286-0.057c0.645,0.387,1.142,0.805,1.49,1.256
		c0.349,0.449,0.609,0.924,0.782,1.424c0.173,0.502,0.251,1.012,0.232,1.529c-0.016,0.467-0.095,0.869-0.238,1.205l-2.24-0.053
		c0.267-0.529,0.409-1.09,0.43-1.689c0.029-0.848-0.3-1.678-0.984-2.49s-1.933-1.242-3.743-1.287L23.491,157.252z"/>
	<path fill="#010101" d="M23.852,174.986c0.682-0.281,1.272-0.439,1.775-0.477c-0.993-0.865-1.637-1.617-1.929-2.262
		c-0.292-0.643-0.457-1.268-0.495-1.873c-0.062-1.018,0.197-1.916,0.78-2.695s1.426-1.209,2.529-1.293
		c1.251-0.094,2.247,0.35,2.99,1.328s1.439,2.709,2.091,5.191l0.292,1.131l1.46-0.109c0.796-0.061,1.338-0.361,1.625-0.91
		c0.289-0.545,0.41-1.186,0.364-1.92c-0.054-0.877-0.294-1.547-0.72-2.01c-0.424-0.461-0.898-0.672-1.425-0.633l-0.185,0.014
		l-0.148-2.383l0.173-0.014c0.572-0.041,1.178,0.154,1.818,0.59s1.14,1.039,1.499,1.812c0.358,0.773,0.567,1.635,0.627,2.58
		c0.059,0.939-0.035,1.805-0.281,2.598c-0.244,0.791-0.605,1.383-1.082,1.775c-0.475,0.391-1.4,0.639-2.773,0.742l-5.025,0.379
		c-0.549,0.041-1.125,0.1-1.73,0.17c-0.604,0.074-1.299,0.268-2.086,0.578L23.852,174.986z M30.355,174.152l-0.201-0.623
		c-0.666-2.105-1.256-3.438-1.771-4s-1.104-0.818-1.768-0.768c-0.34,0.023-0.65,0.137-0.932,0.338
		c-0.282,0.199-0.493,0.48-0.633,0.84c-0.141,0.361-0.199,0.713-0.179,1.053c0.037,0.592,0.248,1.16,0.635,1.705
		s0.883,0.955,1.489,1.229c0.605,0.275,1.297,0.383,2.076,0.324L30.355,174.152z"/>
	<path fill="#010101" d="M27.843,190.734l-1.787,0.32c-0.424-1.01-0.683-1.797-0.773-2.355c-0.131-0.807-0.09-1.562,0.126-2.268
		c0.215-0.707,0.6-1.283,1.156-1.73s1.502-0.791,2.839-1.031l6.576-1.18l-0.368-2.258l1.775-0.32l0.368,2.26l3.024-0.543
		l0.354,2.166l-3.024,0.543l0.619,3.795l-1.776,0.318l-0.618-3.795l-5.97,1.07c-1.13,0.205-1.9,0.434-2.311,0.691
		s-0.687,0.598-0.83,1.018c-0.145,0.422-0.172,0.9-0.084,1.436C27.208,189.299,27.442,189.918,27.843,190.734z"/>
	<path fill="#010101" d="M32.491,203.482l0.563,2.119l-0.112,0.031c-0.553,0.156-1.176,0.098-1.868-0.178
		c-0.693-0.275-1.285-0.734-1.776-1.371c-0.491-0.639-0.862-1.428-1.112-2.369c-0.506-1.902-0.279-3.547,0.679-4.932
		c0.958-1.387,2.38-2.348,4.263-2.887c1.929-0.551,3.672-0.459,5.229,0.271c1.558,0.732,2.565,1.959,3.024,3.684
		c0.252,0.949,0.274,1.865,0.068,2.752c-0.207,0.885-0.687,1.678-1.438,2.373c-0.751,0.695-1.904,1.268-3.46,1.711l-0.695,0.197
		l-2.351-8.844c-1.338,0.383-2.345,1.055-3.022,2.016c-0.678,0.959-0.849,2.072-0.514,3.334c0.242,0.908,0.596,1.521,1.062,1.836
		c0.466,0.316,0.916,0.414,1.35,0.289L32.491,203.482z M35.11,195.727l1.776,6.686l0.247-0.07c0.584-0.166,1.112-0.467,1.589-0.902
		c0.475-0.434,0.781-0.932,0.916-1.496c0.136-0.562,0.117-1.17-0.056-1.82c-0.204-0.768-0.705-1.389-1.502-1.861
		C37.283,195.789,36.293,195.611,35.11,195.727z"/>
</g>
<g>
	<path fill="#FFFFFF" d="M153.617,287.904l2.176,0.224l-1.2,12.988l-2.176-0.225l0.209-2.267c-0.522,0.65-1.021,1.127-1.496,1.43
		c-0.476,0.303-0.954,0.52-1.438,0.649c-0.482,0.131-1.001,0.167-1.554,0.111c-1.226-0.127-2.234-0.572-3.025-1.34
		c-0.791-0.767-1.092-2.176-0.902-4.229l0.761-8.232l2.176,0.224l-0.677,7.325c-0.176,1.899-0.023,3.074,0.456,3.521
		c0.48,0.448,1.102,0.712,1.864,0.792c0.659,0.067,1.298-0.058,1.916-0.373c0.619-0.315,1.132-0.795,1.54-1.438
		c0.409-0.642,0.669-1.568,0.78-2.777L153.617,287.904z"/>
	<path fill="#FFFFFF" d="M159.492,297.907l2.185-0.003l0.001,0.047c0.008,0.561,0.227,1.026,0.659,1.396s1.157,0.553,2.175,0.552
		c0.894-0.002,1.614-0.221,2.164-0.658c0.55-0.437,0.82-0.952,0.812-1.544c-0.01-0.803-0.562-1.37-1.657-1.705l-1.113-0.337
		l-0.738-0.231l-1.513-0.467c-1.729-0.628-2.603-1.675-2.622-3.14c-0.014-1.029,0.392-1.934,1.214-2.715
		c0.824-0.779,2.059-1.171,3.701-1.175c1.621-0.002,2.779,0.329,3.474,0.995c0.695,0.664,1.048,1.402,1.059,2.213l0.001,0.047
		l-2.196,0.004l-0.001-0.046c-0.006-0.438-0.23-0.78-0.672-1.028c-0.442-0.25-1.027-0.373-1.757-0.372
		c-0.869,0.001-1.532,0.185-1.988,0.547c-0.457,0.363-0.682,0.809-0.675,1.34c0.006,0.404,0.159,0.734,0.463,0.988
		c0.303,0.252,0.81,0.479,1.521,0.68l1.054,0.291l0.763,0.221c1.062,0.303,1.725,0.516,1.986,0.64
		c0.263,0.125,0.527,0.284,0.795,0.479c0.369,0.28,0.645,0.618,0.825,1.015c0.18,0.398,0.274,0.861,0.281,1.392
		c0.017,1.231-0.412,2.268-1.286,3.11c-0.873,0.844-2.159,1.268-3.858,1.27c-1.077,0.002-1.971-0.156-2.685-0.476
		c-0.714-0.317-1.285-0.759-1.713-1.323c-0.429-0.564-0.648-1.216-0.658-1.957V297.907z"/>
	<path fill="#FFFFFF" d="M182.909,296.858l2.171-0.228l0.013,0.115c0.067,0.573-0.089,1.184-0.47,1.827s-0.924,1.16-1.63,1.548
		c-0.705,0.388-1.541,0.634-2.504,0.734c-1.951,0.205-3.532-0.276-4.741-1.443c-1.211-1.167-1.931-2.728-2.161-4.68
		c-0.235-2,0.13-3.716,1.095-5.147c0.967-1.431,2.333-2.24,4.102-2.426c0.971-0.103,1.876,0.018,2.715,0.361
		c0.838,0.344,1.54,0.943,2.105,1.798c0.565,0.854,0.943,2.087,1.133,3.7l0.085,0.721l-9.065,0.953
		c0.163,1.387,0.663,2.492,1.5,3.313c0.836,0.822,1.902,1.165,3.196,1.028c0.931-0.097,1.589-0.354,1.974-0.766
		s0.551-0.845,0.497-1.294L182.909,296.858z M175.7,293.05l6.853-0.721l-0.03-0.255c-0.071-0.605-0.282-1.177-0.634-1.716
		c-0.352-0.54-0.793-0.922-1.325-1.145s-1.132-0.299-1.8-0.229c-0.787,0.082-1.477,0.482-2.066,1.199
		C176.106,290.903,175.774,291.857,175.7,293.05z"/>
</g>
</svg>
