<?xml version="1.0" encoding="utf-8"?>
<!-- Generator: Adobe Illustrator 16.0.0, SVG Export Plug-In . SVG Version: 6.00 Build 0)  -->
<!DOCTYPE svg PUBLIC "-//W3C//DTD SVG 1.1//EN" "http://www.w3.org/Graphics/SVG/1.1/DTD/svg11.dtd">
<svg version="1.1" id="Layer_1" xmlns="http://www.w3.org/2000/svg" xmlns:xlink="http://www.w3.org/1999/xlink" x="0px" y="0px"
	 width="364.473px" height="370.062px" viewBox="125.5 199.5 364.473 370.062" enable-background="new 125.5 199.5 364.473 370.062"
	 xml:space="preserve">
<g id="Layer_1_1_" display="none">
	<path display="inline" fill="#406FB6" d="M469.327,402.113c-3.353,37.885-19.582,72.067-44.28,98.149l-43.433-15.105l8.271-23.08
		c17.521-19.795,28.164-45.818,28.164-74.332c0-29.809-11.627-56.897-30.588-76.989l22.021,0.165l7.109-44.579
		c29.427,26.913,49.015,64.406,52.735,106.459l20.646,14.656L469.327,402.113z"/>
	<path display="inline" fill="#CBCBCA" d="M231.24,302.887c19.826-17.669,45.962-28.41,74.607-28.41
		c28.646,0,53.384,10.211,73.212,27.88l23.422,2.661l7.109-44.579c-29.33-27.432-60.383-37.963-103.709-37.963
		c-43.327,0-82.725,16.799-112.055,44.229l44.361,15.43L231.24,302.887z"/>
	<path display="inline" fill="#E7DB43" d="M233.04,470.723c19.597,16.732,45.021,26.839,72.809,26.839
		c28.646,0,54.78-10.741,74.607-28.409l-6.881,20.752l44.361,15.43c-25.94,24.261-59.757,40.206-97.203,43.565l-14.852,20.663
		l-14.604-20.641c-33.188-2.927-63.534-15.734-88.09-35.462l7.132-44.721L233.04,470.723z"/>
	<path display="inline" fill="#A557A2" d="M142.773,371.224c3.354-37.885,19.582-72.068,44.281-98.15l43.432,15.106l-8.271,23.341
		c-17.522,19.794-28.164,45.817-28.164,74.332c0,29.808,11.628,56.896,30.589,76.988l-22.021-0.425l-7.109,44.579
		c-29.427-26.913-49.015-64.406-52.736-106.459l-20.646-14.656L142.773,371.224z"/>
</g>
<g id="Layer_1_w_x2F_arrows">
	<path fill="#406FB6" d="M469.327,402.113c-3.353,37.885-19.582,72.067-44.28,98.149l-43.433-15.105l8.271-23.08
		c17.521-19.795,28.164-45.818,28.164-74.332c0-29.809-11.627-56.897-30.588-76.989l22.021,0.165l7.109-44.579
		c29.427,26.913,49.015,64.406,52.735,106.459"/>
	<path fill="#CBCBCA" d="M231.24,302.887c19.826-17.669,45.962-28.41,74.607-28.41c28.646,0,53.384,10.211,73.212,27.88
		l23.422,2.661l7.109-44.579c-29.33-27.432-60.383-37.963-103.709-37.963c-43.327,0-82.725,16.799-112.055,44.229l44.361,15.43
		L231.24,302.887z"/>
	<path fill="#E7DB43" d="M291.28,548.922c-33.188-2.927-63.534-15.734-88.09-35.462l7.132-44.721l22.719,1.982
		c19.597,16.732,45.021,26.839,72.809,26.839c28.646,0,54.78-10.741,74.607-28.409l-6.881,20.752l44.361,15.43
		c-25.94,24.261-59.757,40.206-97.203,43.565"/>
	<path fill="#A557A2" d="M142.773,371.224c3.354-37.885,19.582-72.068,44.281-98.15l43.432,15.106l-8.271,23.341
		c-17.522,19.794-28.164,45.817-28.164,74.332c0,29.808,11.628,56.896,30.589,76.988l-22.021-0.425l-7.109,44.579
		c-29.427-26.913-49.015-64.406-52.736-106.459"/>
</g>
<g id="learn">
	<g>
		<path fill="#FFFFFF" d="M447.15,360.686l-9.218,1.318l0.814,5.702l-2.092,0.299l-1.182-8.275l11.309-1.617L447.15,360.686z"/>
		<path fill="#FFFFFF" d="M448.705,377.346l-2.107,0.129l-0.38-6.229l-2.444,0.15l0.35,5.716l-1.946,0.119l-0.351-5.716l-2.795,0.17
			l0.39,6.361l-2.108,0.128l-0.547-8.955l11.403-0.696L448.705,377.346z"/>
		<path fill="#FFFFFF" d="M448.6,385.893l-11.533,4.128l0.068-2.697l2.565-0.829l0.111-4.418l-2.52-0.991l0.065-2.615l11.307,4.757
			L448.6,385.893z M441.59,385.864l4.229-1.383v-0.033l-4.15-1.645L441.59,385.864z"/>
		<path fill="#FFFFFF" d="M447.587,398.42c-0.062,0.525-0.197,0.99-0.411,1.395c-0.213,0.401-0.479,0.737-0.801,1.007
			c-0.32,0.268-0.68,0.46-1.072,0.576c-0.396,0.114-0.811,0.147-1.244,0.098c-0.668-0.077-1.229-0.289-1.682-0.637
			c-0.454-0.347-0.771-0.863-0.948-1.552l-0.032-0.004c-0.121,0.31-0.281,0.558-0.48,0.745c-0.198,0.188-0.425,0.333-0.679,0.438
			c-0.253,0.104-0.525,0.168-0.818,0.195c-0.294,0.026-0.584,0.035-0.873,0.024c-0.183-0.01-0.396-0.023-0.641-0.041
			s-0.497-0.026-0.753-0.029c-0.258-0.002-0.504,0.016-0.739,0.049c-0.233,0.033-0.438,0.103-0.61,0.204l0.298-2.582
			c0.377-0.101,0.816-0.139,1.318-0.113c0.502,0.024,0.983,0.03,1.446,0.018c0.604-0.02,1.06-0.154,1.368-0.408
			c0.31-0.253,0.5-0.703,0.575-1.35l0.298-2.582l-4.435-0.513l0.299-2.581l11.348,1.312L447.587,398.42z M442.561,396.904
			c-0.069,0.593,0.008,1.052,0.227,1.377c0.221,0.325,0.617,0.521,1.188,0.588c0.552,0.062,0.968-0.039,1.251-0.306
			c0.283-0.268,0.46-0.697,0.527-1.289l0.327-2.829l-3.194-0.37L442.561,396.904z"/>
		<path fill="#FFFFFF" d="M446.185,407.281l-8.517,3.246l-0.008,0.03l7.499,1.581l-0.502,2.381l-11.178-2.355l0.535-2.543
			l8.498-3.232l0.007-0.032l-7.483-1.577l0.502-2.38l11.179,2.354L446.185,407.281z"/>
	</g>
</g>
<g id="iterate">
	<g>
		<path fill="#FFFFFF" d="M274.768,247.949l2.437,11.16l-2.539,0.555l-2.437-11.162L274.768,247.949z"/>
		<path fill="#FFFFFF" d="M276.895,249.591l-0.328-2.087l9.566-1.5l0.327,2.086l-3.5,0.549l1.442,9.2l-2.566,0.403l-1.443-9.201
			L276.895,249.591z"/>
		<path fill="#FFFFFF" d="M297.035,245.142l0.154,2.106l-6.223,0.459l0.179,2.44l5.711-0.42l0.145,1.946l-5.711,0.42l0.205,2.793
			l6.354-0.468l0.155,2.106l-8.947,0.658l-0.839-11.393L297.035,245.142z"/>
		<path fill="#FFFFFF" d="M306.04,245.148c0.528,0.007,1.005,0.097,1.428,0.269c0.423,0.171,0.783,0.403,1.083,0.696
			c0.299,0.291,0.524,0.628,0.681,1.01c0.154,0.381,0.229,0.789,0.222,1.227c-0.01,0.672-0.164,1.252-0.463,1.737
			c-0.301,0.487-0.783,0.853-1.447,1.099l-0.002,0.033c0.318,0.09,0.582,0.225,0.789,0.402c0.207,0.18,0.375,0.391,0.505,0.633
			c0.129,0.241,0.222,0.506,0.277,0.795c0.057,0.289,0.094,0.578,0.112,0.865c0.008,0.182,0.016,0.396,0.022,0.642
			c0.008,0.246,0.023,0.497,0.048,0.753c0.023,0.256,0.063,0.5,0.122,0.729c0.058,0.229,0.146,0.427,0.265,0.587l-2.598-0.037
			c-0.14-0.364-0.222-0.798-0.247-1.299c-0.026-0.502-0.069-0.982-0.128-1.442c-0.081-0.599-0.263-1.038-0.544-1.319
			c-0.283-0.282-0.75-0.428-1.401-0.438l-2.598-0.037l-0.064,4.464l-2.598-0.038l0.165-11.422L306.04,245.148z M305.039,250.302
			c0.596,0.009,1.045-0.112,1.346-0.364c0.302-0.252,0.457-0.665,0.465-1.241c0.008-0.555-0.136-0.96-0.43-1.214
			c-0.294-0.256-0.739-0.387-1.334-0.396l-2.848-0.04l-0.046,3.216L305.039,250.302z"/>
		<path fill="#FFFFFF" d="M318.241,246.002l3.211,11.82l-2.684-0.279l-0.625-2.623l-4.396-0.458l-1.186,2.434l-2.601-0.271
			l5.63-10.899L318.241,246.002z M317.662,252.987l-1.047-4.324l-0.031-0.003l-1.967,4.01L317.662,252.987z"/>
		<path fill="#FFFFFF" d="M321.477,248.462l0.366-2.079l9.536,1.678l-0.365,2.08l-3.488-0.613l-1.613,9.17l-2.561-0.45l1.613-9.171
			L321.477,248.462z"/>
		<path fill="#FFFFFF" d="M341.936,250.734l-0.529,2.043l-6.041-1.562l-0.612,2.371l5.545,1.434l-0.489,1.89l-5.544-1.435
			l-0.702,2.711l6.169,1.597l-0.528,2.044l-8.685-2.246l2.861-11.061L341.936,250.734z"/>
	</g>
	<ellipse fill="#FFFFFF" cx="-43" cy="85.5" rx="1" ry="1.5"/>
</g>
<g id="create">
	<g>
		<path fill="#FFFFFF" d="M280.026,518.104c-0.093-0.271-0.23-0.521-0.413-0.753c-0.183-0.23-0.402-0.431-0.662-0.599
			c-0.261-0.168-0.547-0.29-0.856-0.365c-0.568-0.14-1.077-0.15-1.524-0.036c-0.448,0.115-0.84,0.321-1.174,0.618
			s-0.612,0.66-0.836,1.089c-0.225,0.43-0.396,0.887-0.515,1.372c-0.114,0.467-0.169,0.935-0.164,1.402
			c0.004,0.467,0.087,0.908,0.248,1.32c0.16,0.412,0.413,0.772,0.757,1.083c0.344,0.31,0.8,0.532,1.369,0.673
			c0.771,0.188,1.43,0.107,1.976-0.241c0.545-0.35,0.958-0.886,1.237-1.608l2.443,0.599c-0.234,0.679-0.555,1.265-0.958,1.759
			c-0.404,0.494-0.875,0.884-1.411,1.171c-0.536,0.285-1.124,0.46-1.765,0.523c-0.64,0.062-1.313,0.007-2.021-0.165
			c-0.879-0.217-1.633-0.558-2.263-1.024c-0.631-0.467-1.123-1.018-1.479-1.654c-0.355-0.636-0.577-1.335-0.663-2.098
			c-0.086-0.762-0.03-1.547,0.167-2.354c0.203-0.829,0.521-1.566,0.951-2.214c0.431-0.646,0.952-1.176,1.562-1.586
			c0.612-0.409,1.307-0.68,2.081-0.809c0.775-0.129,1.604-0.086,2.481,0.129c0.633,0.155,1.208,0.389,1.729,0.703
			c0.521,0.313,0.96,0.693,1.323,1.14c0.362,0.445,0.627,0.951,0.795,1.521c0.168,0.567,0.21,1.183,0.129,1.844l-2.443-0.598
			C280.153,518.652,280.119,518.372,280.026,518.104z"/>
		<path fill="#FFFFFF" d="M291.204,516.893c0.524,0.07,0.986,0.218,1.387,0.438c0.397,0.221,0.729,0.493,0.991,0.819
			c0.263,0.325,0.447,0.688,0.557,1.084c0.107,0.396,0.133,0.812,0.075,1.243c-0.089,0.667-0.312,1.224-0.667,1.67
			c-0.354,0.449-0.878,0.756-1.568,0.922l-0.004,0.03c0.307,0.127,0.551,0.292,0.736,0.494c0.184,0.203,0.326,0.433,0.425,0.688
			c0.099,0.256,0.16,0.53,0.182,0.823c0.022,0.294,0.024,0.584,0.009,0.873c-0.014,0.182-0.031,0.395-0.053,0.639
			c-0.021,0.245-0.036,0.496-0.042,0.754c-0.007,0.257,0.004,0.503,0.034,0.738c0.029,0.234,0.093,0.439,0.192,0.614l-2.575-0.346
			c-0.094-0.378-0.124-0.817-0.09-1.319c0.034-0.501,0.048-0.983,0.044-1.446c-0.008-0.604-0.136-1.062-0.383-1.375
			c-0.248-0.312-0.694-0.514-1.339-0.601l-2.576-0.346l-0.594,4.425l-2.574-0.345l1.519-11.323L291.204,516.893z M289.598,521.893
			c0.591,0.079,1.051,0.013,1.38-0.201c0.329-0.216,0.532-0.607,0.608-1.179c0.074-0.55-0.021-0.97-0.282-1.257
			c-0.262-0.288-0.688-0.473-1.278-0.551l-2.821-0.379l-0.429,3.188L289.598,521.893z"/>
		<path fill="#FFFFFF" d="M305.15,517.745l-0.069,2.11l-6.237-0.204l-0.08,2.445l5.723,0.188l-0.062,1.951l-5.724-0.188
			l-0.093,2.799l6.37,0.208l-0.068,2.111l-8.967-0.295l0.375-11.418L305.15,517.745z"/>
		<path fill="#FFFFFF" d="M312.504,517.332l5.152,11.112l-2.691,0.176l-1.058-2.48l-4.41,0.288l-0.76,2.6l-2.609,0.17l3.716-11.69
			L312.504,517.332z M313.109,524.315l-1.76-4.087l-0.033,0.003l-1.264,4.283L313.109,524.315z"/>
		<path fill="#FFFFFF" d="M315.462,519.282l-0.309-2.089l9.58-1.411l0.307,2.09l-3.504,0.516l1.357,9.213l-2.572,0.378l-1.354-9.213
			L315.462,519.282z"/>
		<path fill="#FFFFFF" d="M334.263,513.497l0.495,2.053l-6.064,1.466l0.574,2.379l5.566-1.344l0.459,1.897l-5.567,1.344l0.657,2.722
			l6.192-1.496l0.496,2.055l-8.72,2.104l-2.681-11.104L334.263,513.497z"/>
	</g>
</g>
<g id="user_centred_design_process">
	<g>
		<path d="M244.2,370.451h2.327v7.488c0,0.432,0.021,0.87,0.065,1.314c0.043,0.444,0.167,0.843,0.372,1.197s0.515,0.645,0.931,0.873
			s1.002,0.342,1.76,0.342s1.345-0.114,1.761-0.342s0.726-0.519,0.931-0.873c0.205-0.354,0.329-0.753,0.373-1.197
			s0.065-0.882,0.065-1.314v-7.488h2.327v8.226c0,0.828-0.13,1.548-0.391,2.16c-0.261,0.612-0.63,1.125-1.108,1.539
			c-0.478,0.414-1.052,0.723-1.723,0.927c-0.671,0.204-1.415,0.306-2.234,0.306c-0.818,0-1.563-0.102-2.233-0.306
			c-0.67-0.204-1.245-0.513-1.723-0.927c-0.479-0.414-0.848-0.927-1.108-1.539c-0.261-0.612-0.391-1.332-0.391-2.16L244.2,370.451
			L244.2,370.451z"/>
		<path d="M259.097,380.315c0.062,0.6,0.298,1.02,0.708,1.26c0.41,0.24,0.9,0.36,1.471,0.36c0.198,0,0.426-0.015,0.681-0.045
			c0.254-0.03,0.493-0.087,0.717-0.171c0.223-0.084,0.406-0.207,0.549-0.369c0.144-0.162,0.208-0.375,0.195-0.639
			s-0.112-0.48-0.298-0.648c-0.187-0.167-0.426-0.303-0.718-0.405c-0.292-0.102-0.624-0.189-0.996-0.261s-0.751-0.15-1.136-0.234
			c-0.396-0.083-0.778-0.186-1.145-0.306s-0.695-0.282-0.987-0.486s-0.525-0.465-0.698-0.783c-0.174-0.318-0.261-0.711-0.261-1.179
			c0-0.504,0.127-0.927,0.382-1.269c0.254-0.342,0.577-0.618,0.968-0.828c0.392-0.209,0.825-0.357,1.304-0.441
			c0.478-0.083,0.934-0.126,1.369-0.126c0.497,0,0.971,0.051,1.424,0.153s0.862,0.267,1.229,0.495s0.67,0.525,0.913,0.891
			c0.242,0.366,0.395,0.807,0.456,1.323h-2.216c-0.1-0.492-0.332-0.822-0.698-0.99s-0.785-0.252-1.257-0.252
			c-0.149,0-0.326,0.012-0.531,0.036s-0.396,0.069-0.577,0.135c-0.18,0.066-0.333,0.162-0.456,0.288
			c-0.125,0.126-0.187,0.291-0.187,0.495c0,0.252,0.09,0.456,0.27,0.612c0.181,0.156,0.416,0.285,0.708,0.387
			s0.624,0.189,0.997,0.261c0.372,0.072,0.758,0.15,1.154,0.234c0.385,0.084,0.764,0.187,1.136,0.306
			c0.373,0.12,0.705,0.282,0.997,0.486c0.292,0.205,0.527,0.462,0.708,0.774s0.271,0.696,0.271,1.152c0,0.552-0.13,1.02-0.392,1.404
			c-0.261,0.384-0.599,0.696-1.015,0.936c-0.416,0.24-0.878,0.414-1.387,0.522c-0.51,0.108-1.013,0.162-1.508,0.162
			c-0.608,0-1.171-0.066-1.686-0.198s-0.962-0.333-1.341-0.603c-0.378-0.27-0.677-0.606-0.895-1.008
			c-0.217-0.402-0.333-0.879-0.345-1.431H259.097L259.097,380.315z"/>
		<path d="M268.816,379.181c0,0.36,0.054,0.708,0.158,1.044c0.105,0.336,0.264,0.63,0.476,0.882
			c0.211,0.252,0.478,0.453,0.801,0.603c0.321,0.15,0.708,0.225,1.153,0.225c0.621,0,1.12-0.128,1.499-0.387
			c0.378-0.258,0.661-0.645,0.848-1.161h2.011c-0.112,0.504-0.305,0.954-0.578,1.35c-0.272,0.396-0.602,0.729-0.987,0.999
			c-0.385,0.27-0.815,0.474-1.294,0.612c-0.478,0.138-0.978,0.207-1.499,0.207c-0.757,0-1.428-0.12-2.011-0.36
			c-0.583-0.24-1.077-0.576-1.479-1.008c-0.404-0.432-0.708-0.948-0.913-1.548s-0.308-1.26-0.308-1.98
			c0-0.66,0.108-1.287,0.326-1.881c0.217-0.594,0.527-1.116,0.931-1.566s0.892-0.807,1.463-1.071
			c0.57-0.264,1.216-0.396,1.937-0.396c0.757,0,1.438,0.153,2.039,0.459c0.602,0.306,1.102,0.711,1.499,1.215
			c0.396,0.504,0.686,1.083,0.866,1.737c0.18,0.654,0.226,1.329,0.14,2.025H268.816L268.816,379.181z M273.77,377.831
			c-0.024-0.324-0.096-0.636-0.214-0.936s-0.279-0.561-0.484-0.783c-0.204-0.222-0.452-0.402-0.744-0.54
			c-0.292-0.138-0.618-0.207-0.979-0.207c-0.373,0-0.711,0.062-1.015,0.189c-0.305,0.126-0.565,0.3-0.782,0.522
			c-0.218,0.222-0.391,0.483-0.521,0.783c-0.13,0.3-0.201,0.624-0.214,0.972H273.77L273.77,377.831z"/>
		<path d="M277.512,373.997h1.993v1.8h0.037c0.062-0.252,0.183-0.498,0.362-0.738c0.181-0.24,0.397-0.459,0.651-0.657
			c0.254-0.198,0.537-0.357,0.847-0.477c0.312-0.12,0.627-0.18,0.95-0.18c0.249,0,0.419,0.006,0.512,0.018
			c0.094,0.012,0.189,0.024,0.289,0.036v1.98c-0.148-0.024-0.301-0.045-0.456-0.063c-0.154-0.018-0.307-0.027-0.455-0.027
			c-0.36,0-0.699,0.069-1.016,0.207c-0.315,0.138-0.593,0.342-0.829,0.612c-0.235,0.27-0.422,0.603-0.559,0.999
			s-0.205,0.852-0.205,1.368v4.428h-2.123L277.512,373.997L277.512,373.997z"/>
		<path d="M282.838,377.435h5.418v1.944h-5.418V377.435z"/>
		<path d="M296.785,377.111c-0.088-0.576-0.326-1.011-0.718-1.305c-0.391-0.294-0.884-0.441-1.479-0.441
			c-0.273,0-0.565,0.045-0.875,0.135c-0.312,0.09-0.596,0.258-0.856,0.504c-0.26,0.246-0.478,0.588-0.651,1.026
			c-0.175,0.438-0.262,1.011-0.262,1.719c0,0.384,0.048,0.768,0.141,1.152c0.093,0.384,0.242,0.726,0.446,1.026
			c0.205,0.3,0.47,0.543,0.792,0.729c0.323,0.186,0.715,0.279,1.174,0.279c0.621,0,1.132-0.186,1.536-0.558
			c0.402-0.372,0.654-0.894,0.754-1.566h2.123c-0.199,1.212-0.675,2.139-1.426,2.781c-0.751,0.642-1.747,0.963-2.987,0.963
			c-0.758,0-1.426-0.123-2.002-0.369c-0.577-0.246-1.064-0.582-1.461-1.008c-0.397-0.426-0.699-0.933-0.903-1.521
			c-0.205-0.588-0.308-1.224-0.308-1.908c0-0.696,0.1-1.35,0.299-1.962c0.197-0.612,0.496-1.143,0.894-1.593
			c0.397-0.45,0.891-0.804,1.48-1.062c0.589-0.258,1.281-0.387,2.075-0.387c0.56,0,1.09,0.069,1.593,0.207
			c0.503,0.138,0.949,0.345,1.341,0.621c0.391,0.276,0.71,0.624,0.959,1.044c0.248,0.42,0.396,0.918,0.447,1.494H296.785
			L296.785,377.111z"/>
		<path d="M302.296,379.181c0,0.36,0.053,0.708,0.158,1.044c0.104,0.336,0.264,0.63,0.475,0.882s0.478,0.453,0.801,0.603
			c0.322,0.15,0.708,0.225,1.154,0.225c0.621,0,1.12-0.128,1.499-0.387c0.378-0.258,0.661-0.645,0.847-1.161h2.012
			c-0.11,0.504-0.305,0.954-0.578,1.35c-0.271,0.396-0.602,0.729-0.985,0.999c-0.385,0.27-0.816,0.474-1.294,0.612
			c-0.479,0.138-0.979,0.207-1.499,0.207c-0.757,0-1.428-0.12-2.011-0.36c-0.583-0.24-1.077-0.576-1.48-1.008
			c-0.404-0.432-0.708-0.948-0.913-1.548s-0.307-1.26-0.307-1.98c0-0.66,0.107-1.287,0.326-1.881
			c0.217-0.594,0.526-1.116,0.931-1.566c0.403-0.45,0.891-0.807,1.462-1.071c0.571-0.264,1.216-0.396,1.938-0.396
			c0.757,0,1.437,0.153,2.038,0.459c0.603,0.306,1.102,0.711,1.5,1.215c0.396,0.504,0.687,1.083,0.865,1.737
			c0.18,0.654,0.228,1.329,0.141,2.025H302.296L302.296,379.181z M307.25,377.831c-0.025-0.324-0.098-0.636-0.216-0.936
			s-0.278-0.561-0.483-0.783c-0.205-0.222-0.453-0.402-0.745-0.54c-0.292-0.138-0.618-0.207-0.978-0.207
			c-0.373,0-0.711,0.062-1.016,0.189c-0.304,0.126-0.564,0.3-0.782,0.522c-0.218,0.222-0.391,0.483-0.521,0.783
			c-0.13,0.3-0.202,0.624-0.214,0.972H307.25L307.25,377.831z"/>
		<path d="M310.991,373.997h2.013v1.368l0.036,0.036c0.322-0.516,0.744-0.921,1.267-1.215c0.521-0.294,1.099-0.441,1.731-0.441
			c1.056,0,1.888,0.264,2.494,0.792c0.608,0.528,0.913,1.32,0.913,2.376v6.39h-2.123v-5.85c-0.023-0.732-0.187-1.263-0.482-1.593
			c-0.3-0.33-0.765-0.495-1.397-0.495c-0.36,0-0.683,0.063-0.968,0.189c-0.286,0.126-0.527,0.3-0.728,0.522
			c-0.198,0.222-0.354,0.483-0.465,0.783c-0.111,0.3-0.168,0.618-0.168,0.954v5.49h-2.123V373.997z"/>
		<path d="M320.713,373.997h1.602v-2.79h2.122v2.79h1.918v1.53h-1.918v4.968c0,0.216,0.009,0.402,0.028,0.558
			c0.019,0.156,0.062,0.288,0.13,0.396c0.067,0.108,0.171,0.189,0.308,0.243c0.137,0.054,0.322,0.081,0.56,0.081
			c0.147,0,0.298-0.003,0.446-0.009c0.148-0.006,0.297-0.027,0.446-0.063v1.584c-0.235,0.024-0.466,0.048-0.688,0.072
			c-0.226,0.024-0.453,0.036-0.689,0.036c-0.559,0-1.009-0.051-1.35-0.153c-0.343-0.102-0.609-0.252-0.802-0.45
			c-0.192-0.198-0.322-0.447-0.391-0.747s-0.109-0.642-0.121-1.026v-5.49h-1.602V373.997L320.713,373.997z"/>
		<path d="M329.537,379.181c0,0.36,0.054,0.708,0.158,1.044c0.105,0.336,0.265,0.63,0.477,0.882
			c0.211,0.252,0.477,0.453,0.801,0.603c0.322,0.15,0.707,0.225,1.154,0.225c0.619,0,1.118-0.128,1.497-0.387
			c0.38-0.258,0.662-0.645,0.849-1.161h2.012c-0.112,0.504-0.305,0.954-0.578,1.35c-0.272,0.396-0.602,0.729-0.985,0.999
			c-0.385,0.27-0.816,0.474-1.296,0.612c-0.478,0.138-0.977,0.207-1.497,0.207c-0.759,0-1.429-0.12-2.013-0.36
			c-0.584-0.24-1.077-0.576-1.479-1.008c-0.403-0.432-0.707-0.948-0.912-1.548s-0.308-1.26-0.308-1.98
			c0-0.66,0.107-1.287,0.325-1.881c0.218-0.594,0.527-1.116,0.932-1.566c0.403-0.45,0.891-0.807,1.463-1.071
			c0.569-0.264,1.216-0.396,1.936-0.396c0.758,0,1.438,0.153,2.039,0.459c0.603,0.306,1.103,0.711,1.499,1.215
			c0.397,0.504,0.688,1.083,0.866,1.737c0.18,0.654,0.227,1.329,0.14,2.025H329.537L329.537,379.181z M334.49,377.831
			c-0.023-0.324-0.097-0.636-0.214-0.936c-0.118-0.3-0.279-0.561-0.483-0.783c-0.205-0.222-0.453-0.402-0.744-0.54
			c-0.293-0.138-0.618-0.207-0.979-0.207c-0.372,0-0.711,0.062-1.015,0.189c-0.305,0.126-0.565,0.3-0.782,0.522
			c-0.217,0.222-0.391,0.483-0.521,0.783c-0.131,0.3-0.201,0.624-0.215,0.972H334.49L334.49,377.831z"/>
		<path d="M338.234,373.997h1.992v1.8h0.037c0.062-0.252,0.184-0.498,0.363-0.738c0.18-0.24,0.396-0.459,0.651-0.657
			c0.254-0.198,0.537-0.357,0.848-0.477c0.311-0.12,0.627-0.18,0.949-0.18c0.248,0,0.418,0.006,0.513,0.018
			c0.094,0.012,0.188,0.024,0.289,0.036v1.98c-0.149-0.024-0.303-0.045-0.457-0.063c-0.154-0.018-0.308-0.027-0.455-0.027
			c-0.361,0-0.699,0.069-1.017,0.207c-0.315,0.138-0.593,0.342-0.828,0.612c-0.235,0.27-0.422,0.603-0.559,0.999
			s-0.205,0.852-0.205,1.368v4.428h-2.123L338.234,373.997L338.234,373.997z"/>
		<path d="M346.111,379.181c0,0.36,0.053,0.708,0.158,1.044c0.104,0.336,0.264,0.63,0.475,0.882s0.479,0.453,0.802,0.603
			c0.321,0.15,0.707,0.225,1.153,0.225c0.621,0,1.12-0.128,1.499-0.387c0.378-0.258,0.661-0.645,0.848-1.161h2.012
			c-0.111,0.504-0.305,0.954-0.578,1.35c-0.272,0.396-0.602,0.729-0.986,0.999c-0.384,0.27-0.815,0.474-1.294,0.612
			c-0.478,0.138-0.978,0.207-1.499,0.207c-0.758,0-1.428-0.12-2.012-0.36c-0.583-0.24-1.076-0.576-1.479-1.008
			c-0.402-0.432-0.708-0.948-0.912-1.548c-0.205-0.6-0.308-1.26-0.308-1.98c0-0.66,0.108-1.287,0.326-1.881
			c0.217-0.594,0.527-1.116,0.931-1.566s0.892-0.807,1.462-1.071c0.57-0.264,1.218-0.396,1.938-0.396
			c0.757,0,1.437,0.153,2.038,0.459c0.603,0.306,1.102,0.711,1.5,1.215c0.396,0.504,0.686,1.083,0.865,1.737
			c0.18,0.654,0.227,1.329,0.141,2.025H346.111L346.111,379.181z M351.064,377.831c-0.025-0.324-0.097-0.636-0.215-0.936
			c-0.117-0.3-0.279-0.561-0.484-0.783c-0.204-0.222-0.453-0.402-0.744-0.54c-0.292-0.138-0.616-0.207-0.978-0.207
			c-0.372,0-0.711,0.062-1.015,0.189c-0.306,0.126-0.565,0.3-0.782,0.522c-0.218,0.222-0.393,0.483-0.521,0.783
			c-0.129,0.3-0.202,0.624-0.214,0.972H351.064L351.064,377.831z"/>
		<path d="M363.875,383.303h-2.013v-1.26h-0.037c-0.284,0.54-0.7,0.927-1.247,1.161c-0.546,0.234-1.124,0.351-1.73,0.351
			c-0.758,0-1.418-0.129-1.983-0.387c-0.564-0.258-1.032-0.609-1.404-1.053c-0.373-0.444-0.652-0.969-0.839-1.575
			c-0.188-0.605-0.278-1.257-0.278-1.953c0-0.84,0.117-1.566,0.354-2.178c0.235-0.612,0.549-1.116,0.939-1.512
			c0.392-0.396,0.838-0.687,1.342-0.873c0.502-0.186,1.014-0.279,1.535-0.279c0.299,0,0.603,0.027,0.913,0.081
			c0.31,0.054,0.607,0.141,0.894,0.261s0.549,0.273,0.791,0.459s0.444,0.405,0.605,0.657h0.037v-4.752h2.123L363.875,383.303
			L363.875,383.303z M356.464,378.749c0,0.396,0.053,0.786,0.157,1.17c0.105,0.384,0.268,0.726,0.484,1.026
			c0.217,0.3,0.493,0.54,0.829,0.72c0.334,0.18,0.731,0.27,1.191,0.27c0.471,0,0.878-0.096,1.219-0.288
			c0.342-0.192,0.621-0.444,0.839-0.756c0.217-0.312,0.378-0.663,0.482-1.053c0.105-0.39,0.158-0.789,0.158-1.197
			c0-1.032-0.237-1.836-0.717-2.412c-0.478-0.576-1.126-0.864-1.945-0.864c-0.496,0-0.916,0.099-1.257,0.297
			c-0.342,0.198-0.621,0.457-0.838,0.774c-0.218,0.318-0.372,0.678-0.466,1.08C356.511,377.918,356.464,378.329,356.464,378.749z"/>
		<path d="M366.352,380.873h2.588v2.43c-0.012,0.744-0.248,1.368-0.707,1.872c-0.459,0.504-1.062,0.828-1.807,0.972v-1.098
			c0.41-0.096,0.717-0.315,0.922-0.657c0.205-0.342,0.301-0.705,0.289-1.089h-1.285V380.873z"/>
		<path d="M239.452,392.051h2.123v1.944h-2.123V392.051z M239.452,395.597h2.123v9.306h-2.123V395.597z"/>
		<path d="M242.916,395.597h1.602v-2.79h2.123v2.79h1.918v1.53h-1.918v4.968c0,0.216,0.009,0.402,0.028,0.559
			c0.019,0.155,0.062,0.289,0.13,0.396c0.068,0.107,0.171,0.189,0.308,0.243s0.322,0.081,0.56,0.081c0.148,0,0.298-0.003,0.446-0.01
			c0.149-0.006,0.299-0.026,0.447-0.062v1.584c-0.235,0.023-0.465,0.048-0.688,0.072c-0.225,0.023-0.453,0.035-0.689,0.035
			c-0.559,0-1.009-0.051-1.35-0.152c-0.341-0.101-0.608-0.252-0.801-0.45c-0.193-0.197-0.323-0.445-0.392-0.747
			c-0.067-0.299-0.108-0.642-0.121-1.024v-5.49h-1.602L242.916,395.597L242.916,395.597z"/>
		<path d="M251.741,400.781c0,0.358,0.053,0.708,0.157,1.043c0.105,0.337,0.265,0.631,0.476,0.883s0.478,0.453,0.801,0.604
			c0.322,0.149,0.708,0.226,1.154,0.226c0.621,0,1.12-0.129,1.499-0.387c0.378-0.259,0.66-0.646,0.847-1.162h2.011
			c-0.112,0.504-0.305,0.955-0.578,1.351c-0.272,0.396-0.602,0.729-0.986,0.999c-0.386,0.271-0.816,0.476-1.294,0.611
			c-0.479,0.139-0.979,0.207-1.499,0.207c-0.758,0-1.429-0.119-2.012-0.359s-1.077-0.576-1.479-1.008
			c-0.404-0.432-0.708-0.948-0.913-1.549s-0.307-1.261-0.307-1.979c0-0.659,0.107-1.287,0.325-1.881
			c0.218-0.595,0.527-1.116,0.932-1.566c0.402-0.45,0.891-0.807,1.462-1.07c0.57-0.264,1.216-0.396,1.937-0.396
			c0.757,0,1.438,0.153,2.039,0.459c0.603,0.306,1.103,0.71,1.499,1.216c0.397,0.504,0.687,1.081,0.866,1.735
			s0.226,1.329,0.14,2.025L251.741,400.781L251.741,400.781z M256.694,399.431c-0.024-0.322-0.096-0.636-0.214-0.937
			c-0.118-0.299-0.278-0.562-0.483-0.782c-0.205-0.222-0.453-0.401-0.745-0.54c-0.292-0.138-0.618-0.207-0.979-0.207
			c-0.373,0-0.711,0.062-1.015,0.189c-0.304,0.125-0.565,0.3-0.782,0.521c-0.218,0.224-0.391,0.483-0.521,0.783
			s-0.202,0.624-0.214,0.972L256.694,399.431L256.694,399.431z"/>
		<path d="M260.438,395.597h1.993v1.799h0.037c0.062-0.252,0.183-0.498,0.363-0.737c0.18-0.24,0.396-0.459,0.65-0.657
			s0.537-0.357,0.848-0.477s0.627-0.18,0.949-0.18c0.249,0,0.419,0.006,0.513,0.018c0.093,0.012,0.188,0.024,0.289,0.036v1.98
			c-0.149-0.022-0.302-0.045-0.456-0.062c-0.155-0.02-0.308-0.027-0.456-0.027c-0.36,0-0.699,0.068-1.016,0.207
			c-0.315,0.138-0.593,0.342-0.829,0.611c-0.235,0.271-0.422,0.604-0.559,1c-0.137,0.396-0.205,0.852-0.205,1.366v4.429h-2.123
			L260.438,395.597L260.438,395.597z"/>
		<path d="M275.055,402.833c0,0.252,0.034,0.432,0.104,0.54c0.067,0.107,0.2,0.162,0.399,0.162c0.062,0,0.137,0,0.224,0
			c0.088,0,0.187-0.012,0.299-0.036v1.422c-0.074,0.024-0.171,0.051-0.289,0.081c-0.118,0.029-0.239,0.057-0.363,0.081
			s-0.248,0.042-0.372,0.054c-0.125,0.013-0.229,0.019-0.317,0.019c-0.435,0-0.794-0.084-1.079-0.252
			c-0.286-0.168-0.473-0.461-0.56-0.882c-0.422,0.396-0.939,0.685-1.555,0.863c-0.614,0.18-1.208,0.271-1.778,0.271
			c-0.435,0-0.85-0.058-1.248-0.17c-0.396-0.114-0.748-0.282-1.052-0.505c-0.305-0.223-0.546-0.504-0.727-0.847
			c-0.181-0.342-0.271-0.741-0.271-1.196c0-0.575,0.109-1.045,0.326-1.403c0.217-0.36,0.502-0.644,0.855-0.847
			c0.354-0.204,0.751-0.352,1.192-0.44c0.44-0.09,0.884-0.159,1.331-0.207c0.385-0.072,0.751-0.123,1.099-0.153
			c0.349-0.03,0.655-0.081,0.922-0.152c0.268-0.072,0.479-0.184,0.634-0.332c0.154-0.15,0.231-0.375,0.231-0.677
			c0-0.264-0.064-0.479-0.195-0.647c-0.13-0.168-0.292-0.297-0.483-0.388c-0.192-0.09-0.407-0.148-0.643-0.18
			c-0.235-0.03-0.459-0.045-0.67-0.045c-0.596,0-1.086,0.12-1.471,0.359s-0.602,0.612-0.652,1.116h-2.123
			c0.037-0.601,0.187-1.099,0.447-1.494c0.261-0.396,0.593-0.714,0.996-0.955c0.403-0.24,0.86-0.408,1.369-0.504
			c0.509-0.096,1.03-0.144,1.563-0.144c0.473,0,0.938,0.048,1.396,0.144c0.459,0.096,0.872,0.252,1.238,0.468
			c0.365,0.216,0.661,0.495,0.884,0.837c0.224,0.342,0.335,0.759,0.335,1.251v4.788H275.055z M272.932,400.24
			c-0.323,0.205-0.72,0.328-1.19,0.369c-0.473,0.043-0.944,0.104-1.416,0.188c-0.224,0.036-0.44,0.088-0.651,0.152
			c-0.211,0.065-0.397,0.156-0.559,0.271c-0.162,0.114-0.289,0.266-0.383,0.45c-0.093,0.187-0.14,0.411-0.14,0.675
			c0,0.229,0.068,0.421,0.205,0.576c0.137,0.156,0.301,0.278,0.494,0.369c0.191,0.09,0.402,0.153,0.633,0.188
			c0.229,0.036,0.438,0.056,0.624,0.056c0.236,0,0.49-0.03,0.764-0.09c0.272-0.062,0.53-0.162,0.772-0.308
			c0.242-0.145,0.443-0.326,0.604-0.549c0.161-0.222,0.242-0.495,0.242-0.818V400.24z"/>
		<path d="M276.376,395.597h1.602v-2.79h2.123v2.79h1.918v1.53h-1.918v4.968c0,0.216,0.009,0.402,0.028,0.559
			c0.019,0.155,0.062,0.289,0.13,0.396c0.068,0.107,0.171,0.189,0.308,0.243s0.322,0.081,0.56,0.081c0.148,0,0.298-0.003,0.446-0.01
			c0.149-0.006,0.299-0.026,0.447-0.062v1.584c-0.235,0.023-0.465,0.048-0.688,0.072c-0.225,0.023-0.453,0.035-0.689,0.035
			c-0.559,0-1.009-0.051-1.35-0.152c-0.341-0.101-0.608-0.252-0.801-0.45c-0.193-0.197-0.323-0.445-0.392-0.747
			c-0.067-0.299-0.108-0.642-0.121-1.024v-5.49h-1.602L276.376,395.597L276.376,395.597z"/>
		<path d="M283.602,392.051h2.123v1.944h-2.123V392.051z M283.602,395.597h2.123v9.306h-2.123V395.597z"/>
		<path d="M287.083,395.597h2.309l2.439,7.146h0.037l2.346-7.146h2.197l-3.445,9.306h-2.383L287.083,395.597z"/>
		<path d="M299.354,400.781c0,0.358,0.054,0.708,0.158,1.043c0.105,0.337,0.264,0.631,0.475,0.883s0.479,0.453,0.802,0.604
			c0.321,0.149,0.708,0.226,1.153,0.226c0.621,0,1.12-0.129,1.499-0.387c0.378-0.259,0.661-0.646,0.848-1.162h2.011
			c-0.112,0.504-0.305,0.955-0.578,1.351c-0.273,0.396-0.602,0.729-0.987,0.999c-0.385,0.271-0.815,0.476-1.294,0.611
			c-0.478,0.139-0.978,0.207-1.499,0.207c-0.757,0-1.428-0.119-2.011-0.359s-1.077-0.576-1.48-1.008s-0.708-0.948-0.912-1.549
			c-0.205-0.601-0.308-1.261-0.308-1.979c0-0.659,0.108-1.287,0.326-1.881c0.217-0.595,0.527-1.116,0.931-1.566
			c0.403-0.45,0.892-0.807,1.462-1.07c0.571-0.264,1.217-0.396,1.938-0.396c0.757,0,1.437,0.153,2.039,0.459
			c0.602,0.306,1.102,0.71,1.499,1.216c0.396,0.504,0.686,1.081,0.866,1.735c0.18,0.654,0.226,1.329,0.14,2.025L299.354,400.781
			L299.354,400.781z M304.308,399.431c-0.024-0.322-0.096-0.636-0.214-0.937c-0.118-0.299-0.279-0.562-0.484-0.782
			c-0.205-0.222-0.452-0.401-0.744-0.54c-0.292-0.138-0.618-0.207-0.979-0.207c-0.373,0-0.711,0.062-1.015,0.189
			c-0.305,0.125-0.565,0.3-0.782,0.521c-0.218,0.224-0.391,0.483-0.521,0.783c-0.13,0.3-0.201,0.624-0.214,0.972L304.308,399.431
			L304.308,399.431z"/>
		<path d="M322.295,404.902h-2.012v-1.261h-0.037c-0.285,0.54-0.7,0.929-1.246,1.161c-0.548,0.233-1.124,0.352-1.732,0.352
			c-0.758,0-1.418-0.129-1.982-0.388c-0.564-0.258-1.032-0.608-1.405-1.053s-0.652-0.969-0.838-1.575
			c-0.188-0.604-0.279-1.257-0.279-1.951c0-0.841,0.117-1.566,0.354-2.18c0.237-0.612,0.55-1.115,0.94-1.512
			c0.391-0.396,0.838-0.687,1.341-0.873s1.015-0.279,1.536-0.279c0.298,0,0.603,0.027,0.913,0.081
			c0.31,0.054,0.606,0.141,0.893,0.261s0.55,0.273,0.792,0.459s0.444,0.405,0.604,0.658h0.038v-4.753h2.122L322.295,404.902
			L322.295,404.902z M314.885,400.349c0,0.396,0.053,0.786,0.158,1.171c0.104,0.384,0.267,0.727,0.483,1.025
			c0.217,0.3,0.492,0.54,0.828,0.72c0.335,0.182,0.732,0.271,1.191,0.271c0.472,0,0.879-0.096,1.22-0.288s0.62-0.444,0.839-0.757
			c0.217-0.312,0.378-0.662,0.483-1.054c0.104-0.39,0.157-0.788,0.157-1.196c0-1.031-0.238-1.836-0.717-2.412
			c-0.478-0.575-1.126-0.863-1.946-0.863c-0.495,0-0.914,0.101-1.256,0.297c-0.342,0.198-0.621,0.457-0.838,0.773
			c-0.219,0.317-0.373,0.679-0.467,1.08C314.932,399.518,314.885,399.929,314.885,400.349z"/>
		<path d="M326.262,400.781c0,0.358,0.053,0.708,0.158,1.043c0.104,0.337,0.264,0.631,0.475,0.883s0.478,0.453,0.801,0.604
			c0.322,0.149,0.707,0.226,1.154,0.226c0.621,0,1.12-0.129,1.499-0.387c0.378-0.259,0.661-0.646,0.847-1.162h2.012
			c-0.11,0.504-0.305,0.955-0.577,1.351c-0.272,0.396-0.603,0.729-0.986,0.999c-0.384,0.271-0.816,0.476-1.294,0.611
			c-0.479,0.139-0.979,0.207-1.499,0.207c-0.758,0-1.428-0.119-2.012-0.359c-0.583-0.24-1.076-0.576-1.479-1.008
			s-0.708-0.948-0.913-1.549s-0.307-1.261-0.307-1.979c0-0.659,0.107-1.287,0.326-1.881c0.217-0.595,0.526-1.116,0.931-1.566
			c0.403-0.45,0.891-0.807,1.462-1.07c0.57-0.264,1.217-0.396,1.938-0.396c0.757,0,1.437,0.153,2.037,0.459
			c0.604,0.306,1.103,0.71,1.5,1.216c0.396,0.504,0.687,1.081,0.865,1.735s0.228,1.329,0.142,2.025L326.262,400.781L326.262,400.781
			z M331.215,399.431c-0.025-0.322-0.098-0.636-0.215-0.937c-0.117-0.299-0.279-0.562-0.484-0.782
			c-0.204-0.222-0.453-0.401-0.744-0.54c-0.292-0.138-0.617-0.207-0.978-0.207c-0.372,0-0.712,0.062-1.016,0.189
			c-0.305,0.125-0.564,0.3-0.782,0.521c-0.218,0.224-0.392,0.483-0.521,0.783s-0.202,0.624-0.214,0.972L331.215,399.431
			L331.215,399.431z"/>
		<path d="M336.559,401.915c0.062,0.601,0.298,1.021,0.707,1.26c0.41,0.24,0.899,0.36,1.472,0.36c0.198,0,0.425-0.017,0.681-0.045
			c0.254-0.03,0.492-0.088,0.717-0.172c0.224-0.084,0.405-0.207,0.55-0.369c0.143-0.162,0.207-0.375,0.195-0.64
			c-0.014-0.264-0.112-0.479-0.3-0.647c-0.186-0.167-0.425-0.303-0.717-0.404c-0.291-0.102-0.623-0.188-0.996-0.261
			c-0.372-0.072-0.751-0.149-1.136-0.234c-0.397-0.083-0.778-0.186-1.146-0.306c-0.365-0.12-0.695-0.282-0.986-0.486
			c-0.292-0.203-0.525-0.465-0.698-0.782c-0.175-0.317-0.261-0.712-0.261-1.18c0-0.504,0.127-0.927,0.382-1.269
			c0.254-0.342,0.577-0.618,0.968-0.828c0.392-0.209,0.826-0.357,1.305-0.441c0.478-0.083,0.935-0.126,1.367-0.126
			c0.497,0,0.973,0.051,1.426,0.153c0.452,0.102,0.861,0.267,1.229,0.495c0.365,0.228,0.67,0.524,0.912,0.891
			s0.395,0.809,0.456,1.323h-2.216c-0.101-0.492-0.332-0.822-0.698-0.99s-0.785-0.252-1.257-0.252c-0.148,0-0.326,0.012-0.531,0.036
			c-0.204,0.024-0.396,0.069-0.576,0.135c-0.181,0.066-0.333,0.162-0.457,0.288s-0.186,0.291-0.186,0.495
			c0,0.252,0.09,0.456,0.27,0.612c0.181,0.156,0.416,0.285,0.707,0.387c0.292,0.102,0.625,0.189,0.997,0.261
			c0.372,0.072,0.757,0.15,1.154,0.233c0.385,0.085,0.764,0.188,1.136,0.307c0.373,0.12,0.705,0.282,0.996,0.486
			c0.292,0.204,0.527,0.462,0.708,0.772c0.18,0.312,0.271,0.696,0.271,1.152c0,0.553-0.131,1.021-0.392,1.404
			s-0.599,0.694-1.015,0.936s-0.879,0.414-1.389,0.521c-0.509,0.108-1.012,0.162-1.509,0.162c-0.606,0-1.17-0.065-1.685-0.197
			c-0.516-0.133-0.962-0.333-1.341-0.604c-0.38-0.27-0.678-0.604-0.895-1.008c-0.218-0.401-0.333-0.879-0.345-1.431h2.125V401.915z"
			/>
		<path d="M344.678,392.051h2.122v1.944h-2.122V392.051z M344.678,395.597h2.122v9.306h-2.122V395.597z"/>
		<path d="M358.01,404.417c0,1.403-0.406,2.45-1.221,3.141c-0.813,0.691-1.982,1.035-3.511,1.035c-0.482,0-0.971-0.048-1.461-0.144
			c-0.49-0.098-0.938-0.259-1.341-0.486c-0.403-0.229-0.741-0.528-1.015-0.9c-0.273-0.37-0.437-0.827-0.484-1.366h2.123
			c0.062,0.287,0.168,0.521,0.315,0.7c0.148,0.181,0.326,0.321,0.531,0.425c0.204,0.102,0.432,0.168,0.681,0.196
			c0.247,0.03,0.508,0.045,0.78,0.045c0.857,0,1.483-0.202,1.881-0.61c0.396-0.408,0.597-0.996,0.597-1.765v-1.423h-0.037
			c-0.298,0.518-0.705,0.918-1.22,1.206c-0.516,0.288-1.071,0.433-1.667,0.433c-0.771,0-1.425-0.129-1.964-0.388
			c-0.54-0.258-0.987-0.61-1.342-1.062c-0.354-0.449-0.61-0.969-0.771-1.558c-0.161-0.588-0.242-1.217-0.242-1.89
			c0-0.624,0.099-1.218,0.298-1.782c0.198-0.562,0.484-1.059,0.856-1.484c0.372-0.426,0.829-0.765,1.367-1.017
			c0.541-0.252,1.152-0.378,1.835-0.378c0.608,0,1.168,0.124,1.677,0.369c0.509,0.246,0.898,0.633,1.173,1.161h0.037v-1.278h2.123
			L358.01,404.417L358.01,404.417z M353.299,403.283c0.471,0,0.871-0.094,1.201-0.279c0.327-0.186,0.596-0.432,0.801-0.738
			c0.205-0.306,0.354-0.653,0.445-1.044c0.093-0.39,0.141-0.781,0.141-1.179c0-0.396-0.049-0.78-0.148-1.152
			c-0.1-0.371-0.252-0.7-0.457-0.989c-0.204-0.287-0.471-0.517-0.801-0.685c-0.328-0.168-0.723-0.252-1.182-0.252
			c-0.474,0-0.869,0.096-1.191,0.288c-0.323,0.192-0.584,0.44-0.783,0.747c-0.197,0.306-0.341,0.654-0.428,1.044
			s-0.131,0.776-0.131,1.161c0,0.384,0.05,0.759,0.148,1.125c0.1,0.365,0.251,0.693,0.456,0.979
			c0.205,0.288,0.467,0.522,0.782,0.702C352.471,403.193,352.852,403.283,353.299,403.283z"/>
		<path d="M360.15,395.597h2.012v1.368l0.037,0.036c0.322-0.516,0.744-0.921,1.267-1.215c0.521-0.294,1.1-0.441,1.731-0.441
			c1.056,0,1.887,0.264,2.495,0.792c0.608,0.528,0.913,1.32,0.913,2.375v6.391h-2.123v-5.851c-0.025-0.731-0.187-1.263-0.484-1.593
			c-0.299-0.33-0.764-0.495-1.396-0.495c-0.36,0-0.684,0.062-0.969,0.189c-0.285,0.125-0.527,0.3-0.728,0.521
			c-0.198,0.224-0.354,0.483-0.465,0.783s-0.168,0.618-0.168,0.953v5.49h-2.123V395.597z"/>
		<path d="M273.426,417.197h2.011v1.26h0.037c0.298-0.54,0.714-0.928,1.248-1.161c0.533-0.233,1.111-0.351,1.731-0.351
			c0.757,0,1.418,0.129,1.982,0.387s1.033,0.611,1.406,1.062c0.372,0.449,0.651,0.976,0.838,1.574
			c0.186,0.602,0.279,1.242,0.279,1.926c0,0.625-0.084,1.23-0.251,1.818s-0.422,1.107-0.765,1.557
			c-0.341,0.45-0.771,0.812-1.294,1.08c-0.521,0.271-1.136,0.405-1.843,0.405c-0.311,0-0.621-0.026-0.931-0.081
			c-0.312-0.054-0.608-0.141-0.895-0.261s-0.549-0.272-0.791-0.459c-0.242-0.188-0.443-0.405-0.604-0.657h-0.037v4.646h-2.123
			V417.197L273.426,417.197z M280.836,421.859c0-0.42-0.057-0.828-0.167-1.226c-0.111-0.396-0.279-0.747-0.502-1.053
			c-0.225-0.307-0.503-0.552-0.838-0.738c-0.335-0.186-0.721-0.278-1.154-0.278c-0.895,0-1.567,0.301-2.021,0.899
			c-0.453,0.599-0.68,1.398-0.68,2.396c0,0.468,0.06,0.901,0.177,1.305c0.118,0.402,0.294,0.747,0.531,1.035
			c0.235,0.287,0.519,0.516,0.847,0.684c0.329,0.168,0.71,0.252,1.146,0.252c0.484,0,0.894-0.096,1.229-0.287
			s0.611-0.44,0.829-0.748c0.218-0.306,0.373-0.653,0.465-1.043C280.79,422.666,280.836,422.268,280.836,421.859z"/>
		<path d="M284.747,417.197h1.993v1.8h0.036c0.062-0.252,0.184-0.498,0.363-0.738c0.18-0.239,0.397-0.459,0.651-0.657
			c0.254-0.196,0.537-0.355,0.847-0.477c0.312-0.12,0.627-0.18,0.95-0.18c0.249,0,0.419,0.006,0.512,0.018s0.189,0.024,0.289,0.036
			v1.979c-0.148-0.022-0.301-0.045-0.456-0.062c-0.155-0.018-0.307-0.027-0.456-0.027c-0.359,0-0.699,0.069-1.015,0.207
			c-0.316,0.14-0.593,0.342-0.829,0.612c-0.236,0.27-0.422,0.603-0.559,0.999c-0.138,0.396-0.205,0.852-0.205,1.367v4.429h-2.123
			L284.747,417.197L284.747,417.197z"/>
		<path d="M295.379,426.755c-0.771,0-1.456-0.123-2.059-0.369c-0.602-0.245-1.11-0.585-1.526-1.017s-0.732-0.948-0.95-1.549
			c-0.217-0.601-0.326-1.261-0.326-1.979c0-0.708,0.108-1.362,0.326-1.962s0.534-1.116,0.95-1.548
			c0.416-0.433,0.925-0.771,1.526-1.017c0.603-0.246,1.288-0.369,2.059-0.369c0.77,0,1.456,0.123,2.058,0.369
			c0.603,0.245,1.111,0.584,1.527,1.017c0.416,0.432,0.731,0.948,0.95,1.548c0.218,0.6,0.326,1.254,0.326,1.962
			c0,0.72-0.109,1.38-0.326,1.979c-0.218,0.601-0.534,1.117-0.95,1.549s-0.925,0.771-1.527,1.017S296.148,426.755,295.379,426.755z
			 M295.379,425.135c0.472,0,0.881-0.096,1.229-0.287c0.349-0.191,0.634-0.443,0.856-0.757c0.224-0.312,0.388-0.663,0.494-1.053
			c0.105-0.39,0.157-0.789,0.157-1.197c0-0.396-0.053-0.792-0.157-1.188c-0.105-0.396-0.271-0.746-0.494-1.054
			c-0.223-0.306-0.509-0.555-0.856-0.745c-0.348-0.192-0.757-0.289-1.229-0.289c-0.473,0-0.881,0.097-1.229,0.289
			c-0.348,0.19-0.633,0.439-0.855,0.745c-0.225,0.308-0.389,0.657-0.494,1.054c-0.105,0.396-0.158,0.793-0.158,1.188
			c0,0.408,0.053,0.809,0.158,1.197c0.104,0.389,0.27,0.741,0.494,1.053c0.224,0.312,0.509,0.564,0.855,0.757
			C294.498,425.039,294.907,425.135,295.379,425.135z"/>
		<path d="M308.506,420.311c-0.086-0.575-0.325-1.01-0.718-1.305c-0.391-0.294-0.884-0.44-1.479-0.44
			c-0.272,0-0.564,0.045-0.875,0.135c-0.311,0.091-0.596,0.259-0.855,0.505c-0.261,0.246-0.479,0.588-0.652,1.026
			c-0.174,0.438-0.261,1.011-0.261,1.719c0,0.384,0.047,0.768,0.14,1.151c0.093,0.385,0.242,0.727,0.447,1.025
			c0.205,0.301,0.469,0.543,0.792,0.729s0.714,0.278,1.173,0.278c0.621,0,1.132-0.186,1.536-0.558
			c0.403-0.372,0.654-0.895,0.754-1.566h2.123c-0.198,1.212-0.675,2.141-1.425,2.781c-0.752,0.642-1.748,0.963-2.988,0.963
			c-0.757,0-1.425-0.123-2.002-0.369c-0.577-0.245-1.064-0.581-1.461-1.008c-0.397-0.426-0.699-0.933-0.903-1.521
			c-0.205-0.589-0.307-1.226-0.307-1.908c0-0.696,0.099-1.351,0.298-1.963c0.198-0.611,0.496-1.144,0.894-1.593
			c0.397-0.45,0.892-0.805,1.48-1.062c0.589-0.258,1.282-0.387,2.076-0.387c0.559,0,1.089,0.067,1.592,0.207
			c0.503,0.138,0.948,0.345,1.341,0.621c0.391,0.274,0.71,0.623,0.959,1.043c0.248,0.421,0.396,0.918,0.446,1.493L308.506,420.311
			L308.506,420.311z"/>
		<path d="M314.018,422.381c0,0.359,0.053,0.709,0.158,1.044c0.104,0.337,0.264,0.63,0.476,0.882
			c0.211,0.252,0.479,0.453,0.801,0.604c0.322,0.149,0.708,0.225,1.154,0.225c0.62,0,1.12-0.129,1.499-0.387
			s0.661-0.645,0.848-1.161h2.012c-0.112,0.504-0.306,0.954-0.577,1.352c-0.273,0.396-0.604,0.729-0.987,0.998
			c-0.385,0.271-0.816,0.475-1.294,0.611c-0.479,0.139-0.978,0.207-1.499,0.207c-0.757,0-1.428-0.12-2.011-0.359
			c-0.584-0.24-1.078-0.576-1.48-1.009c-0.403-0.432-0.708-0.946-0.912-1.548c-0.204-0.6-0.308-1.26-0.308-1.979
			c0-0.66,0.108-1.287,0.325-1.881c0.218-0.596,0.526-1.117,0.932-1.566c0.403-0.45,0.892-0.807,1.462-1.071
			c0.571-0.264,1.216-0.396,1.938-0.396c0.757,0,1.437,0.151,2.039,0.459c0.602,0.306,1.102,0.711,1.498,1.215
			c0.397,0.504,0.687,1.083,0.866,1.736c0.181,0.653,0.227,1.329,0.14,2.024L314.018,422.381L314.018,422.381z M318.971,421.031
			c-0.024-0.324-0.096-0.638-0.213-0.938c-0.119-0.3-0.279-0.561-0.484-0.782c-0.205-0.223-0.453-0.401-0.745-0.54
			c-0.292-0.138-0.618-0.207-0.978-0.207c-0.373,0-0.711,0.062-1.017,0.188c-0.304,0.126-0.563,0.301-0.78,0.521
			c-0.219,0.223-0.392,0.483-0.521,0.782c-0.131,0.302-0.202,0.625-0.215,0.974L318.971,421.031L318.971,421.031z"/>
		<path d="M324.316,423.516c0.062,0.601,0.297,1.021,0.707,1.261c0.41,0.239,0.9,0.358,1.471,0.358c0.199,0,0.427-0.015,0.681-0.045
			c0.254-0.029,0.494-0.087,0.717-0.171c0.224-0.084,0.406-0.207,0.55-0.369s0.208-0.375,0.195-0.639
			c-0.014-0.265-0.112-0.479-0.298-0.648c-0.187-0.167-0.427-0.303-0.718-0.404c-0.292-0.103-0.624-0.188-0.995-0.261
			c-0.373-0.071-0.753-0.149-1.138-0.233c-0.396-0.084-0.777-0.187-1.145-0.308c-0.366-0.119-0.695-0.28-0.986-0.485
			c-0.293-0.203-0.524-0.465-0.699-0.782c-0.174-0.317-0.26-0.711-0.26-1.179c0-0.504,0.127-0.929,0.381-1.271
			s0.578-0.617,0.969-0.828c0.392-0.209,0.825-0.356,1.304-0.44c0.479-0.083,0.935-0.125,1.369-0.125
			c0.496,0,0.971,0.051,1.424,0.151c0.453,0.104,0.863,0.269,1.229,0.495c0.366,0.228,0.671,0.525,0.913,0.893
			c0.242,0.364,0.395,0.807,0.455,1.321h-2.215c-0.1-0.491-0.332-0.82-0.699-0.989c-0.365-0.168-0.785-0.252-1.256-0.252
			c-0.149,0-0.326,0.013-0.531,0.036s-0.396,0.068-0.577,0.136c-0.181,0.065-0.333,0.162-0.456,0.287
			c-0.125,0.127-0.187,0.29-0.187,0.495c0,0.252,0.09,0.455,0.271,0.611s0.416,0.285,0.707,0.387
			c0.291,0.104,0.624,0.189,0.996,0.263c0.373,0.071,0.759,0.149,1.154,0.232c0.385,0.085,0.764,0.188,1.137,0.307
			c0.372,0.12,0.704,0.282,0.996,0.485c0.291,0.205,0.527,0.463,0.707,0.774c0.181,0.311,0.271,0.696,0.271,1.15
			c0,0.554-0.13,1.021-0.393,1.404c-0.26,0.385-0.599,0.696-1.015,0.937c-0.416,0.239-0.878,0.414-1.388,0.521
			c-0.509,0.108-1.013,0.162-1.509,0.162c-0.607,0-1.17-0.065-1.686-0.198c-0.515-0.132-0.961-0.332-1.34-0.603
			c-0.379-0.271-0.678-0.606-0.896-1.009c-0.217-0.401-0.332-0.88-0.344-1.431h2.125V423.516z"/>
		<path d="M333.98,423.516c0.062,0.601,0.297,1.021,0.707,1.261c0.41,0.239,0.9,0.358,1.471,0.358c0.199,0,0.427-0.015,0.681-0.045
			c0.254-0.029,0.493-0.087,0.717-0.171s0.406-0.207,0.55-0.369c0.143-0.162,0.208-0.375,0.195-0.639
			c-0.014-0.265-0.112-0.479-0.298-0.648c-0.187-0.167-0.427-0.303-0.718-0.404c-0.292-0.103-0.624-0.188-0.996-0.261
			c-0.372-0.071-0.752-0.149-1.137-0.233c-0.396-0.084-0.778-0.187-1.145-0.308c-0.366-0.119-0.695-0.28-0.986-0.485
			c-0.293-0.203-0.525-0.465-0.699-0.782s-0.26-0.711-0.26-1.179c0-0.504,0.127-0.929,0.381-1.271s0.578-0.617,0.969-0.828
			c0.392-0.209,0.825-0.356,1.304-0.44c0.479-0.083,0.935-0.125,1.369-0.125c0.495,0,0.971,0.051,1.424,0.151
			c0.453,0.104,0.862,0.269,1.229,0.495c0.366,0.228,0.671,0.525,0.913,0.893c0.242,0.364,0.395,0.807,0.455,1.321h-2.215
			c-0.101-0.491-0.332-0.82-0.699-0.989c-0.365-0.168-0.785-0.252-1.256-0.252c-0.149,0-0.326,0.013-0.531,0.036
			s-0.396,0.068-0.577,0.136c-0.181,0.065-0.333,0.162-0.456,0.287c-0.125,0.127-0.187,0.29-0.187,0.495
			c0,0.252,0.09,0.455,0.271,0.611s0.416,0.285,0.707,0.387c0.291,0.104,0.624,0.189,0.996,0.263
			c0.373,0.071,0.758,0.149,1.154,0.232c0.385,0.085,0.764,0.188,1.137,0.307c0.372,0.12,0.704,0.282,0.996,0.485
			c0.291,0.205,0.527,0.463,0.707,0.774c0.18,0.311,0.271,0.696,0.271,1.15c0,0.554-0.13,1.021-0.393,1.404
			c-0.26,0.385-0.599,0.696-1.015,0.937c-0.416,0.239-0.878,0.414-1.388,0.521c-0.509,0.108-1.013,0.162-1.509,0.162
			c-0.607,0-1.17-0.065-1.686-0.198c-0.516-0.132-0.961-0.332-1.34-0.603c-0.379-0.271-0.679-0.606-0.896-1.009
			c-0.217-0.401-0.332-0.88-0.344-1.431h2.125V423.516z"/>
	</g>
</g>
<g id="use">
	<g>
		<path fill="#FFFFFF" d="M174.868,392.298c0.811,0.842,1.266,2.051,1.369,3.625c0.104,1.596-0.187,2.857-0.873,3.782
			c-0.688,0.924-1.808,1.438-3.361,1.54l-7.089,0.467l-0.171-2.593l7.089-0.467c0.31-0.021,0.609-0.068,0.904-0.144
			c0.294-0.075,0.551-0.208,0.768-0.398c0.218-0.19,0.388-0.448,0.511-0.771s0.166-0.75,0.132-1.278
			c-0.061-0.925-0.302-1.55-0.726-1.876c-0.422-0.326-1.06-0.461-1.91-0.405l-7.088,0.467l-0.172-2.593l7.089-0.467
			C172.884,391.085,174.06,391.455,174.868,392.298z"/>
		<path fill="#FFFFFF" d="M172.882,386.852c0.271-0.137,0.492-0.321,0.662-0.555c0.172-0.233,0.301-0.508,0.389-0.827
			c0.088-0.317,0.137-0.647,0.146-0.99c0.006-0.231-0.007-0.481-0.037-0.746c-0.03-0.266-0.097-0.516-0.197-0.75
			s-0.242-0.431-0.426-0.59c-0.183-0.159-0.418-0.242-0.705-0.25c-0.311-0.008-0.562,0.088-0.76,0.287
			c-0.197,0.2-0.363,0.463-0.5,0.791c-0.137,0.328-0.258,0.701-0.363,1.117c-0.107,0.417-0.225,0.839-0.353,1.266
			c-0.117,0.438-0.26,0.866-0.425,1.281c-0.165,0.415-0.374,0.785-0.628,1.11c-0.254,0.325-0.565,0.584-0.938,0.779
			c-0.373,0.196-0.82,0.287-1.345,0.273c-0.586-0.015-1.092-0.157-1.518-0.427c-0.425-0.27-0.776-0.618-1.055-1.045
			c-0.277-0.426-0.479-0.906-0.604-1.438c-0.125-0.532-0.182-1.064-0.168-1.594c0.017-0.617,0.097-1.208,0.244-1.773
			s0.375-1.064,0.686-1.499c0.31-0.433,0.699-0.774,1.171-1.022c0.47-0.248,1.034-0.363,1.696-0.347l-0.062,2.516
			c-0.341,0.013-0.626,0.081-0.854,0.203c-0.228,0.121-0.408,0.284-0.541,0.491c-0.133,0.206-0.229,0.444-0.289,0.712
			c-0.061,0.27-0.095,0.564-0.104,0.883c-0.004,0.21,0.012,0.42,0.049,0.63c0.038,0.211,0.107,0.403,0.209,0.577
			c0.104,0.174,0.233,0.318,0.391,0.432c0.156,0.115,0.357,0.174,0.604,0.18c0.225,0.005,0.406-0.034,0.547-0.119
			s0.273-0.255,0.396-0.512c0.124-0.256,0.25-0.611,0.379-1.067c0.129-0.454,0.293-1.049,0.492-1.784
			c0.049-0.22,0.134-0.523,0.256-0.913c0.121-0.389,0.31-0.773,0.563-1.153c0.255-0.38,0.592-0.706,1.009-0.977
			s0.946-0.399,1.587-0.383c0.521,0.013,1.005,0.13,1.447,0.351c0.442,0.221,0.82,0.542,1.137,0.963
			c0.314,0.422,0.556,0.941,0.722,1.558c0.166,0.617,0.237,1.328,0.219,2.133c-0.016,0.651-0.109,1.28-0.279,1.889
			c-0.17,0.608-0.426,1.143-0.768,1.604c-0.343,0.46-0.773,0.822-1.292,1.085c-0.52,0.263-1.13,0.38-1.833,0.352l0.062-2.515
			C172.286,387.052,172.612,386.988,172.882,386.852z"/>
		<path fill="#FFFFFF" d="M165.599,368.373l2.101,0.229l-0.678,6.204l2.435,0.265l0.62-5.693l1.94,0.212l-0.621,5.693l2.783,0.304
			l0.691-6.335l2.1,0.229l-0.973,8.917l-11.356-1.238L165.599,368.373z"/>
	</g>
</g>
</svg>
