<?xml version="1.0" encoding="utf-8"?>
<!-- Generator: Adobe Illustrator 16.0.0, SVG Export Plug-In . SVG Version: 6.00 Build 0)  -->
<!DOCTYPE svg PUBLIC "-//W3C//DTD SVG 1.1//EN" "http://www.w3.org/Graphics/SVG/1.1/DTD/svg11.dtd">
<svg version="1.1" id="Layer_1" xmlns="http://www.w3.org/2000/svg" xmlns:xlink="http://www.w3.org/1999/xlink" x="0px" y="0px"
	 width="327.846px" height="327.088px" viewBox="20 11.25 327.846 327.088" enable-background="new 20 11.25 327.846 327.088"
	 xml:space="preserve">
<g id="Layer_1_1_" display="none">
	<path display="inline" fill="#406FB6" d="M347.201,190.89c-3.354,37.885-19.582,72.067-44.281,98.149l-43.432-15.106l8.27-23.08
		c17.521-19.795,28.164-45.817,28.164-74.332c0-29.809-11.627-56.897-30.588-76.989l22.021,0.165l7.108-44.579
		c29.427,26.913,49.015,64.406,52.736,106.459l20.646,14.656L347.201,190.89z"/>
	<path display="inline" fill="#CBCBCA" d="M109.113,91.662c19.827-17.669,45.962-28.41,74.608-28.41
		c28.647,0,53.384,10.211,73.212,27.88l23.422,2.661l7.108-44.579c-29.33-27.432-60.383-37.963-103.709-37.963
		c-43.327,0-82.725,16.799-112.055,44.229l44.362,15.43L109.113,91.662z"/>
	<path display="inline" fill="#E7DB43" d="M110.913,259.498c19.597,16.731,45.021,26.839,72.809,26.839
		c28.647,0,54.78-10.742,74.608-28.41l-6.881,20.752l44.361,15.43c-25.94,24.262-59.758,40.207-97.203,43.565l-14.853,20.664
		l-14.603-20.642c-33.188-2.926-63.535-15.734-88.09-35.461l7.132-44.721L110.913,259.498z"/>
	<path display="inline" fill="#A557A2" d="M20.646,159.999c3.353-37.885,19.582-72.068,44.281-98.15l43.432,15.106l-8.271,23.341
		c-17.522,19.794-28.164,45.817-28.164,74.332c0,29.809,11.628,56.896,30.589,76.988l-22.021-0.426l-7.109,44.58
		c-29.427-26.914-49.015-64.406-52.736-106.459L0,174.655L20.646,159.999z"/>
</g>
<g id="Layer_1_copy">
	<path fill="#3562AE" d="M347.201,158.699c-3.354-37.885-19.582-72.068-44.281-98.15l-43.432,15.106l8.27,23.08
		c17.521,19.795,28.164,45.818,28.164,74.332c0,29.809-11.627,56.897-30.588,76.989l22.021-0.164l7.108,44.578
		c29.427-26.912,49.015-64.406,52.736-106.459l0.646-14.656L347.201,158.699z"/>
	<path fill="#E1D947" d="M109.113,257.926c19.827,17.669,45.962,28.41,74.608,28.41c28.647,0,53.384-10.211,73.212-27.88
		l23.422-2.661l7.108,44.58c-29.33,27.433-60.383,37.963-103.709,37.963c-43.327,0-82.725-16.799-112.055-44.229l44.362-15.431
		L109.113,257.926z"/>
	<path fill="#979797" d="M110.913,90.09c19.597-16.732,45.021-26.839,72.809-26.839c28.647,0,54.78,10.742,74.608,28.41
		l-6.881-20.752l44.361-15.43c-25.94-24.261-59.758-40.206-97.203-43.565l-14.853-0.664l-14.603,0.641
		c-33.188,2.927-63.535,15.735-88.09,35.462l7.132,44.721L110.913,90.09z"/>
	<path fill="#996699" d="M20.646,189.589c3.353,37.885,19.582,72.068,44.281,98.15l43.432-15.106l-8.271-23.341
		c-17.522-19.794-28.164-45.816-28.164-74.332c0-29.808,11.628-56.896,30.589-76.988l-22.021,0.425l-7.109-44.579
		C43.956,80.73,24.368,118.224,20.646,160.276L20,174.933L20.646,189.589z"/>
</g>
<g id="use">
	<g>
		<path fill="#FFFFFF" d="M327.008,185.406c0.592,1.006,0.754,2.29,0.49,3.844c-0.271,1.578-0.845,2.735-1.729,3.476
			c-0.883,0.739-2.092,0.979-3.628,0.719l-7.003-1.193l0.438-2.561l7.003,1.19c0.305,0.054,0.609,0.076,0.912,0.071
			c0.305-0.003,0.584-0.073,0.84-0.209c0.256-0.137,0.479-0.348,0.676-0.633c0.195-0.286,0.336-0.689,0.426-1.213
			c0.156-0.914,0.065-1.578-0.27-1.994c-0.336-0.413-0.924-0.692-1.766-0.836l-7.003-1.192l0.437-2.562l7.004,1.191
			C325.359,183.765,326.416,184.397,327.008,185.406z"/>
		<path fill="#FFFFFF" d="M325.817,178.296c0.275-0.125,0.503-0.301,0.685-0.527c0.182-0.225,0.321-0.495,0.422-0.809
			c0.103-0.313,0.164-0.642,0.187-0.983c0.016-0.231,0.014-0.481-0.007-0.748c-0.02-0.267-0.075-0.519-0.166-0.757
			c-0.092-0.238-0.225-0.44-0.4-0.606c-0.175-0.167-0.408-0.26-0.695-0.278c-0.309-0.021-0.564,0.063-0.771,0.255
			c-0.205,0.191-0.382,0.447-0.532,0.769c-0.149,0.322-0.286,0.689-0.409,1.101c-0.125,0.412-0.258,0.829-0.403,1.25
			c-0.136,0.434-0.296,0.854-0.478,1.263c-0.182,0.408-0.406,0.769-0.672,1.083c-0.269,0.314-0.592,0.562-0.974,0.74
			c-0.38,0.179-0.829,0.252-1.352,0.218c-0.586-0.039-1.086-0.203-1.5-0.49c-0.414-0.286-0.75-0.649-1.01-1.086
			s-0.441-0.924-0.545-1.462c-0.104-0.538-0.138-1.071-0.104-1.6c0.042-0.616,0.146-1.203,0.317-1.762
			c0.171-0.558,0.42-1.047,0.747-1.468c0.327-0.42,0.73-0.746,1.211-0.974c0.479-0.227,1.05-0.32,1.71-0.275l-0.166,2.509
			c-0.343,0-0.63,0.056-0.861,0.167c-0.231,0.112-0.418,0.269-0.561,0.469c-0.143,0.201-0.248,0.436-0.318,0.701
			c-0.071,0.266-0.117,0.559-0.139,0.878c-0.015,0.209-0.006,0.42,0.021,0.632c0.029,0.212,0.092,0.407,0.187,0.584
			c0.096,0.178,0.22,0.328,0.371,0.448c0.153,0.12,0.352,0.189,0.597,0.204c0.224,0.015,0.407-0.016,0.552-0.095
			c0.146-0.08,0.283-0.244,0.417-0.495c0.135-0.25,0.275-0.601,0.423-1.05c0.146-0.449,0.336-1.037,0.565-1.763
			c0.058-0.217,0.154-0.518,0.292-0.901s0.342-0.759,0.613-1.129c0.27-0.369,0.618-0.681,1.047-0.934
			c0.43-0.253,0.962-0.359,1.602-0.317c0.521,0.035,0.998,0.172,1.432,0.41c0.434,0.24,0.8,0.575,1.096,1.01
			c0.298,0.435,0.517,0.963,0.657,1.586c0.14,0.623,0.184,1.336,0.131,2.141c-0.044,0.649-0.163,1.274-0.357,1.875
			s-0.473,1.125-0.833,1.571c-0.359,0.447-0.806,0.791-1.335,1.033c-0.528,0.24-1.146,0.332-1.847,0.273l0.166-2.51
			C325.213,178.473,325.543,178.422,325.817,178.296z"/>
		<path fill="#FFFFFF" d="M317.43,159.734l2.111-0.066l0.194,6.237l2.445-0.077l-0.178-5.724l1.949-0.061l0.18,5.724l2.799-0.087
			l-0.198-6.37l2.11-0.065l0.28,8.967l-11.419,0.356L317.43,159.734z"/>
	</g>
</g>
<g id="iterate">
	<g>
		<path fill="#FFFFFF" d="M148.977,37.541l2.748,11.088l-2.522,0.625l-2.748-11.088L148.977,37.541z"/>
		<path fill="#FFFFFF" d="M152.024,38.93l-0.37-2.078l9.532-1.702l0.372,2.079l-3.487,0.623l1.636,9.167l-2.558,0.456l-1.636-9.167
			L152.024,38.93z"/>
		<path fill="#FFFFFF" d="M172.947,34.01l0.185,2.104l-6.216,0.548l0.215,2.438l5.705-0.503l0.171,1.944l-5.705,0.503l0.246,2.789
			l6.348-0.559l0.185,2.104l-8.937,0.787l-1.002-11.381L172.947,34.01z"/>
		<path fill="#FFFFFF" d="M182.829,33.9c0.529,0.004,1.006,0.089,1.43,0.257c0.423,0.169,0.786,0.397,1.089,0.687
			c0.301,0.291,0.529,0.625,0.688,1.006c0.158,0.379,0.234,0.787,0.232,1.225c-0.006,0.672-0.154,1.253-0.451,1.742
			c-0.295,0.488-0.775,0.857-1.438,1.11v0.031c0.32,0.088,0.583,0.22,0.792,0.397c0.208,0.178,0.378,0.387,0.51,0.627
			c0.131,0.242,0.225,0.506,0.283,0.794s0.1,0.577,0.119,0.864c0.01,0.182,0.02,0.396,0.027,0.641
			c0.01,0.246,0.027,0.496,0.054,0.753c0.026,0.257,0.069,0.499,0.128,0.729s0.148,0.425,0.27,0.586l-2.599-0.017
			c-0.141-0.363-0.227-0.797-0.257-1.299c-0.03-0.5-0.076-0.981-0.139-1.439c-0.084-0.599-0.269-1.037-0.555-1.316
			c-0.285-0.279-0.752-0.421-1.404-0.426l-2.598-0.017l-0.029,4.464l-2.599-0.018l0.075-11.424L182.829,33.9z M181.868,39.062
			c0.596,0.005,1.043-0.12,1.343-0.375c0.3-0.254,0.452-0.669,0.456-1.245c0.003-0.555-0.143-0.959-0.439-1.211
			s-0.743-0.381-1.338-0.385l-2.847-0.019l-0.021,3.216L181.868,39.062z"/>
		<path fill="#FFFFFF" d="M195.934,34.757l3.228,11.815l-2.685-0.275l-0.627-2.622l-4.396-0.452l-1.184,2.436l-2.602-0.268
			l5.615-10.906L195.934,34.757z M195.365,41.743l-1.053-4.323l-0.033-0.002l-1.961,4.012L195.365,41.743z"/>
		<path fill="#FFFFFF" d="M200.008,37.332l0.377-2.078l9.527,1.723l-0.375,2.078l-3.486-0.63l-1.658,9.163l-2.557-0.463l1.658-9.163
			L200.008,37.332z"/>
		<path fill="#FFFFFF" d="M221.311,39.958l-0.553,2.039l-6.023-1.63l-0.639,2.363l5.527,1.496l-0.51,1.883l-5.527-1.495
			l-0.732,2.703l6.151,1.665l-0.552,2.038l-8.659-2.343l2.983-11.028L221.311,39.958z"/>
	</g>
</g>
<g id="create">
	<g>
		<path fill="#FFFFFF" d="M153.772,305.886c-0.083-0.273-0.211-0.529-0.384-0.767c-0.173-0.238-0.387-0.445-0.64-0.623
			c-0.254-0.179-0.535-0.312-0.842-0.397c-0.562-0.16-1.07-0.191-1.523-0.093c-0.452,0.099-0.851,0.289-1.196,0.574
			c-0.344,0.282-0.637,0.636-0.877,1.056c-0.239,0.42-0.429,0.871-0.566,1.354c-0.131,0.462-0.203,0.927-0.216,1.395
			c-0.013,0.469,0.054,0.91,0.198,1.329c0.145,0.418,0.383,0.788,0.717,1.11c0.333,0.322,0.78,0.562,1.343,0.724
			c0.764,0.218,1.425,0.162,1.984-0.167c0.558-0.329,0.99-0.85,1.296-1.561l2.42,0.688c-0.259,0.67-0.601,1.243-1.023,1.723
			c-0.424,0.479-0.908,0.851-1.455,1.117c-0.546,0.266-1.14,0.418-1.782,0.456c-0.643,0.039-1.313-0.042-2.014-0.241
			c-0.87-0.248-1.612-0.617-2.223-1.106c-0.612-0.49-1.084-1.06-1.415-1.709c-0.332-0.647-0.526-1.354-0.583-2.12
			c-0.057-0.766,0.028-1.548,0.255-2.348c0.234-0.821,0.578-1.547,1.033-2.178c0.455-0.629,0.996-1.14,1.622-1.525
			c0.626-0.387,1.33-0.631,2.109-0.73c0.78-0.099,1.605-0.025,2.475,0.223c0.626,0.18,1.193,0.436,1.701,0.769
			s0.934,0.729,1.279,1.188c0.346,0.459,0.592,0.976,0.737,1.549c0.147,0.574,0.167,1.189,0.06,1.848l-2.42-0.689
			C153.878,306.438,153.855,306.158,153.772,305.886z"/>
		<path fill="#FFFFFF" d="M165.777,305.222c0.522,0.088,0.979,0.246,1.372,0.479c0.392,0.231,0.714,0.516,0.966,0.849
			c0.252,0.334,0.426,0.701,0.522,1.102c0.096,0.399,0.108,0.814,0.037,1.246c-0.109,0.664-0.349,1.213-0.718,1.648
			c-0.368,0.438-0.9,0.729-1.595,0.871l-0.005,0.032c0.302,0.137,0.542,0.309,0.72,0.517c0.178,0.207,0.313,0.44,0.405,0.699
			c0.091,0.258,0.144,0.534,0.156,0.828c0.013,0.295,0.007,0.585-0.018,0.873c-0.019,0.181-0.043,0.393-0.072,0.637
			c-0.029,0.244-0.051,0.494-0.066,0.751c-0.015,0.259-0.01,0.504,0.012,0.74c0.023,0.235,0.081,0.442,0.175,0.621l-2.564-0.425
			c-0.083-0.381-0.098-0.821-0.049-1.321c0.048-0.5,0.078-0.981,0.087-1.445c0.01-0.604-0.104-1.065-0.341-1.386
			c-0.238-0.32-0.678-0.534-1.32-0.641l-2.563-0.424l-0.729,4.403l-2.564-0.425l1.865-11.271L165.777,305.222z M164.019,310.17
			c0.588,0.097,1.049,0.043,1.385-0.161c0.336-0.203,0.551-0.589,0.645-1.156c0.09-0.549,0.009-0.971-0.244-1.267
			c-0.253-0.296-0.673-0.492-1.261-0.59l-2.809-0.465l-0.525,3.173L164.019,310.17z"/>
		<path fill="#FFFFFF" d="M180.508,306.517l-0.117,2.107l-6.23-0.35l-0.137,2.443l5.718,0.32l-0.109,1.949l-5.718-0.321
			l-0.157,2.797l6.363,0.356l-0.119,2.107l-8.957-0.502l0.64-11.406L180.508,306.517z"/>
		<path fill="#FFFFFF" d="M188.652,306.229l4.977,11.191l-2.695,0.133l-1.018-2.496l-4.414,0.217l-0.801,2.588l-2.612,0.127
			l3.901-11.629L188.652,306.229z M189.146,313.222l-1.695-4.115l-0.031,0.002l-1.332,4.264L189.146,313.222z"/>
		<path fill="#FFFFFF" d="M192.375,308.151l-0.291-2.092l9.592-1.328l0.29,2.093l-3.509,0.485l1.277,9.224l-2.574,0.356
			l-1.277-9.225L192.375,308.151z"/>
		<path fill="#FFFFFF" d="M211.982,302.315l0.492,2.054l-6.066,1.456l0.57,2.381l5.568-1.337l0.456,1.897l-5.567,1.336l0.651,2.724
			l6.197-1.486l0.491,2.054l-8.723,2.094l-2.666-11.108L211.982,302.315z"/>
	</g>
</g>
<g id="Learn">
	<g>
		<path fill="#FFFFFF" d="M57.77,151.414l-9.106-1.948l-1.204,5.633l-2.064-0.442l1.748-8.173l11.172,2.388L57.77,151.414z"/>
		<path fill="#FFFFFF" d="M55.23,167.695l-2.099-0.249l0.735-6.197l-2.431-0.288l-0.675,5.687l-1.939-0.23l0.677-5.688l-2.781-0.33
			l-0.751,6.328l-2.097-0.25l1.058-8.907l11.344,1.346L55.23,167.695z"/>
		<path fill="#FFFFFF" d="M54.97,175.885l-11.501,4.214l0.049-2.699l2.559-0.848l0.078-4.418l-2.525-0.972l0.047-2.615l11.342,4.672
			L54.97,175.885z M47.961,175.908l4.218-1.415l0.001-0.033l-4.165-1.614L47.961,175.908z"/>
		<path fill="#FFFFFF" d="M55.553,188.021c0.047,0.527,0.006,1.011-0.121,1.448c-0.127,0.438-0.32,0.82-0.58,1.147
			c-0.26,0.328-0.57,0.588-0.934,0.781c-0.363,0.191-0.764,0.309-1.198,0.348c-0.669,0.061-1.261-0.035-1.776-0.283
			c-0.514-0.246-0.929-0.689-1.242-1.326l-0.031,0.004c-0.057,0.325-0.164,0.602-0.32,0.825c-0.156,0.224-0.35,0.414-0.576,0.565
			c-0.228,0.154-0.481,0.272-0.764,0.359c-0.281,0.086-0.564,0.152-0.85,0.2c-0.18,0.026-0.391,0.058-0.635,0.091
			c-0.243,0.03-0.49,0.072-0.743,0.122c-0.253,0.052-0.491,0.117-0.714,0.197c-0.223,0.08-0.408,0.188-0.557,0.323l-0.23-2.588
			c0.348-0.176,0.771-0.303,1.268-0.381c0.495-0.076,0.97-0.168,1.42-0.273c0.588-0.143,1.007-0.366,1.258-0.678
			c0.25-0.311,0.348-0.789,0.29-1.438l-0.231-2.589l-4.445,0.396l-0.23-2.588l11.379-1.013L55.553,188.021z M50.323,187.558
			c0.052,0.594,0.22,1.026,0.501,1.301c0.281,0.273,0.709,0.386,1.283,0.334c0.553-0.049,0.939-0.232,1.162-0.553
			c0.225-0.317,0.31-0.773,0.257-1.367l-0.253-2.836l-3.202,0.285L50.323,187.558z"/>
		<path fill="#FFFFFF" d="M56.735,196.459l-6.522,6.367l0.008,0.032l7.509-1.533l0.487,2.384l-11.193,2.287l-0.52-2.547l6.508-6.349
			l-0.006-0.031l-7.493,1.531l-0.487-2.385l11.193-2.287L56.735,196.459z"/>
	</g>
</g>
<g id="user_centred_design_process">
	<g>
		<path d="M131.25,140.226h2.328v7.488c0,0.432,0.021,0.87,0.065,1.314c0.043,0.444,0.167,0.843,0.372,1.197
			s0.515,0.645,0.931,0.873s1.002,0.342,1.76,0.342c0.757,0,1.344-0.114,1.76-0.342s0.726-0.519,0.931-0.873
			s0.329-0.753,0.373-1.197c0.044-0.444,0.065-0.882,0.065-1.314v-7.488h2.328v8.226c0,0.828-0.13,1.548-0.391,2.16
			c-0.261,0.612-0.63,1.125-1.108,1.539s-1.052,0.723-1.723,0.927s-1.415,0.306-2.234,0.306s-1.564-0.102-2.234-0.306
			s-1.245-0.513-1.723-0.927s-0.847-0.927-1.108-1.539c-0.261-0.612-0.391-1.332-0.391-2.16L131.25,140.226L131.25,140.226z"/>
		<path d="M146.146,150.09c0.062,0.6,0.298,1.02,0.708,1.26c0.41,0.24,0.9,0.36,1.471,0.36c0.198,0,0.425-0.015,0.68-0.045
			c0.254-0.03,0.493-0.087,0.717-0.171c0.223-0.084,0.406-0.207,0.549-0.369s0.208-0.375,0.195-0.639
			c-0.012-0.264-0.112-0.48-0.298-0.648c-0.186-0.167-0.425-0.303-0.717-0.405s-0.624-0.189-0.996-0.261
			c-0.373-0.072-0.751-0.15-1.136-0.234c-0.397-0.083-0.779-0.186-1.145-0.306c-0.366-0.12-0.695-0.282-0.987-0.486
			s-0.525-0.465-0.698-0.783c-0.174-0.318-0.261-0.711-0.261-1.179c0-0.504,0.127-0.927,0.382-1.269
			c0.254-0.342,0.577-0.618,0.968-0.828c0.391-0.209,0.825-0.357,1.303-0.441c0.478-0.083,0.934-0.126,1.369-0.126
			c0.497,0,0.971,0.051,1.424,0.153c0.453,0.102,0.863,0.267,1.229,0.495c0.366,0.228,0.67,0.525,0.913,0.891
			c0.242,0.366,0.394,0.807,0.456,1.323h-2.216c-0.1-0.492-0.332-0.822-0.698-0.99c-0.366-0.168-0.785-0.252-1.257-0.252
			c-0.149,0-0.326,0.012-0.531,0.036c-0.205,0.024-0.397,0.069-0.577,0.135c-0.18,0.066-0.333,0.162-0.456,0.288
			c-0.125,0.126-0.187,0.291-0.187,0.495c0,0.252,0.09,0.456,0.27,0.612c0.18,0.156,0.416,0.285,0.708,0.387
			c0.292,0.102,0.624,0.189,0.997,0.261c0.372,0.072,0.757,0.15,1.154,0.234c0.385,0.084,0.764,0.187,1.136,0.306
			c0.373,0.12,0.705,0.282,0.997,0.486c0.292,0.205,0.527,0.462,0.708,0.774c0.18,0.312,0.27,0.696,0.27,1.152
			c0,0.552-0.13,1.021-0.391,1.404c-0.261,0.384-0.599,0.696-1.015,0.936c-0.416,0.24-0.878,0.414-1.387,0.522
			c-0.509,0.108-1.012,0.162-1.508,0.162c-0.608,0-1.17-0.066-1.685-0.198c-0.515-0.132-0.962-0.333-1.341-0.603
			c-0.378-0.27-0.677-0.606-0.894-1.008c-0.217-0.402-0.333-0.879-0.345-1.431H146.146z"/>
		<path d="M155.866,148.956c0,0.36,0.053,0.708,0.158,1.044s0.264,0.63,0.475,0.882s0.478,0.453,0.801,0.603
			c0.322,0.15,0.708,0.225,1.154,0.225c0.621,0,1.12-0.128,1.499-0.387c0.378-0.258,0.661-0.646,0.847-1.161h2.011
			c-0.112,0.504-0.305,0.954-0.578,1.35s-0.602,0.729-0.987,0.999c-0.385,0.271-0.816,0.474-1.294,0.612
			c-0.478,0.138-0.978,0.207-1.499,0.207c-0.757,0-1.428-0.12-2.011-0.36c-0.583-0.24-1.077-0.576-1.48-1.008
			c-0.404-0.432-0.708-0.948-0.913-1.548c-0.205-0.6-0.307-1.26-0.307-1.98c0-0.66,0.108-1.287,0.326-1.881
			c0.217-0.594,0.527-1.116,0.931-1.566c0.403-0.45,0.891-0.807,1.462-1.071c0.571-0.264,1.216-0.396,1.937-0.396
			c0.757,0,1.437,0.153,2.039,0.459s1.102,0.711,1.499,1.215c0.397,0.504,0.686,1.083,0.866,1.737
			c0.18,0.654,0.226,1.329,0.14,2.025H155.866L155.866,148.956z M160.819,147.606c-0.025-0.324-0.096-0.636-0.214-0.936
			s-0.279-0.561-0.484-0.783c-0.205-0.222-0.453-0.402-0.745-0.54c-0.292-0.138-0.618-0.207-0.978-0.207
			c-0.373,0-0.711,0.063-1.015,0.189c-0.304,0.126-0.565,0.3-0.782,0.522c-0.218,0.222-0.391,0.483-0.521,0.783
			c-0.13,0.3-0.202,0.624-0.214,0.972H160.819z"/>
		<path d="M164.562,143.772h1.993v1.8h0.037c0.062-0.252,0.183-0.498,0.363-0.738c0.18-0.24,0.397-0.459,0.651-0.657
			c0.254-0.198,0.537-0.357,0.847-0.477c0.311-0.12,0.627-0.18,0.95-0.18c0.249,0,0.419,0.006,0.512,0.018
			c0.093,0.012,0.189,0.024,0.289,0.036v1.98c-0.149-0.024-0.301-0.045-0.456-0.063c-0.155-0.018-0.307-0.027-0.456-0.027
			c-0.36,0-0.699,0.069-1.015,0.207c-0.316,0.138-0.593,0.342-0.829,0.612c-0.236,0.27-0.422,0.603-0.559,0.999
			c-0.137,0.396-0.205,0.852-0.205,1.368v4.428h-2.123L164.562,143.772L164.562,143.772z"/>
		<path d="M169.888,147.21h5.418v1.944h-5.418V147.21z"/>
		<path d="M183.834,146.886c-0.087-0.576-0.326-1.011-0.717-1.305c-0.391-0.294-0.884-0.441-1.48-0.441
			c-0.273,0-0.565,0.045-0.875,0.135c-0.311,0.09-0.596,0.258-0.856,0.504c-0.26,0.246-0.478,0.588-0.652,1.026
			c-0.174,0.438-0.261,1.011-0.261,1.719c0,0.384,0.047,0.768,0.14,1.152c0.093,0.384,0.242,0.726,0.447,1.026
			c0.205,0.3,0.469,0.543,0.792,0.729c0.323,0.186,0.714,0.279,1.173,0.279c0.621,0,1.132-0.186,1.536-0.558
			c0.403-0.372,0.655-0.894,0.754-1.566h2.123c-0.198,1.212-0.674,2.139-1.424,2.781c-0.751,0.642-1.747,0.963-2.988,0.963
			c-0.757,0-1.425-0.123-2.002-0.369s-1.064-0.582-1.461-1.008c-0.397-0.426-0.699-0.933-0.903-1.521
			c-0.205-0.588-0.307-1.224-0.307-1.908c0-0.696,0.099-1.35,0.298-1.962c0.198-0.612,0.496-1.143,0.894-1.593
			c0.397-0.45,0.891-0.804,1.48-1.062c0.589-0.258,1.282-0.387,2.076-0.387c0.559,0,1.089,0.069,1.592,0.207s0.95,0.345,1.342,0.621
			c0.391,0.276,0.709,0.624,0.959,1.044c0.248,0.42,0.396,0.918,0.445,1.494L183.834,146.886L183.834,146.886z"/>
		<path d="M189.346,148.956c0,0.36,0.053,0.708,0.158,1.044s0.264,0.63,0.477,0.882c0.211,0.252,0.478,0.453,0.801,0.603
			c0.322,0.15,0.707,0.225,1.154,0.225c0.619,0,1.119-0.128,1.498-0.387c0.379-0.258,0.662-0.646,0.849-1.161h2.011
			c-0.111,0.504-0.305,0.954-0.577,1.35s-0.603,0.729-0.987,0.999c-0.383,0.271-0.815,0.474-1.293,0.612
			c-0.479,0.138-0.979,0.207-1.5,0.207c-0.756,0-1.428-0.12-2.011-0.36c-0.584-0.24-1.077-0.576-1.479-1.008
			c-0.404-0.432-0.709-0.948-0.912-1.548c-0.205-0.6-0.309-1.26-0.309-1.98c0-0.66,0.108-1.287,0.325-1.881
			c0.218-0.594,0.527-1.116,0.933-1.566c0.402-0.45,0.891-0.807,1.461-1.071c0.572-0.264,1.217-0.396,1.938-0.396
			c0.758,0,1.438,0.153,2.039,0.459s1.102,0.711,1.498,1.215c0.398,0.504,0.688,1.083,0.867,1.737
			c0.18,0.654,0.227,1.329,0.139,2.025H189.346L189.346,148.956z M194.299,147.606c-0.023-0.324-0.096-0.636-0.213-0.936
			c-0.119-0.3-0.279-0.561-0.484-0.783c-0.205-0.222-0.453-0.402-0.744-0.54c-0.293-0.138-0.618-0.207-0.979-0.207
			c-0.373,0-0.711,0.063-1.016,0.189s-0.564,0.3-0.781,0.522c-0.219,0.222-0.391,0.483-0.521,0.783
			c-0.129,0.3-0.201,0.624-0.215,0.972H194.299z"/>
		<path d="M198.042,143.772h2.011v1.368l0.037,0.036c0.323-0.516,0.745-0.921,1.268-1.215c0.521-0.294,1.099-0.441,1.73-0.441
			c1.055,0,1.887,0.264,2.496,0.792c0.607,0.528,0.912,1.32,0.912,2.376v6.39h-2.123v-5.85c-0.025-0.732-0.186-1.263-0.484-1.593
			c-0.298-0.33-0.764-0.495-1.396-0.495c-0.359,0-0.683,0.063-0.97,0.189c-0.284,0.126-0.526,0.3-0.726,0.522
			c-0.198,0.222-0.354,0.483-0.466,0.783c-0.111,0.3-0.167,0.618-0.167,0.954v5.49h-2.123V143.772L198.042,143.772z"/>
		<path d="M207.762,143.772h1.602v-2.79h2.123v2.79h1.918v1.53h-1.918v4.968c0,0.216,0.011,0.402,0.027,0.558
			c0.021,0.156,0.062,0.288,0.131,0.396c0.069,0.108,0.172,0.189,0.309,0.243c0.136,0.054,0.322,0.081,0.559,0.081
			c0.149,0,0.299-0.003,0.446-0.009c0.149-0.006,0.299-0.027,0.446-0.063v1.584c-0.235,0.024-0.465,0.048-0.688,0.072
			c-0.223,0.024-0.452,0.036-0.688,0.036c-0.559,0-1.008-0.051-1.351-0.153c-0.341-0.102-0.606-0.252-0.801-0.45
			c-0.19-0.198-0.321-0.447-0.392-0.747c-0.068-0.3-0.107-0.642-0.121-1.026v-5.49h-1.602V143.772z"/>
		<path d="M214.932,143.772h1.992v1.8h0.037c0.062-0.252,0.184-0.498,0.363-0.738s0.396-0.459,0.65-0.657
			c0.254-0.198,0.537-0.357,0.848-0.477c0.311-0.12,0.627-0.18,0.949-0.18c0.248,0,0.42,0.006,0.513,0.018
			c0.093,0.012,0.188,0.024,0.288,0.036v1.98c-0.148-0.024-0.301-0.045-0.455-0.063c-0.156-0.018-0.309-0.027-0.457-0.027
			c-0.359,0-0.698,0.069-1.016,0.207c-0.315,0.138-0.593,0.342-0.828,0.612c-0.235,0.27-0.422,0.603-0.56,0.999
			c-0.137,0.396-0.204,0.852-0.204,1.368v4.428h-2.123v-9.306H214.932z"/>
		<path d="M222.809,148.956c0,0.36,0.053,0.708,0.157,1.044s0.265,0.63,0.476,0.882s0.478,0.453,0.802,0.603
			c0.321,0.15,0.707,0.225,1.153,0.225c0.621,0,1.119-0.128,1.498-0.387c0.379-0.258,0.662-0.646,0.849-1.161h2.012
			c-0.112,0.504-0.305,0.954-0.578,1.35c-0.272,0.396-0.602,0.729-0.985,0.999c-0.385,0.271-0.816,0.474-1.295,0.612
			c-0.479,0.138-0.978,0.207-1.498,0.207c-0.758,0-1.428-0.12-2.012-0.36c-0.584-0.24-1.078-0.576-1.48-1.008
			c-0.403-0.432-0.707-0.948-0.912-1.548s-0.307-1.26-0.307-1.98c0-0.66,0.106-1.287,0.324-1.881
			c0.219-0.594,0.527-1.116,0.932-1.566c0.404-0.45,0.891-0.807,1.463-1.071c0.57-0.264,1.216-0.396,1.936-0.396
			c0.758,0,1.438,0.153,2.039,0.459s1.102,0.711,1.499,1.215c0.397,0.504,0.687,1.083,0.866,1.737
			c0.18,0.654,0.227,1.329,0.141,2.025H222.809L222.809,148.956z M227.762,147.606c-0.025-0.324-0.098-0.636-0.215-0.936
			s-0.279-0.561-0.484-0.783c-0.205-0.222-0.453-0.402-0.744-0.54c-0.293-0.138-0.617-0.207-0.979-0.207
			c-0.372,0-0.711,0.063-1.015,0.189s-0.565,0.3-0.782,0.522s-0.391,0.483-0.521,0.783c-0.129,0.3-0.201,0.624-0.213,0.972H227.762z
			"/>
		<path d="M240.572,153.078h-2.012v-1.26h-0.037c-0.285,0.54-0.701,0.927-1.248,1.161s-1.123,0.351-1.73,0.351
			c-0.758,0-1.419-0.129-1.984-0.387c-0.563-0.258-1.033-0.609-1.404-1.053c-0.372-0.444-0.651-0.969-0.838-1.575
			c-0.188-0.605-0.279-1.257-0.279-1.953c0-0.84,0.118-1.566,0.354-2.178c0.236-0.612,0.551-1.116,0.94-1.512
			s0.838-0.687,1.341-0.873c0.504-0.186,1.016-0.279,1.536-0.279c0.298,0,0.603,0.027,0.912,0.081
			c0.312,0.054,0.608,0.141,0.896,0.261c0.285,0.12,0.549,0.273,0.791,0.459c0.241,0.186,0.442,0.405,0.604,0.657h0.037v-4.752
			h2.123L240.572,153.078L240.572,153.078z M233.16,148.524c0,0.396,0.053,0.786,0.158,1.17c0.104,0.384,0.268,0.726,0.483,1.026
			c0.216,0.3,0.494,0.54,0.829,0.72s0.732,0.27,1.192,0.27c0.471,0,0.877-0.096,1.219-0.288c0.342-0.192,0.621-0.444,0.838-0.756
			c0.218-0.312,0.379-0.663,0.483-1.053c0.105-0.39,0.158-0.789,0.158-1.197c0-1.032-0.238-1.836-0.717-2.412
			s-1.127-0.864-1.945-0.864c-0.496,0-0.916,0.099-1.258,0.297s-0.621,0.457-0.838,0.774c-0.217,0.318-0.371,0.678-0.465,1.08
			C233.207,147.693,233.16,148.104,233.16,148.524z"/>
		<path d="M243.048,150.648h2.589v2.43c-0.013,0.744-0.248,1.368-0.707,1.872c-0.461,0.504-1.062,0.828-1.807,0.972v-1.098
			c0.409-0.096,0.717-0.315,0.922-0.657c0.204-0.342,0.301-0.705,0.288-1.089h-1.285V150.648z"/>
		<path d="M121.325,161.826h2.123v1.944h-2.123V161.826z M121.325,165.372h2.123v9.306h-2.123V165.372z"/>
		<path d="M124.789,165.372h1.602v-2.79h2.123v2.79h1.918v1.53h-1.918v4.968c0,0.216,0.009,0.402,0.028,0.558
			c0.019,0.156,0.062,0.288,0.13,0.396c0.068,0.108,0.171,0.189,0.308,0.243c0.136,0.054,0.322,0.081,0.559,0.081
			c0.149,0,0.298-0.003,0.447-0.009c0.149-0.006,0.298-0.027,0.447-0.063v1.584c-0.236,0.024-0.465,0.048-0.689,0.072
			c-0.224,0.024-0.453,0.036-0.689,0.036c-0.559,0-1.009-0.051-1.35-0.153c-0.341-0.103-0.608-0.252-0.801-0.45
			c-0.192-0.198-0.323-0.447-0.391-0.747c-0.068-0.3-0.109-0.642-0.121-1.026v-5.49h-1.602L124.789,165.372L124.789,165.372z"/>
		<path d="M133.614,170.556c0,0.36,0.053,0.708,0.158,1.044s0.264,0.63,0.475,0.882s0.478,0.453,0.801,0.603
			c0.322,0.15,0.708,0.225,1.154,0.225c0.621,0,1.12-0.128,1.499-0.387c0.378-0.258,0.661-0.645,0.847-1.161h2.011
			c-0.112,0.504-0.305,0.954-0.578,1.35c-0.273,0.396-0.602,0.729-0.987,0.999c-0.385,0.27-0.816,0.474-1.294,0.612
			c-0.478,0.138-0.978,0.207-1.499,0.207c-0.757,0-1.428-0.12-2.011-0.36c-0.583-0.24-1.077-0.576-1.48-1.008
			c-0.404-0.432-0.708-0.948-0.913-1.548s-0.307-1.26-0.307-1.98c0-0.66,0.108-1.287,0.326-1.881
			c0.217-0.594,0.527-1.116,0.931-1.566c0.403-0.45,0.891-0.807,1.462-1.071s1.216-0.396,1.937-0.396
			c0.757,0,1.437,0.153,2.039,0.459c0.602,0.306,1.102,0.711,1.499,1.215s0.686,1.083,0.866,1.737
			c0.18,0.654,0.226,1.329,0.14,2.025H133.614z M138.567,169.206c-0.025-0.324-0.096-0.636-0.214-0.936
			c-0.118-0.3-0.279-0.561-0.484-0.783c-0.205-0.222-0.453-0.402-0.745-0.54c-0.292-0.138-0.618-0.207-0.978-0.207
			c-0.373,0-0.711,0.062-1.015,0.188c-0.304,0.126-0.565,0.3-0.782,0.522c-0.218,0.222-0.391,0.483-0.521,0.783
			c-0.13,0.3-0.202,0.624-0.214,0.972H138.567z"/>
		<path d="M142.311,165.372h1.993v1.8h0.037c0.062-0.252,0.183-0.498,0.363-0.738c0.18-0.24,0.397-0.459,0.651-0.657
			c0.254-0.198,0.537-0.357,0.847-0.477c0.311-0.12,0.627-0.18,0.95-0.18c0.249,0,0.419,0.006,0.512,0.018
			c0.093,0.012,0.189,0.024,0.289,0.036v1.98c-0.149-0.024-0.301-0.045-0.456-0.063c-0.155-0.018-0.307-0.027-0.456-0.027
			c-0.36,0-0.699,0.069-1.015,0.207s-0.593,0.342-0.829,0.612c-0.236,0.27-0.422,0.603-0.559,0.999
			c-0.137,0.396-0.205,0.852-0.205,1.368v4.428h-2.123L142.311,165.372L142.311,165.372z"/>
		<path d="M156.928,172.608c0,0.252,0.034,0.432,0.103,0.54c0.068,0.108,0.201,0.162,0.4,0.162c0.062,0,0.137,0,0.224,0
			c0.087,0,0.186-0.012,0.298-0.036v1.422c-0.074,0.024-0.171,0.051-0.289,0.081c-0.118,0.03-0.239,0.057-0.363,0.081
			s-0.248,0.042-0.372,0.054c-0.125,0.012-0.23,0.018-0.317,0.018c-0.435,0-0.794-0.084-1.08-0.252
			c-0.286-0.168-0.472-0.462-0.559-0.882c-0.422,0.396-0.94,0.684-1.555,0.864c-0.614,0.18-1.208,0.27-1.778,0.27
			c-0.435,0-0.85-0.057-1.248-0.171c-0.398-0.114-0.748-0.282-1.052-0.504c-0.305-0.222-0.546-0.504-0.727-0.846
			c-0.18-0.342-0.27-0.741-0.27-1.197c0-0.576,0.109-1.044,0.326-1.404s0.502-0.642,0.856-0.846s0.751-0.351,1.192-0.441
			c0.44-0.09,0.884-0.159,1.331-0.207c0.385-0.072,0.751-0.123,1.099-0.153c0.348-0.03,0.655-0.081,0.922-0.153
			c0.267-0.072,0.478-0.183,0.633-0.333c0.155-0.15,0.232-0.375,0.232-0.675c0-0.264-0.065-0.479-0.195-0.648
			c-0.13-0.168-0.292-0.297-0.484-0.387c-0.192-0.09-0.407-0.15-0.642-0.18c-0.236-0.03-0.459-0.045-0.67-0.045
			c-0.596,0-1.086,0.12-1.471,0.36c-0.385,0.24-0.602,0.612-0.652,1.116h-2.123c0.037-0.6,0.186-1.098,0.447-1.494
			c0.261-0.396,0.593-0.714,0.996-0.954c0.403-0.24,0.86-0.408,1.369-0.504c0.509-0.096,1.03-0.144,1.564-0.144
			c0.472,0,0.937,0.048,1.396,0.144c0.459,0.096,0.872,0.252,1.238,0.468c0.366,0.216,0.661,0.495,0.884,0.837
			c0.224,0.342,0.335,0.759,0.335,1.251v4.788H156.928z M154.805,170.016c-0.323,0.204-0.72,0.327-1.191,0.369
			c-0.472,0.042-0.944,0.105-1.416,0.189c-0.223,0.036-0.44,0.087-0.651,0.153s-0.397,0.156-0.559,0.27
			c-0.162,0.114-0.289,0.264-0.382,0.45c-0.093,0.186-0.14,0.411-0.14,0.675c0,0.228,0.068,0.42,0.205,0.576
			c0.137,0.156,0.301,0.279,0.494,0.369c0.192,0.09,0.403,0.153,0.633,0.189c0.23,0.036,0.438,0.054,0.624,0.054
			c0.236,0,0.49-0.03,0.764-0.09c0.272-0.06,0.53-0.162,0.772-0.306s0.444-0.327,0.605-0.549c0.161-0.222,0.242-0.495,0.242-0.819
			V170.016z"/>
		<path d="M158.25,165.372h1.602v-2.79h2.123v2.79h1.918v1.53h-1.918v4.968c0,0.216,0.009,0.402,0.028,0.558
			c0.019,0.156,0.062,0.288,0.13,0.396c0.068,0.108,0.171,0.189,0.308,0.243c0.136,0.054,0.322,0.081,0.559,0.081
			c0.149,0,0.298-0.003,0.447-0.009c0.149-0.006,0.298-0.027,0.447-0.063v1.584c-0.236,0.024-0.465,0.048-0.689,0.072
			s-0.453,0.036-0.689,0.036c-0.559,0-1.009-0.051-1.35-0.153c-0.341-0.103-0.608-0.252-0.801-0.45
			c-0.192-0.198-0.323-0.447-0.391-0.747s-0.109-0.642-0.121-1.026v-5.49h-1.602L158.25,165.372L158.25,165.372z"/>
		<path d="M165.475,161.826h2.123v1.944h-2.123V161.826z M165.475,165.372h2.123v9.306h-2.123V165.372z"/>
		<path d="M168.957,165.372h2.309l2.439,7.146h0.037l2.346-7.146h2.197l-3.445,9.306h-2.383L168.957,165.372z"/>
		<path d="M181.228,170.556c0,0.36,0.053,0.708,0.158,1.044c0.105,0.336,0.264,0.63,0.475,0.882s0.478,0.453,0.801,0.603
			c0.322,0.15,0.708,0.225,1.154,0.225c0.622,0,1.12-0.128,1.499-0.387c0.379-0.258,0.662-0.645,0.849-1.161h2.012
			c-0.112,0.504-0.305,0.954-0.577,1.35c-0.273,0.396-0.603,0.729-0.986,0.999c-0.385,0.27-0.816,0.474-1.295,0.612
			c-0.479,0.138-0.978,0.207-1.5,0.207c-0.757,0-1.428-0.12-2.011-0.36c-0.583-0.24-1.077-0.576-1.48-1.008
			c-0.404-0.432-0.708-0.948-0.913-1.548s-0.307-1.26-0.307-1.98c0-0.66,0.108-1.287,0.326-1.881
			c0.217-0.594,0.527-1.116,0.931-1.566c0.403-0.45,0.891-0.807,1.462-1.071c0.571-0.264,1.216-0.396,1.937-0.396
			c0.757,0,1.437,0.153,2.039,0.459c0.602,0.306,1.102,0.711,1.499,1.215s0.687,1.083,0.866,1.737
			c0.18,0.654,0.227,1.329,0.141,2.025H181.228z M186.182,169.206c-0.024-0.324-0.098-0.636-0.215-0.936
			c-0.117-0.3-0.279-0.561-0.484-0.783c-0.205-0.222-0.453-0.402-0.744-0.54c-0.293-0.138-0.618-0.207-0.979-0.207
			c-0.373,0-0.711,0.062-1.015,0.188c-0.304,0.126-0.565,0.3-0.782,0.522c-0.218,0.222-0.391,0.483-0.521,0.783
			c-0.13,0.3-0.202,0.624-0.214,0.972H186.182z"/>
		<path d="M204.168,174.678h-2.011v-1.26h-0.037c-0.286,0.54-0.701,0.927-1.247,1.161c-0.547,0.234-1.124,0.351-1.732,0.351
			c-0.758,0-1.418-0.129-1.981-0.387c-0.565-0.258-1.033-0.609-1.406-1.053c-0.373-0.444-0.651-0.969-0.838-1.575
			c-0.187-0.605-0.278-1.257-0.278-1.953c0-0.84,0.116-1.566,0.354-2.178c0.236-0.612,0.549-1.116,0.939-1.512
			s0.838-0.687,1.342-0.873c0.502-0.186,1.015-0.279,1.535-0.279c0.299,0,0.604,0.027,0.914,0.081
			c0.309,0.054,0.606,0.141,0.893,0.261c0.285,0.12,0.55,0.273,0.791,0.459c0.242,0.186,0.445,0.405,0.604,0.657h0.038v-4.752h2.122
			L204.168,174.678L204.168,174.678z M196.758,170.124c0,0.396,0.053,0.786,0.158,1.17s0.268,0.726,0.484,1.026
			c0.217,0.3,0.492,0.54,0.828,0.72c0.334,0.18,0.731,0.27,1.19,0.27c0.472,0,0.879-0.096,1.22-0.288
			c0.342-0.192,0.62-0.444,0.84-0.756c0.217-0.312,0.377-0.663,0.482-1.053c0.105-0.39,0.158-0.789,0.158-1.197
			c0-1.032-0.239-1.836-0.717-2.412c-0.479-0.576-1.127-0.864-1.946-0.864c-0.496,0-0.915,0.099-1.256,0.297
			c-0.343,0.198-0.621,0.457-0.839,0.774c-0.219,0.318-0.372,0.678-0.467,1.08C196.805,169.293,196.758,169.704,196.758,170.124z"/>
		<path d="M208.135,170.556c0,0.36,0.053,0.708,0.158,1.044s0.264,0.63,0.475,0.882s0.479,0.453,0.801,0.603
			s0.707,0.225,1.154,0.225c0.621,0,1.12-0.128,1.5-0.387c0.377-0.258,0.66-0.645,0.846-1.161h2.013
			c-0.11,0.504-0.306,0.954-0.578,1.35c-0.272,0.396-0.603,0.729-0.985,0.999c-0.385,0.27-0.816,0.474-1.295,0.612
			c-0.478,0.138-0.978,0.207-1.498,0.207c-0.759,0-1.429-0.12-2.013-0.36c-0.583-0.24-1.075-0.576-1.479-1.008
			c-0.402-0.432-0.707-0.948-0.912-1.548s-0.307-1.26-0.307-1.98c0-0.66,0.107-1.287,0.325-1.881
			c0.218-0.594,0.527-1.116,0.931-1.566c0.403-0.45,0.892-0.807,1.463-1.071c0.57-0.264,1.217-0.396,1.937-0.396
			c0.757,0,1.437,0.153,2.038,0.459c0.604,0.306,1.102,0.711,1.5,1.215c0.396,0.504,0.686,1.083,0.865,1.737
			c0.18,0.654,0.227,1.329,0.141,2.025H208.135z M213.088,169.206c-0.025-0.324-0.097-0.636-0.215-0.936
			c-0.117-0.3-0.279-0.561-0.484-0.783c-0.203-0.222-0.453-0.402-0.744-0.54c-0.291-0.138-0.617-0.207-0.978-0.207
			c-0.372,0-0.711,0.062-1.015,0.188c-0.305,0.126-0.565,0.3-0.782,0.522c-0.218,0.222-0.392,0.483-0.521,0.783
			c-0.129,0.3-0.203,0.624-0.215,0.972H213.088z"/>
		<path d="M218.432,171.69c0.062,0.6,0.299,1.02,0.707,1.26c0.41,0.24,0.9,0.36,1.473,0.36c0.197,0,0.425-0.015,0.68-0.045
			c0.254-0.03,0.493-0.087,0.717-0.171c0.225-0.084,0.406-0.207,0.551-0.369c0.143-0.162,0.207-0.375,0.194-0.639
			s-0.112-0.48-0.299-0.648c-0.187-0.167-0.425-0.303-0.718-0.405c-0.291-0.102-0.622-0.189-0.995-0.261
			c-0.372-0.072-0.751-0.15-1.136-0.234c-0.397-0.083-0.778-0.186-1.146-0.306c-0.365-0.12-0.695-0.282-0.986-0.486
			s-0.524-0.465-0.697-0.783c-0.176-0.318-0.262-0.711-0.262-1.179c0-0.504,0.127-0.927,0.383-1.269
			c0.254-0.342,0.576-0.618,0.968-0.828c0.391-0.209,0.825-0.357,1.304-0.441c0.479-0.083,0.936-0.126,1.368-0.126
			c0.497,0,0.972,0.051,1.425,0.153s0.862,0.267,1.229,0.495c0.365,0.228,0.67,0.525,0.912,0.891
			c0.242,0.366,0.396,0.807,0.457,1.323h-2.217c-0.1-0.492-0.332-0.822-0.697-0.99c-0.367-0.168-0.785-0.252-1.258-0.252
			c-0.147,0-0.326,0.012-0.531,0.036c-0.203,0.024-0.396,0.069-0.576,0.135c-0.18,0.066-0.332,0.162-0.456,0.288
			s-0.187,0.291-0.187,0.495c0,0.252,0.09,0.456,0.271,0.612c0.18,0.156,0.416,0.285,0.707,0.387
			c0.292,0.102,0.625,0.189,0.997,0.261c0.371,0.072,0.757,0.15,1.154,0.234c0.385,0.084,0.764,0.187,1.135,0.306
			c0.373,0.12,0.705,0.282,0.996,0.486c0.293,0.205,0.527,0.462,0.709,0.774c0.18,0.312,0.271,0.696,0.271,1.152
			c0,0.552-0.131,1.02-0.392,1.404c-0.262,0.384-0.6,0.696-1.016,0.936c-0.416,0.24-0.879,0.414-1.388,0.522
			s-1.013,0.162-1.509,0.162c-0.607,0-1.17-0.066-1.686-0.198c-0.515-0.132-0.962-0.333-1.341-0.603s-0.677-0.606-0.894-1.008
			c-0.219-0.402-0.334-0.879-0.346-1.431H218.432L218.432,171.69z"/>
		<path d="M226.551,161.826h2.122v1.944h-2.122V161.826z M226.551,165.372h2.122v9.306h-2.122V165.372z"/>
		<path d="M239.883,174.192c0,1.404-0.406,2.451-1.22,3.141s-1.983,1.035-3.511,1.035c-0.483,0-0.971-0.048-1.461-0.144
			c-0.49-0.096-0.938-0.258-1.342-0.486c-0.402-0.229-0.74-0.528-1.015-0.9c-0.272-0.372-0.437-0.828-0.483-1.368h2.123
			c0.062,0.288,0.168,0.522,0.315,0.702c0.147,0.18,0.326,0.321,0.53,0.423c0.205,0.102,0.432,0.168,0.681,0.198
			c0.248,0.03,0.508,0.045,0.781,0.045c0.856,0,1.483-0.204,1.881-0.612c0.396-0.408,0.596-0.996,0.596-1.764v-1.422h-0.036
			c-0.299,0.516-0.705,0.918-1.221,1.206s-1.07,0.432-1.667,0.432c-0.771,0-1.424-0.129-1.964-0.387s-0.987-0.612-1.342-1.062
			c-0.354-0.45-0.61-0.969-0.771-1.557c-0.16-0.588-0.242-1.218-0.242-1.89c0-0.624,0.1-1.218,0.299-1.782
			c0.197-0.563,0.483-1.059,0.855-1.485c0.372-0.426,0.829-0.765,1.368-1.017c0.541-0.252,1.151-0.378,1.834-0.378
			c0.608,0,1.168,0.124,1.677,0.369c0.51,0.246,0.898,0.633,1.174,1.161h0.036v-1.278h2.123L239.883,174.192L239.883,174.192z
			 M235.172,173.058c0.471,0,0.871-0.093,1.201-0.279c0.328-0.186,0.596-0.432,0.801-0.738s0.354-0.654,0.446-1.044
			c0.093-0.39,0.14-0.783,0.14-1.179s-0.049-0.78-0.148-1.152s-0.252-0.702-0.457-0.99c-0.203-0.288-0.471-0.516-0.801-0.684
			c-0.328-0.168-0.723-0.252-1.182-0.252c-0.473,0-0.869,0.096-1.191,0.288s-0.584,0.441-0.782,0.747s-0.341,0.654-0.429,1.044
			c-0.086,0.39-0.131,0.777-0.131,1.161c0,0.384,0.051,0.759,0.149,1.125c0.099,0.366,0.251,0.693,0.456,0.981
			s0.466,0.522,0.781,0.702C234.344,172.968,234.725,173.058,235.172,173.058z"/>
		<path d="M242.023,165.372h2.012v1.368l0.037,0.036c0.322-0.516,0.744-0.921,1.266-1.215s1.1-0.441,1.732-0.441
			c1.055,0,1.887,0.264,2.494,0.792c0.608,0.528,0.914,1.32,0.914,2.376v6.39h-2.123v-5.85c-0.025-0.732-0.188-1.263-0.484-1.593
			c-0.299-0.33-0.764-0.495-1.396-0.495c-0.359,0-0.684,0.062-0.969,0.189c-0.285,0.126-0.527,0.3-0.727,0.522
			c-0.198,0.222-0.354,0.483-0.465,0.783c-0.111,0.3-0.168,0.618-0.168,0.954v5.49h-2.123V165.372z"/>
		<path d="M155.299,186.974h2.011v1.26h0.037c0.298-0.541,0.714-0.928,1.248-1.161c0.533-0.233,1.111-0.351,1.731-0.351
			c0.757,0,1.418,0.129,1.983,0.387c0.564,0.258,1.033,0.61,1.406,1.062c0.372,0.449,0.651,0.976,0.838,1.574
			c0.186,0.601,0.279,1.241,0.279,1.926c0,0.625-0.084,1.229-0.251,1.817c-0.167,0.589-0.422,1.107-0.764,1.558
			c-0.341,0.45-0.772,0.812-1.294,1.08c-0.521,0.271-1.136,0.405-1.843,0.405c-0.311,0-0.621-0.026-0.931-0.081
			c-0.311-0.054-0.608-0.142-0.894-0.261c-0.286-0.121-0.549-0.272-0.791-0.459c-0.242-0.188-0.444-0.405-0.605-0.657h-0.037v4.645
			h-2.123V186.974z M162.709,191.635c0-0.42-0.056-0.827-0.167-1.225s-0.279-0.747-0.502-1.054
			c-0.224-0.307-0.503-0.551-0.838-0.737s-0.72-0.279-1.154-0.279c-0.894,0-1.567,0.302-2.021,0.9
			c-0.454,0.599-0.68,1.397-0.68,2.395c0,0.468,0.059,0.902,0.177,1.306c0.118,0.401,0.294,0.746,0.531,1.035
			c0.235,0.286,0.518,0.516,0.847,0.684c0.329,0.168,0.71,0.252,1.145,0.252c0.484,0,0.894-0.096,1.229-0.287
			s0.611-0.441,0.829-0.748c0.217-0.307,0.373-0.654,0.465-1.043C162.663,192.44,162.709,192.043,162.709,191.635z"/>
		<path d="M166.62,186.974h1.993v1.799h0.037c0.062-0.252,0.183-0.498,0.363-0.737c0.18-0.239,0.397-0.459,0.651-0.657
			c0.254-0.197,0.537-0.355,0.847-0.477c0.311-0.12,0.627-0.18,0.95-0.18c0.249,0,0.419,0.006,0.512,0.018
			c0.093,0.012,0.189,0.023,0.289,0.035v1.979c-0.149-0.022-0.301-0.045-0.456-0.062c-0.155-0.019-0.307-0.027-0.456-0.027
			c-0.36,0-0.699,0.068-1.015,0.207s-0.593,0.342-0.829,0.611c-0.236,0.271-0.422,0.604-0.559,1
			c-0.137,0.396-0.205,0.852-0.205,1.367v4.429h-2.123L166.62,186.974L166.62,186.974z"/>
		<path d="M177.252,196.53c-0.77,0-1.456-0.123-2.058-0.369c-0.602-0.245-1.111-0.585-1.527-1.018
			c-0.416-0.432-0.732-0.947-0.95-1.549c-0.217-0.6-0.326-1.26-0.326-1.979c0-0.708,0.108-1.362,0.326-1.963
			c0.218-0.6,0.534-1.115,0.95-1.547c0.416-0.434,0.925-0.771,1.527-1.018s1.288-0.369,2.058-0.369s1.456,0.123,2.058,0.369
			s1.111,0.584,1.527,1.018c0.416,0.432,0.732,0.947,0.95,1.547c0.218,0.601,0.326,1.255,0.326,1.963c0,0.72-0.109,1.38-0.326,1.979
			c-0.217,0.602-0.534,1.117-0.95,1.549c-0.416,0.433-0.925,0.771-1.527,1.018S178.021,196.53,177.252,196.53z M177.252,194.91
			c0.472,0,0.881-0.097,1.229-0.287c0.348-0.192,0.633-0.444,0.856-0.757c0.224-0.312,0.388-0.663,0.494-1.053
			c0.106-0.391,0.158-0.789,0.158-1.197c0-0.396-0.053-0.792-0.158-1.188c-0.105-0.396-0.27-0.745-0.494-1.053
			c-0.223-0.306-0.509-0.556-0.856-0.746c-0.348-0.192-0.757-0.289-1.229-0.289s-0.881,0.097-1.229,0.289
			c-0.348,0.19-0.633,0.44-0.856,0.746c-0.224,0.308-0.388,0.657-0.494,1.053c-0.105,0.396-0.158,0.794-0.158,1.188
			c0,0.408,0.053,0.808,0.158,1.197c0.105,0.389,0.27,0.74,0.494,1.053c0.224,0.312,0.509,0.564,0.856,0.757
			C176.371,194.813,176.78,194.91,177.252,194.91z"/>
		<path d="M190.379,190.086c-0.086-0.576-0.324-1.01-0.717-1.305c-0.391-0.294-0.885-0.441-1.48-0.441
			c-0.271,0-0.563,0.045-0.875,0.136c-0.311,0.09-0.596,0.258-0.854,0.504c-0.263,0.246-0.479,0.588-0.652,1.026
			c-0.174,0.438-0.261,1.011-0.261,1.72c0,0.383,0.047,0.768,0.141,1.151s0.241,0.726,0.446,1.024
			c0.205,0.302,0.47,0.543,0.791,0.729c0.322,0.187,0.714,0.279,1.174,0.279c0.62,0,1.132-0.187,1.535-0.558
			c0.404-0.373,0.655-0.895,0.754-1.566h2.123c-0.198,1.212-0.674,2.14-1.424,2.781c-0.752,0.642-1.748,0.963-2.988,0.963
			c-0.758,0-1.426-0.123-2.002-0.369c-0.577-0.245-1.063-0.581-1.462-1.008c-0.397-0.426-0.699-0.934-0.903-1.521
			c-0.205-0.588-0.307-1.225-0.307-1.908c0-0.695,0.099-1.35,0.298-1.963c0.198-0.611,0.496-1.143,0.895-1.592
			c0.396-0.451,0.891-0.805,1.48-1.062s1.281-0.387,2.076-0.387c0.559,0,1.089,0.068,1.592,0.207
			c0.504,0.139,0.949,0.346,1.342,0.621c0.391,0.275,0.709,0.623,0.959,1.043c0.248,0.422,0.396,0.918,0.445,1.494L190.379,190.086
			L190.379,190.086z"/>
		<path d="M195.891,192.156c0,0.358,0.053,0.709,0.158,1.044c0.105,0.337,0.264,0.63,0.477,0.882
			c0.211,0.252,0.478,0.453,0.801,0.604c0.322,0.149,0.708,0.225,1.154,0.225c0.619,0,1.119-0.129,1.498-0.387
			s0.662-0.646,0.849-1.161h2.011c-0.111,0.504-0.305,0.954-0.576,1.351c-0.273,0.396-0.604,0.729-0.988,0.998
			c-0.385,0.271-0.815,0.475-1.293,0.612c-0.479,0.138-0.979,0.207-1.5,0.207c-0.756,0-1.428-0.12-2.01-0.36
			c-0.584-0.24-1.078-0.576-1.48-1.008c-0.404-0.432-0.708-0.947-0.912-1.548c-0.205-0.601-0.309-1.261-0.309-1.979
			c0-0.66,0.108-1.287,0.326-1.881c0.217-0.595,0.526-1.117,0.932-1.566c0.402-0.449,0.891-0.807,1.462-1.07
			s1.216-0.396,1.937-0.396c0.758,0,1.438,0.152,2.039,0.459s1.102,0.711,1.498,1.215c0.398,0.504,0.688,1.084,0.867,1.736
			c0.18,0.654,0.227,1.33,0.139,2.025L195.891,192.156L195.891,192.156z M200.844,190.808c-0.023-0.324-0.096-0.638-0.213-0.938
			c-0.119-0.301-0.279-0.561-0.484-0.782c-0.205-0.223-0.453-0.401-0.744-0.541c-0.293-0.137-0.618-0.207-0.979-0.207
			c-0.373,0-0.711,0.063-1.016,0.188c-0.305,0.127-0.564,0.302-0.781,0.521c-0.218,0.223-0.391,0.484-0.521,0.783
			c-0.131,0.301-0.201,0.625-0.215,0.973h4.953V190.808z"/>
		<path d="M206.189,193.291c0.062,0.601,0.297,1.021,0.707,1.26c0.41,0.24,0.899,0.359,1.471,0.359c0.199,0,0.426-0.015,0.68-0.045
			c0.254-0.029,0.494-0.087,0.717-0.171c0.225-0.084,0.406-0.207,0.551-0.369c0.143-0.162,0.207-0.375,0.194-0.639
			c-0.013-0.266-0.112-0.479-0.298-0.648c-0.186-0.167-0.426-0.303-0.717-0.405c-0.292-0.102-0.624-0.188-0.996-0.26
			c-0.373-0.072-0.752-0.149-1.137-0.233c-0.396-0.084-0.778-0.187-1.146-0.308c-0.366-0.119-0.694-0.281-0.985-0.485
			c-0.293-0.203-0.525-0.466-0.699-0.783c-0.174-0.316-0.26-0.711-0.26-1.179c0-0.504,0.127-0.928,0.381-1.27
			c0.254-0.343,0.578-0.617,0.969-0.828c0.391-0.209,0.824-0.356,1.303-0.44s0.936-0.125,1.369-0.125
			c0.496,0,0.971,0.051,1.424,0.151c0.453,0.103,0.863,0.269,1.229,0.495c0.367,0.227,0.672,0.525,0.914,0.892
			c0.242,0.365,0.394,0.808,0.455,1.322H210.1c-0.1-0.492-0.332-0.821-0.699-0.99c-0.364-0.168-0.784-0.252-1.256-0.252
			c-0.148,0-0.326,0.013-0.531,0.037c-0.204,0.022-0.396,0.067-0.576,0.135c-0.182,0.066-0.333,0.162-0.456,0.287
			c-0.125,0.127-0.187,0.291-0.187,0.496c0,0.252,0.09,0.455,0.271,0.611c0.181,0.155,0.416,0.284,0.707,0.387
			s0.624,0.188,0.996,0.262c0.373,0.072,0.758,0.15,1.153,0.233c0.386,0.085,0.765,0.188,1.138,0.306
			c0.372,0.121,0.704,0.283,0.995,0.486c0.291,0.205,0.527,0.463,0.707,0.774c0.181,0.311,0.271,0.695,0.271,1.15
			c0,0.553-0.13,1.021-0.392,1.404c-0.261,0.385-0.599,0.695-1.015,0.936s-0.879,0.414-1.389,0.522
			c-0.508,0.108-1.012,0.161-1.508,0.161c-0.607,0-1.17-0.064-1.686-0.197c-0.516-0.132-0.961-0.332-1.34-0.604
			c-0.38-0.271-0.679-0.605-0.896-1.009c-0.218-0.401-0.332-0.879-0.345-1.43h2.125V193.291z"/>
		<path d="M215.854,193.291c0.062,0.601,0.297,1.021,0.707,1.26c0.41,0.24,0.9,0.359,1.472,0.359c0.198,0,0.426-0.015,0.68-0.045
			c0.254-0.029,0.494-0.087,0.718-0.171c0.223-0.084,0.405-0.207,0.549-0.369s0.209-0.375,0.195-0.639
			c-0.013-0.266-0.111-0.479-0.298-0.648c-0.187-0.167-0.426-0.303-0.717-0.405c-0.292-0.102-0.624-0.188-0.996-0.26
			c-0.373-0.072-0.752-0.149-1.138-0.233c-0.396-0.084-0.777-0.187-1.145-0.308c-0.365-0.119-0.695-0.281-0.986-0.485
			c-0.293-0.203-0.524-0.466-0.699-0.783c-0.174-0.316-0.26-0.711-0.26-1.179c0-0.504,0.127-0.928,0.381-1.27
			c0.254-0.343,0.578-0.617,0.97-0.828c0.391-0.209,0.825-0.356,1.303-0.44c0.479-0.084,0.935-0.125,1.369-0.125
			c0.496,0,0.972,0.051,1.424,0.151c0.453,0.103,0.863,0.269,1.229,0.495c0.365,0.227,0.671,0.525,0.912,0.892
			c0.242,0.365,0.395,0.808,0.455,1.322h-2.215c-0.1-0.492-0.332-0.821-0.699-0.99c-0.364-0.168-0.785-0.252-1.256-0.252
			c-0.148,0-0.326,0.013-0.531,0.037c-0.205,0.022-0.396,0.067-0.576,0.135c-0.182,0.066-0.333,0.162-0.456,0.287
			c-0.125,0.127-0.187,0.291-0.187,0.496c0,0.252,0.09,0.455,0.271,0.611c0.18,0.155,0.416,0.284,0.707,0.387
			s0.624,0.188,0.996,0.262c0.372,0.072,0.758,0.15,1.153,0.233c0.385,0.085,0.765,0.188,1.138,0.306
			c0.372,0.121,0.704,0.283,0.995,0.486c0.291,0.205,0.527,0.463,0.707,0.774c0.181,0.311,0.271,0.695,0.271,1.15
			c0,0.553-0.13,1.021-0.393,1.404c-0.26,0.385-0.598,0.695-1.014,0.936s-0.879,0.414-1.389,0.522
			c-0.508,0.108-1.012,0.161-1.508,0.161c-0.607,0-1.17-0.064-1.686-0.197c-0.516-0.132-0.961-0.332-1.341-0.604
			c-0.379-0.271-0.678-0.605-0.895-1.009c-0.218-0.401-0.332-0.879-0.345-1.43h2.125V193.291z"/>
	</g>
</g>
</svg>
