<?xml version="1.0" encoding="utf-8"?>
<!-- Generator: Adobe Illustrator 16.0.0, SVG Export Plug-In . SVG Version: 6.00 Build 0)  -->
<!DOCTYPE svg PUBLIC "-//W3C//DTD SVG 1.1//EN" "http://www.w3.org/Graphics/SVG/1.1/DTD/svg11.dtd">
<svg version="1.1" id="Layer_1" xmlns="http://www.w3.org/2000/svg" xmlns:xlink="http://www.w3.org/1999/xlink" x="0px" y="0px"
	 width="325.625px" height="325.625px" viewBox="0 0 325.625 325.625" enable-background="new 0 0 325.625 325.625"
	 xml:space="preserve">
<path fill="none" d="M58.229,162.886c0-29.651,12.285-56.43,32.035-75.537l0.043,0.031l4-3.5l-0.129-0.133
	c18.479-16.16,42.668-25.955,69.145-25.955c25.795,0,49.414,9.299,67.703,24.72l-0.396,0.519l5.428,4.35l0.152-0.199
	c19.854,19.118,32.207,45.968,32.207,75.705c0,28.583-11.416,54.496-29.93,73.441l-4.68,4.053l0.207,0.271
	c-18.666,16.979-43.469,27.328-70.691,27.328c-25.764,0-49.357-9.276-67.637-24.665l-3.879-3.685l-0.17,0.096
	C71.084,220.544,58.229,193.218,58.229,162.886z"/>
<path fill="#A558A2" d="M259.348,47.284l1.307,24.478l-22.389,1.294l-7.24,9.456c-18.289-15.421-41.908-24.72-67.703-24.72
	c-26.477,0-50.666,9.795-69.145,25.955l-7.021-7.206L86.832,50.39l-28.404,1.286l-7.896-6.763C79.742,17.085,119.283,0,162.812,0
	c40.379,0,77.318,14.706,105.771,39.045l-1.592-1.212L259.348,47.284z"/>
<path fill="#969796" d="M80.152,57.926l0.59,22.42l9.521,7.003c-19.75,19.107-32.035,45.886-32.035,75.537
	c0,30.332,12.855,57.658,33.408,76.84l-9.271,5.283l-24.73-8.503l-8.361,27.176l-9.414,5.854C15.031,240.958,0,203.641,0,162.812
	c0-44.052,17.504-84.011,45.926-113.321l9.719,8.973L80.152,57.926z"/>
<path fill="#E1D946" d="M242.172,267.711l4.58-21.952l-7.641-9.973l-0.625,0.541c18.514-18.945,29.93-44.858,29.93-73.441
	c0-29.737-12.354-56.587-32.207-75.705l6.061-7.833l26.127-1.146l-2.178-28.35l5.889-7.712
	c32.871,29.789,53.518,72.819,53.518,120.673c0,47.233-20.121,89.761-52.25,119.501l-7.229-9.489L242.172,267.711z"/>
<path fill="#3663AE" d="M62.48,245.333l21.305,6.997l13.021-7.95l-1.121-1.065c18.279,15.389,41.873,24.665,67.637,24.665
	c27.223,0,52.025-10.35,70.691-27.328l5.621,7.334l-5.695,25.524l27.939,5.28l6.076,8.322
	c-28.369,24.02-65.061,38.513-105.143,38.513c-46.586,0-88.598-19.57-118.275-50.934l10.189-6.104L62.48,245.333z"/>
<path fill="#FFFFFF" d="M90.307,87.38l-0.043-0.031c1.273-1.232,2.578-2.434,3.914-3.602l0.129,0.133L90.307,87.38z"/>
<path fill="#FFFFFF" d="M86.832,50.39l0.324,26.151l7.021,7.206c-1.336,1.168-2.641,2.369-3.914,3.602l-9.521-7.003l-0.59-22.42
	l-24.508,0.538l-9.719-8.973c1.508-1.555,3.037-3.085,4.605-4.578l7.896,6.763L86.832,50.39z"/>
<path fill="#FFFFFF" d="M230.629,83.03l0.396-0.519c1.779,1.5,3.51,3.057,5.184,4.669l-0.152,0.199L230.629,83.03z"/>
<path fill="#FFFFFF" d="M268.396,78.201l-26.127,1.146l-6.061,7.833c-1.674-1.612-3.404-3.169-5.184-4.669l7.24-9.456l22.389-1.294
	l-1.307-24.478l7.645-9.451l1.592,1.212c1.188,1.017,2.365,2.045,3.523,3.095l-5.889,7.712L268.396,78.201z"/>
<path fill="#FFFFFF" d="M273.807,282.88l-5.6,4.579l-0.252-0.347c1.842-1.561,3.648-3.159,5.42-4.799L273.807,282.88z"/>
<path fill="#FFFFFF" d="M238.486,236.327c-1.449,1.483-2.938,2.929-4.473,4.324l-0.207-0.271L238.486,236.327z"/>
<path fill="#FFFFFF" d="M233.939,273.51l5.695-25.524l-5.621-7.334c1.535-1.396,3.023-2.841,4.473-4.324l0.625-0.541l7.641,9.973
	l-4.58,21.952l23.975,5.113l7.229,9.489c-1.771,1.64-3.578,3.238-5.42,4.799l-6.076-8.322L233.939,273.51z"/>
<path fill="#FFFFFF" d="M95.686,243.314c-1.381-1.161-2.73-2.358-4.049-3.589l0.17-0.096L95.686,243.314z"/>
<path fill="#FFFFFF" d="M281.088,274.691l0.73,0.438l4.5-5.25l-0.553-0.344C284.244,271.289,282.682,273.006,281.088,274.691z"/>
<path fill="#FFFFFF" d="M49.273,263.682l8.361-27.176l24.73,8.503l9.271-5.283c1.318,1.23,2.668,2.428,4.049,3.589l1.121,1.065
	l-13.021,7.95l-21.305-6.997l-7.754,23.255l-10.189,6.104c-1.594-1.686-3.156-3.402-4.678-5.155L49.273,263.682z"/>
<g>
	<path fill="#FDFEFF" stroke="#FFFFFF" stroke-miterlimit="10" d="M138.401,38.491l-7.928,1.835l-2.897-12.521l0.363-0.084
		l2.816,12.17l7.565-1.75L138.401,38.491z"/>
	<path fill="#FDFEFF" stroke="#FFFFFF" stroke-miterlimit="10" d="M151.044,36.368l0.045,0.357l-8.831,1.115l-1.61-12.752
		l8.757-1.105l0.045,0.357l-8.387,1.059l0.703,5.572l7.889-0.996l0.045,0.357l-7.889,0.996l0.771,6.107L151.044,36.368z"/>
	<path fill="#FDFEFF" stroke="#FFFFFF" stroke-miterlimit="10" d="M154.445,36.472l-0.409,0.008l5.143-12.949l0.484-0.01
		l5.488,12.753l-0.409,0.007l-1.829-4.196l-6.776,0.126L154.445,36.472z M159.445,23.886h-0.038l-3.13,7.961l6.479-0.119
		L159.445,23.886z"/>
	<path fill="#FDFEFF" stroke="#FFFFFF" stroke-miterlimit="10" d="M168.994,36.466l1.186-12.797l5.414,0.502
		c1.384,0.128,2.373,0.488,2.967,1.078c0.593,0.592,0.851,1.45,0.771,2.576c-0.055,0.863-0.356,1.555-0.903,2.076
		c-0.547,0.521-1.293,0.842-2.239,0.959l-0.003,0.035c0.55,0.123,0.989,0.294,1.318,0.512c0.329,0.217,0.572,0.483,0.73,0.799
		c0.157,0.316,0.249,0.68,0.272,1.092c0.024,0.412,0.013,0.875-0.035,1.389c-0.017,0.18-0.032,0.404-0.044,0.674
		c-0.013,0.271-0.019,0.537-0.018,0.803c0,0.266,0.009,0.508,0.026,0.727c0.018,0.218,0.053,0.372,0.107,0.461l-0.408-0.037
		c-0.05-0.138-0.083-0.318-0.1-0.543s-0.022-0.463-0.018-0.716s0.016-0.508,0.033-0.765c0.018-0.258,0.036-0.488,0.055-0.691
		c0.049-0.525,0.052-0.998,0.01-1.418c-0.042-0.42-0.174-0.781-0.396-1.085c-0.221-0.304-0.553-0.552-0.997-0.743
		c-0.443-0.191-1.049-0.323-1.814-0.395l-4.988-0.462l-0.556,6.005L168.994,36.466z M174.905,30.597
		c0.494,0.045,0.972,0.029,1.435-0.049c0.462-0.077,0.878-0.23,1.249-0.463c0.37-0.23,0.679-0.535,0.926-0.917
		c0.248-0.381,0.397-0.852,0.45-1.413c0.071-0.909-0.148-1.644-0.657-2.203c-0.509-0.559-1.394-0.896-2.655-1.015l-5.136-0.476
		l-0.563,6.076L174.905,30.597z"/>
	<path fill="#FDFEFF" stroke="#FFFFFF" stroke-miterlimit="10" d="M186.497,25.601l6.342,14.006l0.036,0.008l2.55-12.138
		l0.365,0.077l-2.643,12.576l-0.547-0.114l-6.342-14.005l-0.037-0.008l-2.55,12.137l-0.364-0.076l2.643-12.578L186.497,25.601z"/>
	<path fill="#FDFEFF" stroke="#FFFFFF" stroke-miterlimit="10" d="M290.431,130.002c-0.721-0.083-1.38-0.28-1.98-0.593
		c-0.603-0.312-1.137-0.743-1.603-1.292c-0.468-0.55-0.837-1.224-1.11-2.022c-0.285-0.833-0.391-1.652-0.317-2.459
		c0.073-0.806,0.3-1.552,0.68-2.239c0.38-0.688,0.905-1.304,1.575-1.848s1.459-0.97,2.368-1.281
		c0.737-0.253,1.526-0.401,2.368-0.445c0.84-0.046,1.652,0.061,2.438,0.317c0.784,0.256,1.505,0.692,2.159,1.308
		c0.654,0.616,1.164,1.458,1.53,2.527c0.284,0.835,0.4,1.608,0.347,2.323c-0.055,0.712-0.212,1.347-0.472,1.901
		c-0.261,0.555-0.583,1.017-0.964,1.383c-0.383,0.366-0.758,0.62-1.129,0.76l-0.121-0.353c0.432-0.187,0.818-0.471,1.165-0.851
		c0.345-0.38,0.618-0.832,0.821-1.353c0.203-0.522,0.312-1.099,0.332-1.729c0.02-0.629-0.088-1.285-0.32-1.966
		c-0.354-1.034-0.854-1.837-1.499-2.41s-1.349-0.974-2.104-1.2c-0.757-0.227-1.524-0.314-2.306-0.264
		c-0.783,0.051-1.491,0.186-2.127,0.402c-0.773,0.264-1.477,0.635-2.111,1.115c-0.635,0.479-1.146,1.041-1.535,1.686
		c-0.388,0.645-0.634,1.355-0.736,2.131c-0.102,0.775-0.008,1.588,0.281,2.434c0.257,0.752,0.607,1.387,1.051,1.904
		s0.948,0.921,1.518,1.212c0.568,0.291,1.188,0.473,1.859,0.545c0.672,0.071,1.359,0.041,2.061-0.095l0.121,0.354
		C291.896,130.052,291.149,130.083,290.431,130.002z"/>
	<path fill="#FDFEFF" stroke="#FFFFFF" stroke-miterlimit="10" d="M289.027,135.849l12.56-2.727l1.152,5.314
		c0.295,1.358,0.251,2.41-0.135,3.154c-0.385,0.744-1.126,1.248-2.223,1.512c-0.839,0.207-1.59,0.128-2.252-0.235
		c-0.662-0.365-1.192-0.98-1.59-1.848l-0.034,0.008c0.048,0.562,0.019,1.032-0.089,1.411c-0.109,0.379-0.29,0.691-0.544,0.938
		c-0.254,0.245-0.573,0.441-0.959,0.588c-0.386,0.148-0.831,0.276-1.335,0.385c-0.176,0.039-0.395,0.093-0.656,0.162
		c-0.261,0.069-0.518,0.145-0.77,0.225c-0.254,0.08-0.48,0.162-0.684,0.244c-0.204,0.081-0.34,0.162-0.408,0.24l-0.088-0.4
		c0.116-0.088,0.279-0.174,0.487-0.258c0.209-0.084,0.435-0.162,0.677-0.232c0.242-0.072,0.488-0.139,0.74-0.199
		c0.251-0.061,0.477-0.111,0.676-0.156c0.516-0.111,0.967-0.25,1.355-0.418c0.387-0.166,0.691-0.4,0.915-0.703
		c0.223-0.303,0.358-0.694,0.408-1.175s-0.008-1.097-0.171-1.849l-1.062-4.896l-5.893,1.278L289.027,135.849z M296.405,139.716
		c0.105,0.484,0.264,0.936,0.479,1.354c0.213,0.418,0.485,0.768,0.816,1.052c0.332,0.284,0.717,0.486,1.154,0.607
		c0.438,0.12,0.932,0.122,1.483,0.002c0.888-0.206,1.523-0.636,1.903-1.29c0.379-0.654,0.436-1.6,0.166-2.837l-1.094-5.041
		l-5.963,1.295L296.405,139.716z"/>
	<path fill="#FDFEFF" stroke="#FFFFFF" stroke-miterlimit="10" d="M293.105,158.847l-0.358,0.039l-0.954-8.85l12.778-1.377
		l0.947,8.775l-0.359,0.038l-0.906-8.405l-5.584,0.602l0.854,7.906l-0.357,0.039l-0.854-7.906l-6.121,0.66L293.105,158.847z"/>
	<path fill="#FDFEFF" stroke="#FFFFFF" stroke-miterlimit="10" d="M292.947,162.244l-0.002-0.409l12.869,5.342l0.001,0.483
		l-12.835,5.292l-0.001-0.41l4.224-1.764l-0.021-6.777L292.947,162.244z M305.455,167.438l-0.001-0.038l-7.91-3.253l0.02,6.48
		L305.455,167.438z"/>
	<path fill="#FDFEFF" stroke="#FFFFFF" stroke-miterlimit="10" d="M305.698,175.383l-0.887,9.886l-0.359-0.031l0.429-4.768
		l-12.442-1.117l0.033-0.37l12.442,1.116l0.426-4.748L305.698,175.383z"/>
	<path fill="#FDFEFF" stroke="#FFFFFF" stroke-miterlimit="10" d="M290.098,196.679l-0.354-0.068l1.688-8.738l12.619,2.438
		l-1.676,8.666l-0.353-0.068l1.604-8.301l-5.513-1.064l-1.51,7.807l-0.354-0.068l1.509-7.807l-6.044-1.168L290.098,196.679z"/>
</g>
<g>
	<path fill="#FFFFFF" stroke="#FFFFFF" stroke-miterlimit="10" d="M144.844,285.762l-1.49,7.925
		c-0.32,1.698-0.965,2.877-1.935,3.537s-2.237,0.843-3.798,0.55c-1.561-0.294-2.674-0.924-3.338-1.893
		c-0.665-0.967-0.837-2.3-0.518-3.998l1.491-7.925l0.366,0.068l-1.491,7.926c-0.286,1.521-0.144,2.744,0.428,3.67
		c0.571,0.926,1.613,1.53,3.125,1.815c1.513,0.284,2.704,0.1,3.572-0.556s1.446-1.743,1.732-3.265l1.491-7.925L144.844,285.762z"/>
	<path fill="#FFFFFF" stroke="#FFFFFF" stroke-miterlimit="10" d="M158.446,288.7c-0.208-0.461-0.494-0.841-0.859-1.14
		c-0.365-0.3-0.805-0.522-1.319-0.668c-0.515-0.145-1.07-0.231-1.665-0.26c-0.459-0.022-0.938,0-1.439,0.066
		c-0.5,0.065-0.958,0.203-1.371,0.411c-0.414,0.209-0.76,0.495-1.039,0.86c-0.278,0.365-0.431,0.835-0.459,1.41
		c-0.028,0.576,0.083,1.044,0.333,1.404s0.583,0.658,1.001,0.895c0.417,0.236,0.896,0.428,1.436,0.574
		c0.54,0.146,1.091,0.298,1.656,0.457c0.612,0.186,1.191,0.364,1.736,0.534c0.545,0.17,1.017,0.385,1.414,0.645
		c0.398,0.26,0.708,0.593,0.931,1c0.222,0.407,0.317,0.946,0.286,1.617c-0.029,0.611-0.191,1.126-0.484,1.545
		c-0.293,0.418-0.67,0.758-1.13,1.018c-0.46,0.261-0.972,0.44-1.536,0.54c-0.564,0.099-1.132,0.135-1.702,0.106
		c-0.756-0.035-1.45-0.153-2.081-0.352c-0.63-0.198-1.169-0.492-1.617-0.88c-0.447-0.388-0.784-0.876-1.011-1.463
		c-0.227-0.588-0.314-1.289-0.262-2.104l0.372,0.018c-0.037,0.768,0.05,1.424,0.26,1.969c0.21,0.545,0.521,0.995,0.932,1.351
		c0.412,0.356,0.908,0.623,1.491,0.802c0.582,0.178,1.226,0.284,1.933,0.317c0.521,0.025,1.041-0.007,1.561-0.096
		c0.52-0.089,0.991-0.25,1.413-0.482c0.421-0.231,0.768-0.539,1.042-0.923c0.273-0.383,0.423-0.851,0.449-1.402
		c0.031-0.646-0.09-1.166-0.363-1.558c-0.273-0.392-0.631-0.709-1.073-0.952c-0.442-0.244-0.937-0.436-1.482-0.576
		c-0.546-0.14-1.071-0.282-1.574-0.428c-0.527-0.145-1.055-0.296-1.581-0.454c-0.527-0.157-0.999-0.363-1.415-0.617
		c-0.417-0.255-0.746-0.582-0.987-0.984c-0.242-0.401-0.348-0.914-0.317-1.538c0.03-0.636,0.192-1.159,0.485-1.571
		c0.293-0.412,0.662-0.733,1.109-0.966c0.446-0.23,0.941-0.387,1.486-0.469s1.083-0.11,1.616-0.085
		c0.657,0.032,1.259,0.131,1.804,0.294c0.545,0.165,1.018,0.409,1.419,0.735c0.401,0.326,0.713,0.743,0.937,1.252
		c0.224,0.51,0.337,1.125,0.34,1.846l-0.372-0.018C158.754,289.721,158.654,289.16,158.446,288.7z"/>
	<path fill="#FFFFFF" stroke="#FFFFFF" stroke-miterlimit="10" d="M174.539,298.396l0.03,0.358l-8.871,0.729l-1.054-12.809
		l8.797-0.724l0.029,0.359l-8.425,0.692l0.46,5.598l7.924-0.651l0.029,0.358l-7.924,0.651l0.505,6.135L174.539,298.396z"/>
</g>
<g>
	<path fill="#FFFFFF" stroke="#FFFFFF" stroke-miterlimit="10" d="M49.421,111.974l-11.367-5.998l0.174-0.329l11.368,5.997
		L49.421,111.974z"/>
	<path fill="#FFFFFF" stroke="#FFFFFF" stroke-miterlimit="10" d="M47.535,115.471l-3.843,9.151l-0.332-0.139l1.853-4.413
		l-11.518-4.837l0.145-0.343l11.519,4.836l1.846-4.395L47.535,115.471z"/>
	<path fill="#FFFFFF" stroke="#FFFFFF" stroke-miterlimit="10" d="M28.07,133.418l-0.347-0.096l2.404-8.57l12.373,3.47l-2.383,8.498
		l-0.347-0.096l2.282-8.141l-5.406-1.517l-2.147,7.656l-0.347-0.098l2.146-7.656l-5.927-1.663L28.07,133.418z"/>
	<path fill="#FFFFFF" stroke="#FFFFFF" stroke-miterlimit="10" d="M26.536,139.05l12.727,1.803l-0.763,5.384
		c-0.196,1.377-0.603,2.346-1.223,2.91c-0.618,0.564-1.488,0.78-2.608,0.646c-0.859-0.097-1.537-0.431-2.031-1.002
		c-0.494-0.572-0.777-1.332-0.85-2.283l-0.035-0.005c-0.149,0.544-0.34,0.974-0.574,1.292c-0.232,0.317-0.51,0.548-0.833,0.69
		c-0.323,0.142-0.692,0.215-1.104,0.22c-0.412,0.004-0.874-0.03-1.385-0.103c-0.179-0.025-0.402-0.051-0.672-0.075
		c-0.269-0.026-0.535-0.047-0.8-0.059c-0.266-0.012-0.507-0.015-0.727-0.008c-0.219,0.006-0.375,0.034-0.466,0.084l0.058-0.406
		c0.139-0.042,0.32-0.066,0.546-0.072c0.225-0.006,0.464,0,0.716,0.017s0.507,0.04,0.763,0.07c0.257,0.03,0.484,0.06,0.688,0.089
		c0.522,0.074,0.994,0.1,1.416,0.078c0.421-0.022,0.789-0.137,1.104-0.343c0.313-0.206,0.576-0.526,0.79-0.96
		c0.212-0.434,0.374-1.031,0.48-1.793l0.704-4.96l-5.971-0.846L26.536,139.05z M32.113,145.237c-0.069,0.491-0.076,0.97-0.021,1.436
		c0.055,0.466,0.189,0.889,0.402,1.271c0.213,0.381,0.503,0.704,0.871,0.971c0.368,0.265,0.831,0.436,1.391,0.516
		c0.904,0.115,1.648-0.067,2.231-0.549c0.584-0.481,0.964-1.349,1.141-2.604l0.724-5.107l-6.041-0.856L32.113,145.237z"/>
	<path fill="#FFFFFF" stroke="#FFFFFF" stroke-miterlimit="10" d="M24.757,154.25l0.003-0.409l12.81,5.482l-0.004,0.483
		l-12.893,5.15l0.004-0.409l4.242-1.718l0.054-6.777L24.757,154.25z M37.207,159.581l0.001-0.038l-7.876-3.339l-0.051,6.479
		L37.207,159.581z"/>
	<path fill="#FFFFFF" stroke="#FFFFFF" stroke-miterlimit="10" d="M37.618,166.33l0.985,9.875l-0.358,0.036l-0.476-4.762
		l-12.43,1.239l-0.036-0.37l12.43-1.239l-0.473-4.744L37.618,166.33z"/>
	<path fill="#FFFFFF" stroke="#FFFFFF" stroke-miterlimit="10" d="M28.901,191.307l-0.353,0.076l-1.859-8.706l12.567-2.685
		l1.845,8.631l-0.353,0.075l-1.766-8.267l-5.492,1.173l1.662,7.776l-0.353,0.074l-1.662-7.775l-6.02,1.287L28.901,191.307z"/>
</g>
</svg>
